<svg width="478" height="243" viewBox="0 0 478 243" fill="none" xmlns="http://www.w3.org/2000/svg">
<path d="M439.267 221.359C436.566 216.206 425.59 212.067 420.679 211.129C394.462 206.125 367.001 206.824 340.444 206.908C311.52 206.999 283.925 211.628 255.241 213.772C240.325 214.883 224.56 212.882 209.609 212.363C184.99 211.51 160.375 210.509 135.766 209.36C114.547 208.37 92.5254 210.59 73.8094 222.288C71.6828 223.619 69.5336 225.224 68.5654 227.611C62.4855 242.599 138.259 240.716 148.13 240.973C197.927 242.269 247.758 242.939 297.561 241.591C334.59 240.588 373.183 240.649 409.907 235.424C418.027 234.268 429.08 233.854 436.096 229.075C439.977 226.43 440.537 223.783 439.267 221.359Z" fill="#E7F5FE"/>
<path d="M407.031 16.7969C407.679 16.7969 408.347 16.8094 409.031 16.8346" stroke="#D2E8F9" stroke-miterlimit="10"/>
<path d="M413.034 17.1133C425.949 18.4242 441.715 23.8797 439.872 35.0496C436.933 52.8546 357.794 46.2882 338.892 46.4731C300.879 46.8449 262.466 46.9879 225.196 55.2994C216.133 57.3204 203.153 61.7813 204.14 73.3434C204.485 77.3819 206.865 81.0375 209.893 83.7719C220.777 93.6014 235.943 94.5432 250.021 96.2689C271.314 98.8789 372.6 95.4008 405.708 106.256C412.229 108.394 420.375 111.15 420.647 120.464C421.337 144.148 362.519 142.981 344.877 143.431C297.788 144.632 250.646 144.156 203.556 143.227C165.501 142.477 127.326 141.811 89.3327 139.356C75.1695 138.441 52.0062 138.165 41.2048 127.533C35.1651 121.588 34.3731 110.78 43.9223 105.258C50.6527 101.367 70.3964 103.069 77.9953 102.415C100.975 100.438 94.026 86.4999 75.4026 84.7141" stroke="#D2E8F9" stroke-miterlimit="10" stroke-dasharray="4.01 4.01"/>
<path d="M73.3982 84.5695C72.7439 84.5391 72.0773 84.5238 71.3984 84.5234" stroke="#D2E8F9" stroke-miterlimit="10"/>
<path d="M408.38 34.1135L402.317 2.06177C402.234 1.62498 402.038 1.21763 401.748 0.880662C401.458 0.5437 401.085 0.288993 400.665 0.142152C400.246 -0.0046889 399.795 -0.0384975 399.358 0.0441298C398.921 0.126757 398.514 0.3229 398.177 0.612855L373.451 21.8901C373.114 22.18 372.859 22.5536 372.712 22.9732C372.566 23.3928 372.532 23.8436 372.614 24.2804C372.697 24.7172 372.893 25.1245 373.183 25.4615C373.473 25.7984 373.847 26.0531 374.266 26.2L405.055 36.9745C405.475 37.1213 405.926 37.1551 406.363 37.0725C406.799 36.9898 407.207 36.7937 407.544 36.5038C407.881 36.2138 408.135 35.8403 408.282 35.4207C408.429 35.0011 408.463 34.5503 408.38 34.1135Z" fill="#F0FAFF"/>
<path d="M403.708 33.6266C403.532 33.6266 403.357 33.5969 403.19 33.5387L377.866 24.6764C377.606 24.5852 377.374 24.427 377.193 24.2176C377.013 24.0083 376.891 23.7552 376.84 23.4839C376.789 23.2125 376.81 22.9324 376.901 22.6717C376.992 22.411 377.15 22.1789 377.36 21.9987L397.697 4.49822C397.907 4.31803 398.16 4.19609 398.431 4.14468C398.702 4.09327 398.982 4.11421 399.243 4.20538C399.503 4.29654 399.735 4.45472 399.915 4.66401C400.096 4.8733 400.217 5.12632 400.269 5.39762L405.256 31.7614C405.299 31.9889 405.292 32.2232 405.234 32.4474C405.176 32.6717 405.069 32.8803 404.921 33.0586C404.773 33.2368 404.588 33.3801 404.378 33.4783C404.169 33.5765 403.94 33.6271 403.708 33.6266ZM379.225 23.0329L403.153 31.4069L398.442 6.49671L379.225 23.0329Z" fill="#B5DDF7"/>
<path d="M392.714 22.8648C392.483 22.7841 392.293 22.6174 392.182 22.3996C392.071 22.1817 392.048 21.9295 392.118 21.6953L394.629 12.8854C394.687 12.6927 394.784 12.5136 394.913 12.3591C395.042 12.2047 395.201 12.0779 395.38 11.9866C395.559 11.8952 395.755 11.8411 395.956 11.8276C396.157 11.8141 396.358 11.8413 396.548 11.9078C396.738 11.9743 396.913 12.0786 397.061 12.2144C397.21 12.3502 397.33 12.5147 397.413 12.698C397.496 12.8812 397.541 13.0794 397.546 13.2807C397.55 13.4819 397.514 13.682 397.439 13.8688L393.909 22.3219C393.818 22.5489 393.643 22.732 393.42 22.8331C393.198 22.9343 392.945 22.9456 392.714 22.8648Z" fill="#B5DDF7"/>
<path d="M392.896 25.2633C392.832 25.4438 392.717 25.6016 392.564 25.7166C392.411 25.8316 392.228 25.8987 392.037 25.9094C391.846 25.9201 391.656 25.874 391.491 25.7768C391.327 25.6796 391.194 25.5357 391.111 25.3633C391.028 25.191 390.998 24.9979 391.025 24.8085C391.052 24.6191 391.134 24.4419 391.262 24.2992C391.389 24.1566 391.556 24.055 391.741 24.0072C391.926 23.9594 392.122 23.9677 392.302 24.0309C392.422 24.0728 392.533 24.138 392.627 24.2226C392.722 24.3072 392.799 24.4097 392.854 24.5241C392.909 24.6386 392.941 24.7628 392.948 24.8896C392.956 25.0164 392.938 25.1434 392.896 25.2633Z" fill="#B5DDF7"/>
<path d="M69.4734 73.745L49.5382 63.8218C49.2666 63.6865 48.9641 63.6252 48.6612 63.6439C48.3583 63.6626 48.0657 63.7608 47.8128 63.9284C47.5598 64.0961 47.3554 64.3274 47.2202 64.599C47.085 64.8707 47.0236 65.1732 47.0424 65.4761L48.4165 87.7021C48.4352 88.005 48.5333 88.2977 48.701 88.5506C48.8686 88.8036 49.0999 89.0079 49.3716 89.1432C49.6433 89.2784 49.9458 89.3397 50.2487 89.321C50.5516 89.3023 50.8442 89.2041 51.0971 89.0365L69.658 76.7337C69.911 76.566 70.1154 76.3347 70.2506 76.063C70.3858 75.7914 70.4472 75.4889 70.4285 75.186C70.4097 74.8831 70.3116 74.5905 70.144 74.3375C69.9763 74.0846 69.745 73.8802 69.4734 73.745Z" fill="#F0FAFF"/>
<path d="M67.2785 76.0853C67.2058 76.1811 67.1175 76.264 67.0172 76.3305L51.7506 86.4496C51.5934 86.5537 51.4117 86.6147 51.2235 86.6263C51.0353 86.6379 50.8474 86.5999 50.6786 86.5159C50.5098 86.4319 50.3661 86.305 50.2619 86.1478C50.1577 85.9907 50.0967 85.8089 50.085 85.6208L48.9552 67.3394C48.9435 67.1513 48.9815 66.9634 49.0654 66.7946C49.1494 66.6258 49.2763 66.4822 49.4334 66.378C49.5904 66.2738 49.7722 66.2129 49.9603 66.2013C50.1484 66.1896 50.3363 66.2277 50.505 66.3118L66.9024 74.4739C67.044 74.5442 67.1683 74.645 67.2664 74.7689C67.3646 74.8929 67.4341 75.037 67.47 75.191C67.506 75.3449 67.5074 75.5049 67.4743 75.6595C67.4412 75.8141 67.3743 75.9595 67.2785 76.0853ZM51.4169 85.0328L65.8423 75.4714L50.3492 67.759L51.4169 85.0328Z" fill="#B5DDF7"/>
<path d="M56.896 77.6262C56.7569 77.7185 56.5875 77.7535 56.4233 77.724C56.259 77.6945 56.1124 77.6027 56.0141 77.4678L52.2578 72.4681C52.1768 72.3571 52.1192 72.2308 52.0884 72.0969C52.0576 71.963 52.0542 71.8242 52.0785 71.689C52.1028 71.5537 52.1543 71.4248 52.2298 71.31C52.3053 71.1952 52.4032 71.0968 52.5178 71.0209C52.6323 70.945 52.761 70.8931 52.8962 70.8683C53.0313 70.8435 53.1701 70.8463 53.3041 70.8766C53.4382 70.9069 53.5647 70.9641 53.676 71.0446C53.7873 71.1252 53.8812 71.2274 53.9519 71.3453L57.0936 76.7523C57.1795 76.8954 57.2069 77.0661 57.1701 77.2289C57.1333 77.3917 57.0351 77.534 56.896 77.6262Z" fill="#B5DDF7"/>
<path d="M58.2731 78.5142C58.3453 78.623 58.3835 78.7508 58.3831 78.8814C58.3826 79.012 58.3434 79.1395 58.2704 79.2478C58.1975 79.3562 58.0941 79.4404 57.9732 79.4899C57.8524 79.5395 57.7196 79.5521 57.5916 79.5261C57.4636 79.5002 57.3462 79.4369 57.2542 79.3442C57.1622 79.2515 57.0997 79.1336 57.0747 79.0054C57.0497 78.8773 57.0633 78.7445 57.1137 78.6241C57.1641 78.5036 57.2491 78.4008 57.358 78.3287C57.504 78.2319 57.6823 78.1971 57.854 78.2319C58.0256 78.2667 58.1763 78.3682 58.2731 78.5142Z" fill="#B5DDF7"/>
<path d="M83.2857 118.564C84.2029 118.564 84.9464 117.82 84.9464 116.903C84.9464 115.986 84.2029 115.242 83.2857 115.242C82.3685 115.242 81.625 115.986 81.625 116.903C81.625 117.82 82.3685 118.564 83.2857 118.564Z" stroke="#D2E8F9" stroke-miterlimit="10"/>
<path d="M329.708 87.8448C330.625 87.8448 331.368 87.1013 331.368 86.1841C331.368 85.267 330.625 84.5234 329.708 84.5234C328.79 84.5234 328.047 85.267 328.047 86.1841C328.047 87.1013 328.79 87.8448 329.708 87.8448Z" stroke="#D2E8F9" stroke-miterlimit="10"/>
<path d="M198.965 41.3253C199.883 41.3253 200.626 40.5818 200.626 39.6646C200.626 38.7474 199.883 38.0039 198.965 38.0039C198.048 38.0039 197.305 38.7474 197.305 39.6646C197.305 40.5818 198.048 41.3253 198.965 41.3253Z" stroke="#D2E8F9" stroke-miterlimit="10"/>
<path d="M196.973 167.579C197.89 167.579 198.634 166.836 198.634 165.919C198.634 165.001 197.89 164.258 196.973 164.258C196.056 164.258 195.312 165.001 195.312 165.919C195.312 166.836 196.056 167.579 196.973 167.579Z" stroke="#D2E8F9" stroke-miterlimit="10"/>
<path d="M235.656 68.1641V71.9202" stroke="#D2E8F9" stroke-linecap="round" stroke-linejoin="round"/>
<path d="M237.537 70.043H233.781" stroke="#D2E8F9" stroke-linecap="round" stroke-linejoin="round"/>
<path d="M303.07 20.1797V23.9358" stroke="#D2E8F9" stroke-linecap="round" stroke-linejoin="round"/>
<path d="M304.944 22.0547H301.188" stroke="#D2E8F9" stroke-linecap="round" stroke-linejoin="round"/>
<path d="M407.359 121.488V125.244" stroke="#D2E8F9" stroke-linecap="round" stroke-linejoin="round"/>
<path d="M409.24 123.367H405.484" stroke="#D2E8F9" stroke-linecap="round" stroke-linejoin="round"/>
<path d="M269.376 228.859C269.376 228.859 262.385 231.841 262.391 233.334C262.394 234.189 272.003 232.965 272.583 232.385C273.509 231.459 272.207 228.988 272.207 228.988L269.376 228.859Z" fill="#26387A"/>
<path d="M268.93 224.69L269.378 228.988C269.483 229.221 269.653 229.418 269.868 229.555C270.083 229.692 270.333 229.763 270.588 229.761C270.899 229.765 271.207 229.697 271.488 229.563C271.77 229.429 272.016 229.233 272.209 228.988L271.864 223.609" fill="#FFB288"/>
<path d="M281.138 126.113C283.68 136.359 282.737 141.563 279.012 149.292C276.755 175.278 275.178 201.163 272.141 226.501L268.929 226.685C261.634 202.016 254.921 165.135 255.777 131.424" fill="#26387A"/>
<path d="M279.553 129.633C280.415 132.065 280.783 134.645 280.634 137.222C280.51 141.11 278.93 144.629 277.907 148.317C276.542 153.233 276.437 158.131 276.064 163.171C275.48 171.058 274.886 178.944 274.281 186.829C273.301 199.689 272.313 212.549 271.315 225.407C271.286 225.789 271.256 226.171 271.227 226.553" stroke="#0061A6" stroke-width="0.5" stroke-miterlimit="10"/>
<path d="M297.251 229.859C297.251 229.859 290.26 232.841 290.266 234.334C290.269 235.189 299.878 233.965 300.458 233.385C301.384 232.459 300.082 229.988 300.082 229.988L297.251 229.859Z" fill="#26387A"/>
<path d="M296.805 225.69L297.253 229.988C297.358 230.221 297.528 230.418 297.743 230.555C297.958 230.692 298.208 230.763 298.463 230.761C298.774 230.765 299.082 230.697 299.363 230.563C299.645 230.429 299.891 230.233 300.084 229.988L299.739 224.609" fill="#FFB288"/>
<path d="M304.389 125.246C307.604 135.301 307.007 140.556 303.801 148.514C303.269 174.594 301.475 201.826 300.121 227.31H296.82C287.907 203.177 278.361 165.918 276.984 132.224" fill="#26387A"/>
<path d="M302.792 129.41C302.792 129.41 306.519 138.133 300.218 150.382C299.491 161.943 299.117 227.309 299.117 227.309" stroke="#0061A6" stroke-width="0.5" stroke-miterlimit="10"/>
<path d="M293.57 132.172C294.242 133.144 295.196 133.887 296.304 134.297C297.402 134.7 298.548 134.96 299.712 135.069C301.089 135.26 302.479 135.331 303.868 135.283" stroke="#0061A6" stroke-width="0.5" stroke-miterlimit="10"/>
<path d="M294.031 133.809C295.253 134.862 296.723 135.587 298.302 135.913C299.872 136.235 301.472 136.386 303.074 136.365" stroke="#0061A6" stroke-width="0.5" stroke-miterlimit="10"/>
<path d="M266.234 76.649C255.115 95.9956 243.147 113.517 236.052 134.672L233.938 133.548C234.478 113.906 240.844 85.3453 249.203 67.5625" fill="#FFB288"/>
<path d="M260.796 56.4453C258.14 57.3022 255.62 58.5329 253.311 60.1005C249.541 62.7336 246.555 66.3376 244.667 70.5306C242.796 74.7097 241.542 79.1388 240.945 83.6788C244.106 85.1706 247.473 86.1796 250.933 86.6719C254.592 87.0558 258.282 87.0558 261.941 86.6719" fill="#D9F0FF"/>
<path d="M252.503 67.8821C251.321 88.8057 252.222 110.329 252.754 130.683C252.754 130.683 260.049 132.625 277.777 132.625C295.436 132.625 307.001 127.241 307.001 127.241C303.58 106.324 300.858 80.658 292.479 63.4387C292.479 63.4387 283.023 53.2391 273.694 52.8203C271.761 52.8516 269.864 53.343 268.158 54.2539C266.842 54.8659 260.793 56.3441 260.793 56.3441L252.503 67.8821Z" fill="#D9F0FF"/>
<path d="M252.4 69.7461C251.937 73.7685 251.938 86.1855 251.938 86.1855" stroke="#94C1F2" stroke-width="0.5" stroke-miterlimit="10"/>
<path d="M270.031 137.269C299.647 133.985 312.068 171.521 318.812 186.083C334.753 220.502 394.895 216.664 422.303 216.664C458.2 216.664 473.955 228.762 457.2 235.107" stroke="#B4E8FD" stroke-width="5" stroke-linecap="round" stroke-linejoin="round"/>
<path d="M280.238 138.965C280.238 154.2 268.707 163.394 258.852 163.394H242.688V114.535H258.852C268.707 114.535 280.238 123.729 280.238 138.965Z" fill="#FDAE2B"/>
<path d="M271.915 138.963C271.915 153.849 263.1 165.918 252.226 165.918H234.391V112.008H252.226C263.1 112.008 271.915 124.076 271.915 138.963Z" fill="#EF8417"/>
<g style="mix-blend-mode:multiply" opacity="0.5">
<path d="M275.861 124.238C272.003 129.494 268.248 134.822 264.594 140.223C265.114 140.121 265.592 139.87 265.972 139.501C265.971 139.906 265.327 140.607 265.897 140.867C266.468 141.128 267.072 140.459 267.668 140.642C268.228 140.511 268.75 139.81 269.159 139.406C269.025 139.705 268.941 140.023 268.909 140.349C272.843 138.819 276.362 135.151 279.423 132.198C278.718 129.354 277.511 126.659 275.861 124.238Z" fill="#FDAE2B"/>
</g>
<path d="M235.657 165.917C246.531 165.917 255.346 153.849 255.346 138.963C255.346 124.076 246.531 112.008 235.657 112.008C224.784 112.008 215.969 124.076 215.969 138.963C215.969 153.849 224.784 165.917 235.657 165.917Z" fill="#FFC840"/>
<path d="M237.305 148.513C237.305 150.726 235.794 152.519 233.93 152.519C232.066 152.519 230.555 150.726 230.555 148.513C230.555 146.301 232.066 144.508 233.93 144.508C235.794 144.508 237.305 146.301 237.305 148.513Z" fill="#EF8417"/>
<path d="M237.305 129.412C237.305 131.624 235.794 133.418 233.93 133.418C232.066 133.418 230.555 131.624 230.555 129.412C230.555 127.2 232.066 125.406 233.93 125.406C235.794 125.406 237.305 127.2 237.305 129.412Z" fill="#EF8417"/>
<path d="M297.869 83.324C297.869 83.324 299.119 96.0563 293.426 106.644C288.558 115.699 278.886 127.417 271.072 133.875L269.195 133.417C271.914 122.982 280.499 104.452 281.033 97.5039C281.567 90.5563 281.438 82.5068 281.566 78.6367" fill="#FFB288"/>
<path d="M273.695 52.8203C273.695 52.8203 284.175 53.5369 290.254 58.6735C298.933 66.0069 300.219 80.3603 300.219 83.6936C297.596 86.5282 291.861 86.6735 287.682 86.6735C285.137 86.6573 282.642 85.9672 280.45 84.6735L279.597 68.8402" fill="#D9F0FF"/>
<path d="M269.956 131.867C268.723 132.038 267.562 132.551 266.606 133.348C265.687 134.065 264.559 135.266 264.677 135.814C264.801 136.392 266.305 135.282 266.488 135.506C266.672 135.73 263.913 139.895 264.432 140.208C264.952 140.521 267.298 136.745 267.298 136.745C267.298 136.745 265.02 140.778 265.902 140.866C266.639 140.94 268.661 137.124 268.661 137.124C268.661 137.124 266.951 140.536 267.536 140.664C268.122 140.793 269.708 137.394 269.708 137.394C269.708 137.394 268.417 140.299 268.913 140.348C269.162 140.373 270.437 138.928 270.969 137.179C271.493 135.457 272.105 133.964 271.633 132.621" fill="#FFB288"/>
<path d="M280.891 70.5039V84.9288" stroke="#94C1F2" stroke-width="0.5" stroke-miterlimit="10"/>
<path d="M251.977 39.5127C251.922 40.1379 251.897 40.7648 251.901 41.3934C251.824 42.76 252.162 44.118 252.87 45.2893C253.416 46.0586 254.21 46.616 255.119 46.8673C255.756 47.0413 256.592 46.9671 256.866 46.3661C256.949 46.1466 256.984 45.9119 256.968 45.6779C256.959 43.3455 256.508 41.0359 255.64 38.8711" fill="#26387A"/>
<path d="M267.786 40.8247C266.888 37.3202 264.06 32.4124 259.459 33.3977C258.02 33.6553 256.673 34.2835 255.55 35.2204C254.428 36.1573 253.569 37.3706 253.059 38.7405C252.044 42.0314 253.69 45.8592 255.662 48.5452C256.36 49.5818 257.289 50.4429 258.375 51.0613C261.039 52.4385 264.634 51.3098 266.442 49.0159C267.275 47.8432 267.829 46.4956 268.062 45.0759C268.295 43.6563 268.201 42.2022 267.786 40.8247Z" fill="#FFB288"/>
<path d="M261.34 49.9874L262.844 55.4809L260.797 56.4468C261.365 57.097 262.092 57.589 262.906 57.8747C263.721 58.1604 264.596 58.23 265.445 58.0768C271.724 57.1713 273.697 52.8202 273.697 52.8202L270.154 52.4504L266.23 45.7617" fill="#FFB288"/>
<path d="M270.859 37.0015C270.588 35.8045 270.07 34.6773 269.339 33.6919C268.607 32.7065 267.678 31.8845 266.611 31.2786C262.895 29.0217 257.606 28.8406 254.298 31.9495C252.414 33.7197 249.024 39.9956 253.075 41.2406C254.34 41.6294 255.642 40.8598 256.742 40.1242C257.862 39.3755 258.982 38.6269 260.102 37.8783C260.48 37.5734 260.934 37.3778 261.415 37.3127C261.811 37.3428 262.188 37.4922 262.498 37.7412C262.807 37.9902 263.033 38.327 263.147 38.7073C263.361 39.4697 263.524 40.2453 263.636 41.0291C263.727 41.5877 264.028 42.0905 264.477 42.4346C264.591 42.5132 264.72 42.5681 264.856 42.596C264.991 42.6238 265.131 42.6241 265.267 42.5968C265.403 42.5694 265.532 42.5151 265.646 42.4369C265.76 42.3587 265.858 42.2583 265.932 42.1417C266.033 41.7655 266.048 41.3713 265.974 40.9888C265.967 40.5998 266.186 40.1236 266.574 40.1408C266.713 40.1553 266.844 40.2122 266.95 40.3037C267.928 41.0649 267.61 42.5906 267.935 43.7866C267.977 43.944 267.65 46.3644 267.759 46.4862C270.881 45.7624 271.175 38.7274 270.859 37.0015Z" fill="#26387A"/>
<path d="M266.235 40.4473C266.225 40.2232 266.303 40.004 266.452 39.8361C266.601 39.6682 266.809 39.5648 267.033 39.5477C267.257 39.5407 267.481 39.5782 267.691 39.6581C267.901 39.738 268.093 39.8587 268.257 40.0132C268.557 40.2506 268.803 40.549 268.979 40.8887C269.156 41.2284 269.258 41.6016 269.279 41.9837C269.264 42.5861 269.071 43.1705 268.723 43.6626C268.522 44.0213 268.205 44.3005 267.824 44.454C267.57 44.5154 267.305 44.5059 267.056 44.4267C266.807 44.3474 266.585 44.2015 266.414 44.0046" fill="#FFB288"/>
<path d="M154.876 228.707C154.876 228.707 161.619 229.832 161.805 231.313C161.912 232.162 152.353 233.173 151.704 232.673C150.666 231.874 151.939 228.88 151.939 228.88L154.876 228.707Z" fill="#26387A"/>
<path d="M154.346 224.57L154.898 228.833C154.824 229.076 154.68 229.293 154.485 229.457C154.289 229.621 154.051 229.724 153.797 229.754C153.489 229.798 153.175 229.77 152.879 229.674C152.583 229.577 152.313 229.414 152.09 229.196L151.297 223.875" fill="#FFB288"/>
<path d="M129.137 127.43C127.932 137.917 127.866 142.956 132.554 150.143C134.775 160.291 138.185 170.678 140.762 181.066C139.652 193.472 147.431 213.235 151.615 227.349L154.639 226.832C158.705 201.43 160.207 162.472 156.558 128.371" fill="#26387A"/>
<path d="M131.102 141.641C131.102 141.641 142.703 178.474 142.703 180.474C142.703 182.474 143.02 189.349 143.534 193.807C144.476 201.974 151.876 226.047 151.876 226.047" stroke="#0061A6" stroke-width="0.5" stroke-miterlimit="10"/>
<path d="M151.515 227.915L151.047 226.075L154.947 225.93L154.999 227.629L151.515 227.915Z" fill="#0061A6"/>
<path d="M102.434 228.915C102.434 228.915 107.711 232.727 107.243 234.069C106.975 234.838 98.3932 231.658 98.0512 230.957C97.5042 229.836 99.8565 227.82 99.8565 227.82L102.434 228.915Z" fill="#26387A"/>
<path d="M103.725 225.16L102.393 229.03C102.226 229.206 102.012 229.331 101.776 229.388C101.54 229.444 101.293 229.431 101.064 229.35C100.783 229.257 100.526 229.101 100.315 228.893C100.103 228.685 99.9419 228.432 99.8438 228.152L101.418 223.277" fill="#FFB288"/>
<path d="M106.473 125.246C103.258 135.301 103.855 140.556 107.06 148.514C107.255 158.04 107.351 167.679 107.46 177.319C100.674 194.306 99.5983 209.549 100.457 225.725L103.73 226.938C103.73 226.938 123.218 192.973 126.801 179.546C130.859 164.073 133.231 148.206 133.877 132.224" fill="#26387A"/>
<path d="M107.272 127.43C107.272 127.43 103.726 137.806 108.376 147.806C108.376 150.597 109.974 173.803 109.342 177.389C109.038 179.109 105.854 187.312 103.726 195.298C101.372 204.132 100.875 224.963 100.875 224.963" stroke="#0061A6" stroke-width="0.5" stroke-miterlimit="10"/>
<path d="M99.8438 225.72L100.362 223.535L104.551 225.482L103.725 227.354L99.8438 225.72Z" fill="#0061A6"/>
<path d="M160.977 47.59L158.352 45.3488V40.7064C158.352 39.986 157.375 35.6638 156.495 35.6638C155.614 35.6638 155.414 34.5832 154.974 35.0234C154.534 35.4637 155.334 40.3462 154.974 40.7064C154.614 41.0666 154.147 38.3871 153.814 38.7202C153.481 39.0534 153.453 41.0181 153.453 42.0228C153.602 43.3757 154.16 44.6508 155.054 45.6772C155.85 46.4735 159.376 50.2844 159.376 50.2844L160.977 47.59Z" fill="#EF9467"/>
<path d="M159.662 46.1016L157.467 48.5991C157.467 48.5991 166.137 60.0748 168.883 63.9169C166.014 62.718 163.273 61.2309 160.705 59.4782C156.627 56.8045 152.538 55.3864 149.71 55.3864C143.705 55.3864 146.848 75.1806 153.814 78.0778C167.028 80.0646 181.84 78.8074 184.109 74.1622C187.471 67.2786 168.101 51.0614 159.662 46.1016Z" fill="#D9F0FF"/>
<path d="M168.883 63.918C168.883 63.918 170.537 68.5349 173.476 70.0421" stroke="#94C1F2" stroke-width="0.5" stroke-miterlimit="10"/>
<path d="M119.374 60.6276C103.621 78.3203 103.86 108.739 103.86 129.415C103.86 129.415 115.424 137.31 133.084 137.31C150.812 137.31 158.107 132.957 158.107 132.957C158.638 112.009 154.902 102.974 158.358 68.3225C158.358 68.3225 152.721 55.3889 149.715 55.3889C146.71 55.3889 134.956 54.2305 134.956 54.2305L119.374 60.6276Z" fill="#D9F0FF"/>
<path d="M157.484 78.5447C157.484 78.5447 157.842 72.4929 159.312 71.0234" stroke="#94C1F2" stroke-width="0.5" stroke-miterlimit="10"/>
<path d="M140.161 40.9654C140.747 37.3955 143.29 32.2965 147.96 32.8731C150.892 33.2351 153.164 35.2608 154.805 37.6321C156.213 39.6659 155.681 41.6124 153.678 46.762C152.875 48.1411 151.83 49.3642 150.594 50.3729C148.062 51.9791 144.381 51.1709 142.378 49.045C141.423 47.9532 140.727 46.659 140.343 45.2596C139.958 43.8603 139.896 42.3921 140.161 40.9654Z" fill="#FFB288"/>
<path d="M140.78 40.5294C141.452 40.4284 140.784 39.9917 141.081 40.603C141.271 40.9946 141.327 41.1081 141.708 41.2356C142.081 41.3606 142.089 41.7022 142.401 41.9345C142.887 42.2966 143.299 41.8044 143.504 41.3874C143.831 40.582 143.928 39.7016 143.783 38.8445C143.713 38.1866 143.493 37.1454 144.138 36.688C144.665 36.3142 145.83 36.8568 146.373 37.0138C147.211 37.2562 148.04 37.5272 148.875 37.7812C150.873 38.5137 153.005 38.8088 155.127 38.6466C156.077 38.559 156.993 38.2483 157.8 37.7398C158.608 37.2313 159.284 36.5394 159.773 35.7204C160.835 33.6659 158.712 30.9808 156.549 30.9778C155.986 31.0354 155.43 31.1502 154.89 31.3205C154.687 31.3744 154.474 31.3775 154.27 31.3298C153.798 31.1902 153.589 30.66 153.323 30.2461C152.932 29.6805 152.385 29.2403 151.749 28.9786C151.113 28.717 150.415 28.6452 149.738 28.7718C148.206 29.1037 146.703 29.5588 145.243 30.1326C144.476 30.2426 143.699 30.2553 142.929 30.1704C142.498 30.1942 142.082 30.3306 141.721 30.5661C141.361 30.8016 141.068 31.1278 140.873 31.512C140.22 30.8279 138.761 32.5058 138.398 32.9476C136.801 34.8902 136.297 37.6895 136.253 40.1443C136.214 42.2924 136.573 45.417 138.927 46.2811C139.923 46.6466 140.55 46.8419 140.592 45.9285C140.229 44.7558 140.017 43.5412 139.964 42.3145C139.879 41.9259 139.918 41.5206 140.075 41.1551C140.231 40.7895 140.498 40.482 140.838 40.2754" fill="#26387A"/>
<path d="M148.453 49.4896L147.94 54.8845L149.713 55.3865C149.344 56.1668 148.778 56.838 148.072 57.3347C147.366 57.8314 146.543 58.1366 145.684 58.2205C139.396 59.0586 134.953 54.2281 134.953 54.2281L137.052 53.822L140.229 43.8047" fill="#FFB288"/>
<path d="M141.837 40.49C141.827 40.2659 141.73 40.0544 141.567 39.9002C141.404 39.7461 141.188 39.6614 140.963 39.6641C140.739 39.6769 140.519 39.7339 140.317 39.8319C140.115 39.93 139.934 40.0671 139.786 40.2353C138.027 41.986 140.237 46.2537 141.972 44.0492" fill="#FFB288"/>
<path d="M153.683 46.6675C153.402 47.3289 152.287 47.5926 151.675 47.6601C148.718 47.9867 146.264 46.075 143.432 45.7249C143.173 45.611 142.887 45.5725 142.607 45.6137C142.327 45.6549 142.064 45.7742 141.849 45.9579C141.633 46.1415 141.474 46.3822 141.389 46.6522C141.305 46.9222 141.298 47.2106 141.369 47.4844C141.345 48.1461 141.357 48.8087 141.404 49.4692C141.431 50.0429 141.587 50.6033 141.86 51.1085C143.139 53.2376 147.405 53.5967 149.569 53.4647C150.445 53.4627 151.302 53.206 152.036 52.7259C153.009 51.9914 153.22 50.7082 153.584 49.5792C153.847 48.6301 153.881 47.6323 153.683 46.6675Z" fill="#26387A"/>
<path d="M151.582 48.9918C151.491 48.9243 151.381 48.8848 151.268 48.8782C150.186 48.8007 149.109 48.6621 148.043 48.463C147.86 48.4379 147.674 48.4471 147.495 48.4901C147.312 48.5665 147.153 48.6898 147.033 48.8476C146.913 49.0054 146.837 49.192 146.813 49.3886C146.776 49.5648 146.803 49.7484 146.889 49.9066C146.975 50.0648 147.114 50.1872 147.282 50.2521C147.932 50.5501 148.638 50.7042 149.353 50.7039C150.02 50.8122 150.705 50.6897 151.293 50.3567C151.586 50.1171 152.016 49.3035 151.582 48.9918Z" fill="#FFB288"/>
<path d="M138.579 127.078C104.166 125.278 84.1314 143.038 69.9023 175.387C51.4361 217.367 25.6254 220.72 14 220.49" stroke="#B4E8FD" stroke-width="5" stroke-linecap="round" stroke-linejoin="round"/>
<path d="M125.376 129.88C126.642 145.063 138.897 153.267 148.718 152.447L164.827 151.104L160.765 102.414L144.657 103.758C134.836 104.577 124.109 114.698 125.376 129.88Z" fill="#FDAE2B"/>
<path d="M133.676 129.188C134.914 144.023 144.701 155.317 155.537 154.413L173.311 152.93L168.83 99.207L151.056 100.69C140.22 101.593 132.439 114.353 133.676 129.188Z" fill="#EF8417"/>
<path d="M172.039 153.036C182.876 152.132 190.657 139.373 189.419 124.537C188.182 109.702 178.394 98.4086 167.558 99.3125C156.722 100.216 148.941 112.976 150.178 127.811C151.416 142.646 161.203 153.94 172.039 153.036Z" fill="#FFC840"/>
<path d="M168.954 135.829C169.138 138.034 170.793 139.695 172.651 139.541C174.509 139.386 175.866 137.473 175.682 135.268C175.498 133.064 173.843 131.402 171.985 131.557C170.127 131.712 168.77 133.625 168.954 135.829Z" fill="#FDAE2B"/>
<path d="M167.368 116.794C167.552 118.999 169.207 120.66 171.065 120.505C172.923 120.35 174.28 118.438 174.096 116.233C173.912 114.028 172.257 112.367 170.399 112.522C168.541 112.677 167.184 114.59 167.368 116.794Z" fill="#FDAE2B"/>
<path d="M171.292 119.288C173.315 119.119 196.415 117.193 196.415 117.193C197.154 117.127 197.837 116.771 198.314 116.201C198.79 115.632 199.021 114.897 198.956 114.158C198.898 113.418 198.548 112.732 197.984 112.249C197.42 111.767 196.688 111.529 195.948 111.587C195.948 111.587 172.747 113.522 170.825 113.682C168.903 113.843 169.269 119.457 171.292 119.288Z" fill="#E2E8ED"/>
<path d="M172.878 138.327C174.901 138.158 198.001 136.232 198.001 136.232C198.74 136.166 199.423 135.81 199.9 135.241C200.376 134.672 200.607 133.937 200.542 133.197C200.484 132.457 200.134 131.771 199.57 131.289C199.006 130.806 198.273 130.568 197.534 130.626C197.534 130.626 174.333 132.561 172.41 132.721C170.488 132.882 170.855 138.496 172.878 138.327Z" fill="#E2E8ED"/>
<path d="M110.976 83.324C110.976 83.324 109.726 96.0563 115.419 106.644C120.287 115.699 129.959 127.417 137.773 133.875L139.649 133.417C136.931 122.982 128.346 104.452 127.812 97.5039C127.278 90.5563 127.407 82.5068 127.278 78.6367" fill="#FFB288"/>
<path d="M134.948 54.2305C134.948 54.2305 123.906 54.8667 117.556 59.6643C106.578 67.9584 108.732 90.2294 111.928 101.119C115.124 112.009 130.499 128.347 135.465 131.867C136.279 131.867 138.67 131.665 138.585 129.792C135.838 121.302 128.009 98.9686 128.009 98.9686L129.245 68.8409" fill="#D9F0FF"/>
<path d="M138.893 131.867C140.126 132.038 141.287 132.551 142.243 133.348C143.162 134.065 144.29 135.266 144.172 135.814C144.048 136.392 142.543 135.282 142.36 135.506C142.177 135.73 144.936 139.895 144.416 140.208C143.897 140.521 141.55 136.745 141.55 136.745C141.55 136.745 143.829 140.778 142.947 140.866C142.21 140.94 140.187 137.124 140.187 137.124C140.187 137.124 141.898 140.536 141.312 140.664C140.727 140.793 139.141 137.394 139.141 137.394C139.141 137.394 140.431 140.299 139.936 140.348C139.686 140.373 138.412 138.928 137.88 137.179C137.356 135.457 136.744 133.964 137.216 132.621" fill="#FFB288"/>
<path d="M131.11 107.84C129.35 102.773 128.016 98.9663 128.016 98.9663L130.335 73.6797" stroke="#94C1F2" stroke-width="0.5" stroke-miterlimit="10"/>
<path d="M109.41 79.8242C109.346 86.6822 110.172 95.1302 111.93 101.119C113.468 106.361 117.828 112.865 122.491 118.594" stroke="#94C1F2" stroke-width="0.5" stroke-miterlimit="10"/>
<path d="M345.562 42.579L347.337 41.3651C347.64 39.8147 348.067 38.2913 348.614 36.8094C349.243 35.6896 350.066 34.6904 351.044 33.8582C351.476 33.5663 353.453 32.4478 353.952 32.9469C354.197 33.1924 353.364 35.4285 352.981 35.8112C352.599 36.1939 351.473 37.9065 351.649 38.4429C351.825 38.9793 352.76 37.8058 352.981 37.5842C353.203 37.3625 353.501 37.088 353.605 37.3735C353.778 37.8509 352.78 40.5418 351.998 41.323C351.221 42.1444 350.189 42.6796 349.07 42.8418L346.314 45.2767" fill="#FFB288"/>
<path d="M366.946 29.8629C368.367 30.7969 369.583 32.0098 370.521 33.428C371.459 34.8463 372.099 36.4403 372.403 38.1133C372.467 38.7125 372.687 39.2844 373.042 39.7715C373.395 40.0928 373.809 40.3413 374.258 40.5027C375.465 41.0855 376.543 41.9044 377.428 42.911C378.313 43.9176 378.987 45.0914 379.411 46.3631C379.776 47.4418 379.491 48.9664 379.915 49.8865C380.436 51.0152 382.354 51.2713 383.385 51.6129C384.94 52.1281 386.295 53.1163 387.261 54.4394C388.227 55.7626 388.755 57.3545 388.772 58.9927C388.789 60.6308 388.294 62.2333 387.355 63.5761C386.417 64.9188 385.082 65.9347 383.538 66.4817C383.925 67.0786 384.175 67.7533 384.272 68.458C384.368 69.1627 384.309 69.88 384.097 70.5589C383.661 71.9149 382.926 73.1554 381.945 74.1879C379.957 76.3568 377.518 78.0624 374.799 79.1841C372.079 80.3058 369.147 80.8163 366.208 80.6793C364.515 80.6358 362.841 80.3008 361.261 79.6889C359.515 78.8978 357.891 77.8596 356.439 76.6063C354.544 75.2739 352.98 73.5232 351.869 71.4896C350.898 69.3959 350.963 66.6557 352.608 65.0367C351.645 65.1875 350.66 65.0543 349.772 64.6535C348.884 64.2527 348.132 63.6017 347.609 62.7801C347.104 61.9481 346.77 61.0238 346.627 60.0612C346.483 59.0987 346.533 58.1172 346.774 57.1742C347.267 55.2893 348.149 53.5286 349.365 52.0057C350.3 51.0062 350.963 49.784 351.292 48.4554C351.581 46.1984 350.321 44.1819 349.994 41.9374C349.484 38.4442 349.642 35.4422 352.634 33.5849C353.592 31.0971 354.754 29.1778 357.508 28.4454C359.095 28.03 360.75 27.9414 362.373 28.1851C363.995 28.4288 365.551 28.9996 366.946 29.8629Z" fill="#26387A"/>
<path d="M359.755 56.4032C349.78 53.7911 338.36 57.9162 335.817 57.9044C339.301 54.4198 345.698 46.6617 347.908 43.9807C347.963 43.5225 347.887 43.0581 347.689 42.6412C347.492 42.2243 347.18 41.8719 346.79 41.625C346.79 41.625 319.429 55.7733 322.179 65.0116C325.049 74.6564 351.855 69.9234 353.997 72.6925" fill="#B6E9FE"/>
<path d="M361.712 146.195C361.682 147.012 358.109 164.577 357.846 166.463C357.081 171.951 359.981 177.458 359.699 185.968C359.356 196.314 354.956 224.122 354.397 225.355C353.838 226.588 351.155 225.457 351.155 225.457C351.155 225.457 343.421 188.155 342.984 172.89C342.625 160.316 344.452 133.105 344.452 133.105" fill="#FFB288"/>
<path d="M354.668 225.832C354.883 226.263 355.028 226.726 355.096 227.203C355.039 228.362 355.002 229.153 355.002 229.153L354.498 229.186L354.324 228.241C353.362 228.447 352.447 228.83 351.624 229.37C350.965 229.804 347.649 229.765 347.138 229.495C347.041 229.451 346.956 229.385 346.889 229.302C346.822 229.218 346.777 229.121 346.756 229.016C346.734 228.912 346.738 228.804 346.767 228.701C346.796 228.599 346.849 228.505 346.922 228.427C347.113 228.204 350.7 226.638 350.7 226.638" fill="#26387A"/>
<path d="M351.153 225.46C350.863 226.162 348.029 227.705 348.29 227.913C349.547 228.145 350.845 228.01 352.026 227.521C353.691 226.967 354.634 226.347 354.687 225.91L354.369 224.738" fill="#FFB288"/>
<path d="M386.532 146.929C386.527 147.746 383.491 165.412 383.286 167.305C382.688 172.814 385.755 178.23 385.732 186.744C385.705 197.096 382.154 225.025 381.633 226.274C381.112 227.524 378.396 226.476 378.396 226.476C378.396 226.476 369.528 189.426 368.627 174.181C367.884 161.625 368.881 134.371 368.881 134.371" fill="#FFB288"/>
<path d="M381.923 226.742C382.151 227.166 382.31 227.625 382.393 228.099C382.371 229.26 382.358 230.051 382.358 230.051L381.856 230.1L381.653 229.16C380.698 229.396 379.795 229.807 378.989 230.371C378.343 230.825 375.028 230.887 374.509 230.633C374.41 230.592 374.323 230.529 374.254 230.447C374.185 230.366 374.136 230.27 374.111 230.166C374.087 230.062 374.088 229.954 374.114 229.851C374.139 229.748 374.189 229.652 374.26 229.572C374.444 229.344 377.981 227.669 377.981 227.669" fill="#26387A"/>
<path d="M378.399 226.472C378.13 227.182 375.344 228.811 375.612 229.011C376.875 229.205 378.168 229.03 379.334 228.506C380.982 227.901 381.905 227.252 381.945 226.814L381.591 225.652" fill="#FFB288"/>
<path d="M377.509 101.749C377.509 101.749 385.437 106.941 388.457 119.397C392.531 136.194 386.53 169.083 386.53 169.083C378.078 171.369 369.366 172.55 360.61 172.598C347.106 172.483 339.106 167.921 339.08 167.103C339.054 166.286 337.065 141.387 339.81 124.493C342.89 105.533 350.735 100.422 350.735 100.422" fill="#2858AD"/>
<path d="M366.764 56.0846C367.992 55.6277 371.18 56.7449 377.149 59.0322C379.772 61.8689 380.921 68.0857 381.486 73.5891C379.938 86.9831 378.209 94.2958 379.042 98.8162C379.24 99.8865 380.222 100.698 380.065 102.191C379.741 105.28 374.683 105.749 365.082 106.839C355.481 107.929 346.837 103.568 347.356 102.206C347.875 100.843 349.512 99.6503 349.772 98.7477C350.031 97.845 350.816 86.3706 349.778 85.008C348.74 83.6453 346.063 79.7275 346.062 75.9119C346.062 70.5404 349.02 68.13 350.955 65.1784C354.18 60.2591 356.63 57.1748 359.753 56.4033C364.75 55.1689 366.764 56.0846 366.764 56.0846Z" fill="#B6E9FE"/>
<path d="M350.61 62.875C350.786 64.3363 350.496 65.8157 349.783 67.103C349.421 67.6944 347.241 69.9156 346.812 71.331" stroke="#6CB1EF" stroke-width="0.5" stroke-miterlimit="10"/>
<path d="M364.471 49.5487C367.092 46.9457 367.506 42.0062 366.315 38.6681C364.973 34.9099 359.619 32.0946 355.932 34.4482C348.694 39.0688 356.038 57.9242 364.471 49.5487Z" fill="#FFB288"/>
<path d="M359.484 49.0901L359.62 57.1278C359.62 57.1278 359.319 58.9152 362.462 59.027C366.771 59.1803 366.771 56.0864 366.771 56.0864L364.279 47.8047" fill="#FFB288"/>
<path d="M362.736 30.8983C362.337 30.6129 361.862 30.454 361.372 30.4421C360.882 30.4303 360.399 30.5661 359.987 30.8319C359.494 31.2447 358.977 31.6281 358.438 31.9801C357.991 32.1277 357.532 32.2414 357.067 32.3202C355.994 32.6186 354.996 33.1435 354.142 33.8598C353.289 34.576 352.598 35.4668 352.118 36.4723C351.232 38.4742 351.515 41.7306 353.173 43.1603C353.12 41.387 353.541 39.6317 354.391 38.0747C354.565 37.7072 354.837 37.3942 355.176 37.1697C355.515 36.9451 355.909 36.8175 356.316 36.8005C357.222 36.9026 357.715 37.8728 358.369 38.5093C359.437 39.3407 360.74 39.815 362.092 39.8648C363.574 40.0857 364.716 40.3467 365.446 41.8005C365.74 42.4447 365.961 43.1196 366.106 43.8128C366.333 44.6219 366.485 45.4502 366.559 46.2873C366.546 46.8103 366.601 47.3327 366.724 47.8415C366.939 48.3177 367.26 48.7385 367.663 49.0719C368.066 49.4053 368.539 49.6425 369.047 49.7655C369.807 50.0215 371.086 50.2599 371.563 49.3986C371.985 48.6021 372.281 47.7452 372.442 46.8583C372.791 44.1141 372.131 41.3365 370.584 39.0428C368.986 36.4991 366.71 34.7949 364.657 32.6775C364.079 32.02 363.436 31.4238 362.736 30.8983Z" fill="#26387A"/>
<path d="M364.758 43.2703C364.819 42.9535 364.968 42.6603 365.187 42.4243C365.407 42.1883 365.689 42.0191 366.001 41.9361C368.048 41.6258 367.738 44.6816 366.947 45.756C366.486 46.3815 365.295 47.2002 364.758 45.4622" fill="#FFB288"/>
<path d="M386.472 105.855L385.509 107.914C385.509 107.914 381.876 108.778 381.491 109.418C380.882 110.43 379.969 111.827 379.969 112.623C379.969 113.418 380.045 116.907 381.041 116.907C381.666 116.907 383.129 114.061 383.431 113.663C384.143 112.723 387.017 112.041 387.017 109.565L388.776 105.855" fill="#FFB288"/>
<path d="M366.766 55.9787C366.766 55.9787 375.245 53.8206 381.87 58.0014C387.018 61.2506 400.267 77.4159 400.269 86.6735C400.27 92.9153 387.877 108.376 387.877 108.376L385.819 106.906C385.819 106.906 387.019 94.7554 390.62 88.0586C387.964 85.4022 377.606 77.1519 375.005 74.5506" fill="#B6E9FE"/>
<path d="M373.656 73.6953C375.508 75.3407 380.387 79.2672 380.387 79.2672" stroke="#6CB1EF" stroke-width="0.5" stroke-miterlimit="10"/>
<path d="M123.663 41.6639L113.419 33.4087C113.419 33.4087 118.025 16.3959 111.927 10.4544C108.58 7.37937 104.638 5.02231 100.345 3.52841C90.919 -0.0491908 79.6588 -0.860995 71.2582 4.7136C65.0608 8.8262 61.2944 15.8737 59.6077 23.1178C58.1228 29.4957 58.2469 36.7439 62.2346 41.9383C64.0968 44.2291 66.4331 46.0894 69.0829 47.3911C77.1886 51.6382 98.627 53.2409 107.929 47.0077C110.505 45.2817 110.279 42.9482 111.359 39.3018L123.663 41.6639Z" fill="#E7F5FE"/>
<path d="M71.3288 32.4719V31.0866H72.0931C72.3877 31.0866 72.6345 31.0289 72.8335 30.9134C73.0365 30.798 73.2037 30.6487 73.3351 30.4656C73.4704 30.2825 73.5819 30.0914 73.6694 29.8924L73.8605 29.4386L69.633 20.0761H71.2333L74.6009 27.6712L77.682 20.0761H79.2583L75.0308 30.3223C74.8636 30.7045 74.6726 31.0587 74.4576 31.3852C74.2466 31.7116 73.958 31.9743 73.5918 32.1733C73.2296 32.3724 72.738 32.4719 72.117 32.4719H71.3288ZM90.3241 20.0761V32.3047H88.8433V21.3897H82.6812V32.3047H81.2004V20.0761H90.3241ZM103.151 23.8975H101.671C101.583 23.4716 101.43 23.0974 101.211 22.775C100.996 22.4525 100.733 22.1818 100.423 21.9629C100.116 21.74 99.7757 21.5728 99.4015 21.4613C99.0273 21.3499 98.6372 21.2941 98.2312 21.2941C97.4908 21.2941 96.82 21.4812 96.219 21.8554C95.6219 22.2296 95.1462 22.7809 94.7919 23.5094C94.4416 24.2379 94.2664 25.1315 94.2664 26.1904C94.2664 27.2492 94.4416 28.1429 94.7919 28.8714C95.1462 29.5998 95.6219 30.1511 96.219 30.5253C96.82 30.8995 97.4908 31.0866 98.2312 31.0866C98.6372 31.0866 99.0273 31.0309 99.4015 30.9194C99.7757 30.808 100.116 30.6428 100.423 30.4238C100.733 30.2009 100.996 29.9282 101.211 29.6058C101.43 29.2794 101.583 28.9052 101.671 28.4832H103.151C103.04 29.1082 102.837 29.6675 102.542 30.1611C102.248 30.6547 101.881 31.0747 101.444 31.421C101.006 31.7633 100.514 32.024 99.9688 32.2032C99.4274 32.3823 98.8482 32.4719 98.2312 32.4719C97.1883 32.4719 96.2608 32.2171 95.4487 31.7076C94.6366 31.1981 93.9978 30.4736 93.532 29.5341C93.0663 28.5947 92.8334 27.4801 92.8334 26.1904C92.8334 24.9006 93.0663 23.786 93.532 22.8466C93.9978 21.9072 94.6366 21.1827 95.4487 20.6732C96.2608 20.1636 97.1883 19.9089 98.2312 19.9089C98.8482 19.9089 99.4274 19.9984 99.9688 20.1776C100.514 20.3567 101.006 20.6194 101.444 20.9657C101.881 21.3081 102.248 21.726 102.542 22.2196C102.837 22.7093 103.04 23.2686 103.151 23.8975ZM107.216 20.0761L107.097 28.8654H105.711L105.592 20.0761H107.216ZM106.404 32.4002C106.109 32.4002 105.857 32.2947 105.646 32.0838C105.435 31.8728 105.329 31.62 105.329 31.3254C105.329 31.0309 105.435 30.7781 105.646 30.5671C105.857 30.3561 106.109 30.2507 106.404 30.2507C106.699 30.2507 106.951 30.3561 107.162 30.5671C107.373 30.7781 107.479 31.0309 107.479 31.3254C107.479 31.5205 107.429 31.6996 107.33 31.8628C107.234 32.026 107.105 32.1574 106.941 32.2569C106.782 32.3525 106.603 32.4002 106.404 32.4002Z" fill="#94C1F2"/>
</svg>
