<svg width="332" height="247" viewBox="0 0 332 247" fill="none" xmlns="http://www.w3.org/2000/svg">
<g clip-path="url(#clip0_2783_49440)">
<path d="M124.238 41.5161C134.006 49.6906 144.896 42.8467 155.332 42.3238C160.172 42.0813 165.003 43.2483 169.773 44.1189C174.3 44.9452 178.811 46.147 182.95 48.1967C187.462 50.3524 191.3 53.6991 194.049 57.8757C194.595 58.7294 195.419 58.099 195.413 57.0785C195.347 46.2422 190.663 47.1197 185.771 47.9189C181.121 48.6787 177.168 44.0636 172.579 43.0704C167.777 42.104 162.924 41.4124 158.044 40.9987C152.753 40.4733 147.449 40.1169 142.131 39.9294C136.169 39.7191 130.205 39.7215 124.238 39.9366C123.225 39.9727 123.22 41.5523 124.238 41.5161L124.238 41.5161Z" fill="#3F3D56"/>
<path d="M91.291 128.691C91.4305 128.841 91.5064 129.039 91.5028 129.244C91.4992 129.448 91.4164 129.644 91.2717 129.788C91.127 129.933 90.9318 130.016 90.7272 130.019C90.5227 130.023 90.3246 129.947 90.1749 129.808C83.7207 124.274 77.2665 118.744 70.8123 113.218C70.8048 113.21 70.7959 113.202 70.7859 113.197C70.3377 112.861 69.9137 112.493 69.5172 112.097C63.5105 111.397 56.9088 109.08 50.6547 108.074C45.1322 108.896 39.6256 109.875 34.0874 110.602C29.2621 111.272 24.3975 111.621 19.5259 111.644C15.5618 111.623 16.7087 101.46 13.113 99.5854C9.37525 97.6375 1.87942 103.942 0.921281 100.003C0.447887 97.9874 0.139771 95.9361 0 93.8699V81.029C0.510653 75.4377 9.41209 77.1626 13.6395 73.2613C19.9831 67.4068 22.1371 53.6729 30.2548 53.5097C39.9289 53.3056 49.606 53.7295 59.2252 54.7785C67.0692 55.642 75.3186 56.4791 82.5731 59.8222C85.6843 61.2595 88.6166 69.5727 90.7593 72.2736C93.2046 75.4286 94.5886 79.2767 94.7129 83.2665C95.0972 91.7376 91.2436 99.4875 89.1326 107.485C87.3006 114.408 86.2687 122.8 91.291 128.691Z" fill="#F2F2F2"/>
<path d="M71.5475 114.029C78.091 119.638 84.6354 125.246 91.1807 130.853C91.3305 130.993 91.5286 131.069 91.7334 131.065C91.9381 131.062 92.1335 130.979 92.2782 130.834C92.423 130.689 92.506 130.494 92.5096 130.289C92.5131 130.084 92.4371 129.886 92.2975 129.736C87.2755 123.849 88.3074 115.457 90.1381 108.53C92.2518 100.532 96.1052 92.7847 95.7195 84.3157C95.5971 80.3248 94.2125 76.4755 91.7647 73.3212C89.552 70.6669 86.7494 68.5669 83.5806 67.1887C76.3265 63.8455 68.0787 63.0047 60.2311 62.1435C50.6131 61.0935 40.9371 60.669 31.2642 60.8728C23.144 61.0398 13.6452 61.1881 7.30189 67.0443C1.52501 72.3776 0.735976 80.7646 0.791685 88.1694C0.823956 92.4596 0.906258 96.8661 1.92605 101.053C2.88468 104.989 4.96355 108.822 8.7025 110.77C12.2988 112.643 16.5714 112.672 20.5318 112.691C25.4034 112.671 30.268 112.321 35.0926 111.646C44.7487 110.383 54.3126 108.343 64.0469 107.726C66.4289 107.575 68.8181 107.508 71.2048 107.558C72.2215 107.579 72.2213 106 71.2048 105.978C61.74 105.781 52.3725 107.406 43.0601 108.886C34.0528 110.318 24.845 111.668 15.7022 110.944C13.698 110.85 11.7273 110.394 9.88544 109.598C8.10661 108.752 6.60148 107.424 5.5421 105.763C3.16191 102.056 2.71094 97.4125 2.50533 93.0878C2.27078 89.345 2.30552 85.5902 2.60928 81.8523C2.96007 78.2282 3.80484 74.5521 5.73454 71.4232C10.1363 64.2863 19.036 61.3164 26.6316 62.5986C35.1849 64.0424 41.7276 70.8798 54.7795 63.196C58.8765 60.784 64.2453 64.1405 68.9465 64.8498C72.4598 65.3343 75.9252 66.1187 79.3047 67.1943C82.5564 68.1868 85.5861 69.7973 88.2277 71.9376C90.9926 74.276 92.9174 77.4542 93.7088 80.988C95.5216 89.1259 91.9284 97.2488 89.554 104.864C87.4374 111.653 85.6317 119.626 88.4816 126.475C89.1462 128.067 90.057 129.544 91.1807 130.853L92.2974 129.736C85.7539 124.127 79.2096 118.519 72.6643 112.912C71.8964 112.254 70.7742 113.366 71.5475 114.029H71.5475Z" fill="#E6E6E6"/>
<path d="M43.6611 77.2812H19.8549C19.6365 77.2812 19.4269 77.1944 19.2725 77.0399C19.118 76.8855 19.0312 76.676 19.0312 76.4575C19.0312 76.239 19.118 76.0295 19.2725 75.875C19.4269 75.7206 19.6365 75.6338 19.8549 75.6338H43.6611C43.8796 75.6338 44.089 75.7206 44.2435 75.875C44.398 76.0295 44.4848 76.239 44.4848 76.4575C44.4848 76.676 44.398 76.8855 44.2435 77.0399C44.089 77.1944 43.8796 77.2812 43.6611 77.2812Z" fill="white"/>
<path d="M43.6611 94.8466H19.8549C19.7467 94.8466 19.6396 94.8253 19.5397 94.7839C19.4398 94.7425 19.349 94.6819 19.2725 94.6054C19.196 94.5289 19.1353 94.4381 19.0939 94.3381C19.0525 94.2382 19.0312 94.1311 19.0312 94.0229C19.0312 93.9148 19.0525 93.8076 19.0939 93.7077C19.1353 93.6078 19.196 93.517 19.2725 93.4405C19.349 93.364 19.4398 93.3033 19.5397 93.2619C19.6396 93.2205 19.7467 93.1992 19.8549 93.1992H43.6611C43.8796 93.1992 44.0891 93.286 44.2435 93.4405C44.398 93.5949 44.4848 93.8045 44.4848 94.0229C44.4848 94.2414 44.398 94.4509 44.2435 94.6054C44.0891 94.7598 43.8796 94.8466 43.6611 94.8466Z" fill="white"/>
<path d="M62.9955 86.0693H19.8549C19.6365 86.0693 19.4269 85.9825 19.2725 85.828C19.118 85.6735 19.0312 85.464 19.0312 85.2456C19.0312 85.0271 19.118 84.8176 19.2725 84.6631C19.4269 84.5086 19.6365 84.4219 19.8549 84.4219H62.9955C63.214 84.4219 63.4235 84.5086 63.5779 84.6631C63.7324 84.8176 63.8192 85.0271 63.8192 85.2456C63.8192 85.464 63.7324 85.6735 63.5779 85.828C63.4235 85.9825 63.214 86.0693 62.9955 86.0693Z" fill="white"/>
<path d="M117.614 168.704C117.754 168.853 117.83 169.051 117.826 169.256C117.822 169.461 117.74 169.656 117.595 169.801C117.45 169.945 117.255 170.028 117.05 170.032C116.846 170.035 116.648 169.959 116.498 169.82C110.044 164.287 103.59 158.757 97.1355 153.23C97.1281 153.222 97.1192 153.215 97.1092 153.209C96.6609 152.873 96.237 152.505 95.8405 152.109C89.8337 151.409 83.2321 149.092 76.9779 148.087C71.4555 148.908 64.896 155.152 59.3577 155.879C54.5325 156.549 49.6679 156.898 44.7962 156.921C40.8321 156.9 41.979 144.104 38.3834 142.23C34.6456 140.282 28.2027 143.954 27.2445 140.016C26.7549 138.01 24.3376 135.951 24.1797 133.882V121.041C24.6903 115.45 28.3922 109.911 32.6195 106.01C38.9632 100.156 48.4603 100.003 56.5781 99.8398C66.2521 99.6357 75.9292 100.06 85.5484 101.109C93.3925 101.972 101.642 102.809 108.896 106.152C112.065 107.532 114.868 109.632 117.083 112.286C119.528 115.441 120.912 119.289 121.036 123.279C121.42 131.75 117.567 139.5 115.456 147.497C113.624 154.42 112.592 162.812 117.614 168.704Z" fill="#F2F2F2"/>
<path d="M97.8678 154.042C104.411 159.651 110.956 165.259 117.501 170.866C117.651 171.005 117.849 171.082 118.054 171.078C118.258 171.074 118.454 170.991 118.599 170.847C118.743 170.702 118.826 170.506 118.83 170.302C118.833 170.097 118.757 169.899 118.618 169.749C113.596 163.862 114.628 155.47 116.458 148.543C118.572 140.545 122.425 132.797 122.04 124.328C121.917 120.337 120.533 116.488 118.085 113.334C115.872 110.68 113.07 108.58 109.901 107.201C102.647 103.858 94.399 103.017 86.5514 102.156C76.9334 101.106 67.2575 100.682 57.5845 100.886C49.4643 101.053 39.9655 101.201 33.6222 107.057C27.8453 112.39 27.0563 120.777 27.112 128.182C27.1443 132.472 27.2266 136.879 28.2464 141.066C29.205 145.001 31.2839 148.835 35.0228 150.782C38.6191 152.655 42.8917 152.685 46.8521 152.704C51.7237 152.683 56.5883 152.334 61.4129 151.659C71.069 150.396 80.6329 148.355 90.3672 147.739C92.7492 147.588 95.1384 147.521 97.5251 147.571C98.5418 147.592 98.5416 146.012 97.5251 145.991C88.0603 145.793 78.6928 147.419 69.3804 148.899C60.3731 150.331 51.1653 151.681 42.0226 150.956C40.0183 150.862 38.0476 150.406 36.2058 149.61C34.4269 148.765 32.9218 147.436 31.8624 145.776C29.4822 142.069 29.0312 137.425 28.8256 133.101C28.5911 129.358 28.6258 125.603 28.9296 121.865C29.2804 118.241 30.1251 114.565 32.0549 111.436C36.4566 104.299 46.4919 98.4152 52.9519 102.611C60.3327 107.405 69.7724 107.613 81.0998 103.209C85.5309 101.486 90.5657 104.153 95.2668 104.863C98.7801 105.347 102.246 106.131 105.625 107.207C108.877 108.199 111.906 109.81 114.548 111.95C117.313 114.289 119.238 117.467 120.029 121.001C121.842 129.139 118.249 137.261 115.874 144.877C113.758 151.665 111.952 159.638 114.802 166.488C115.466 168.08 116.377 169.557 117.501 170.866L118.618 169.749C112.074 164.14 105.53 158.532 98.9846 152.925C98.2167 152.267 97.0945 153.379 97.8678 154.042H97.8678Z" fill="#E6E6E6"/>
<path d="M69.9892 117.294H46.183C45.9646 117.294 45.7551 117.207 45.6006 117.053C45.4461 116.898 45.3594 116.689 45.3594 116.47C45.3594 116.252 45.4461 116.042 45.6006 115.888C45.7551 115.733 45.9646 115.646 46.183 115.646H69.9892C70.2077 115.646 70.4172 115.733 70.5716 115.888C70.7261 116.042 70.8129 116.252 70.8129 116.47C70.8129 116.689 70.7261 116.898 70.5716 117.053C70.4172 117.207 70.2077 117.294 69.9892 117.294Z" fill="white"/>
<path d="M69.9892 134.859H46.183C45.9646 134.859 45.7551 134.773 45.6006 134.618C45.4461 134.464 45.3594 134.254 45.3594 134.036C45.3594 133.817 45.4461 133.608 45.6006 133.453C45.7551 133.299 45.9646 133.212 46.183 133.212H69.9892C70.2077 133.212 70.4172 133.299 70.5716 133.453C70.7261 133.608 70.8129 133.817 70.8129 134.036C70.8129 134.254 70.7261 134.464 70.5716 134.618C70.4172 134.773 70.2077 134.859 69.9892 134.859Z" fill="white"/>
<path d="M89.3236 126.082H46.183C45.9646 126.082 45.7551 125.995 45.6006 125.841C45.4461 125.686 45.3594 125.477 45.3594 125.258C45.3594 125.04 45.4461 124.83 45.6006 124.676C45.7551 124.521 45.9646 124.435 46.183 124.435H89.3236C89.5421 124.435 89.7516 124.521 89.906 124.676C90.0605 124.83 90.1473 125.04 90.1473 125.258C90.1473 125.477 90.0605 125.686 89.906 125.841C89.7516 125.995 89.5421 126.082 89.3236 126.082Z" fill="white"/>
<path d="M247.378 197.912H180.849C180.238 197.912 179.653 197.669 179.221 197.237C178.789 196.806 178.547 196.22 178.547 195.61C178.547 194.999 178.789 194.414 179.221 193.982C179.653 193.55 180.238 193.308 180.849 193.308H247.378C247.988 193.308 248.574 193.55 249.005 193.982C249.437 194.414 249.679 194.999 249.679 195.61C249.679 196.22 249.437 196.806 249.005 197.237C248.574 197.669 247.988 197.912 247.378 197.912Z" fill="#F2F2F2"/>
<path d="M247.378 247H180.849C180.238 247 179.653 246.758 179.221 246.326C178.789 245.894 178.547 245.309 178.547 244.698C178.547 244.088 178.789 243.502 179.221 243.071C179.653 242.639 180.238 242.396 180.849 242.396H247.378C247.988 242.396 248.574 242.639 249.005 243.071C249.437 243.502 249.679 244.088 249.679 244.698C249.679 245.309 249.437 245.894 249.005 246.326C248.574 246.758 247.988 247 247.378 247Z" fill="#F2F2F2"/>
<path d="M301.413 222.472H180.852C180.55 222.473 180.25 222.413 179.97 222.298C179.691 222.182 179.436 222.013 179.222 221.799C179.008 221.585 178.838 221.331 178.722 221.052C178.607 220.772 178.547 220.473 178.547 220.17C178.547 219.868 178.607 219.568 178.722 219.288C178.838 219.009 179.008 218.755 179.222 218.541C179.436 218.327 179.691 218.158 179.97 218.042C180.25 217.927 180.55 217.868 180.852 217.868H301.413C302.023 217.869 302.607 218.112 303.038 218.544C303.469 218.975 303.711 219.56 303.711 220.17C303.711 220.78 303.469 221.365 303.038 221.797C302.607 222.228 302.023 222.471 301.413 222.472Z" fill="#F2F2F2"/>
<path d="M143.297 219.887L147.077 223.445L162.902 210.234L157.323 204.983L143.297 219.887Z" fill="#FFB6B6"/>
<path d="M150.18 235.27L148.079 225.476L150.625 222.771L149.255 221.625L145 218.079L143.959 217.207L134.172 226.01L137.009 228.677L140.033 226.477L138.806 230.372L146.32 237.446C146.68 237.785 147.139 238 147.631 238.059C148.122 238.119 148.619 238.02 149.05 237.777C149.481 237.534 149.823 237.16 150.026 236.709C150.229 236.258 150.283 235.754 150.18 235.27V235.27Z" fill="#2F2E41"/>
<path d="M124.875 233.644L130.006 234.424L135.523 214.56L127.95 213.409L124.875 233.644Z" fill="#FFB6B6"/>
<path d="M139.277 242.392L131.985 235.526L132.543 231.853L130.764 231.689L125.248 231.188L123.896 231.062L120.844 243.868L124.694 244.451L125.932 240.922L127.135 244.824L137.337 246.375C137.826 246.45 138.326 246.366 138.764 246.136C139.202 245.906 139.555 245.542 139.772 245.097C139.989 244.652 140.057 244.15 139.968 243.663C139.879 243.177 139.637 242.731 139.277 242.392L139.277 242.392Z" fill="#2F2E41"/>
<path d="M174.238 92.5371L188.953 118.895C188.953 118.895 188.339 173.104 190.295 175.115C192.251 177.125 194.021 178.929 192.251 178.913C190.48 178.896 191.051 191.72 191.051 191.72L158.412 216.991L150.515 210.674L170.326 186.219L159.385 136.163C159.385 136.163 151.525 183.5 150.108 184.917C148.692 186.334 147.837 186.324 149.327 187.745C150.817 189.167 149.327 192.382 149.327 192.382L133.798 224.614L125.375 223.552C125.375 223.552 126.835 197.239 131.92 185.942V132.56C131.537 137.137 149.453 90.812 138.497 94.289C141.963 93.189 174.238 92.5371 174.238 92.5371Z" fill="#2F2E41"/>
<path d="M167.491 29.7227H155.326L153.603 36.6126L144.25 39.1993C144.25 39.1993 139.623 69.8828 143.509 72.3577C147.394 74.8327 144.685 82.5745 144.685 82.5745C144.685 82.5745 135.008 93.0259 136.17 94.5743C137.331 96.1227 139.687 93.7667 136.96 96.493C134.234 99.2194 132.686 98.8323 133.46 99.6065C133.939 100.098 134.31 100.683 134.55 101.326L131.211 110.019C131.211 110.019 148.943 113.542 157.845 108.51C166.748 103.477 186.488 113.155 186.488 113.155C186.488 113.155 185.473 108.074 184.626 107.324C183.779 106.574 181.804 108.47 183.178 105.974C184.553 103.477 185.714 104.639 184.553 103.477C183.391 102.316 178.36 86.8325 178.36 86.8325C178.36 86.8325 174.489 78.3165 178.747 74.8327C183.004 71.3488 184.626 59.922 184.626 59.922L179.522 39.1993L171.005 37.2848L167.491 29.7227Z" fill="#E6E6E6"/>
<path d="M119.329 108.835L122.251 97.1233L115.794 94.5205L113.145 107.013C112.541 107.46 112.073 108.067 111.795 108.766C111.517 109.464 111.439 110.226 111.57 110.966C111.701 111.706 112.036 112.395 112.537 112.956C113.038 113.516 113.685 113.925 114.406 114.138C115.128 114.35 115.894 114.357 116.618 114.158C117.343 113.959 117.998 113.562 118.51 113.011C119.021 112.46 119.369 111.778 119.513 111.04C119.658 110.302 119.594 109.539 119.329 108.835V108.835Z" fill="#FFB6B6"/>
<path d="M147.713 38.4165L147.52 38.3833C145.728 38.0753 143.887 38.2089 142.157 38.7725C140.428 39.3362 138.862 40.3129 137.595 41.6182C134.287 45.0213 119.522 70.3298 120.054 74.5596C120.549 78.5041 120.74 77.6267 118.937 79.6407C117.133 81.6547 116.446 78.5876 116.419 82.7808C116.391 86.9739 117.993 86.9374 116.29 87.9627C114.587 88.988 113.461 88.2738 113.772 91.1028C114.083 93.9318 113.607 94.6825 113.507 95.6713C113.406 96.6601 110.961 103.005 110.961 103.005C110.961 103.005 118.156 104.937 121.058 107.83C121.058 107.83 121.388 100.671 122.853 100.021C124.318 99.3709 125.682 99.7097 125.27 97.8695C124.858 96.0292 122.744 95.2142 125.334 95.2785C127.925 95.3428 131.927 81.5643 131.927 81.5643L149.23 49.9917L147.713 38.4165Z" fill="#E6E6E6"/>
<path d="M186.765 114.637L187.285 102.577L194.215 101.913L193.212 114.644C193.665 115.244 193.941 115.959 194.01 116.707C194.078 117.456 193.937 118.209 193.602 118.882C193.266 119.554 192.749 120.12 192.11 120.515C191.47 120.91 190.733 121.119 189.982 121.118C189.23 121.117 188.493 120.907 187.855 120.511C187.216 120.114 186.701 119.547 186.367 118.874C186.032 118.201 185.893 117.447 185.963 116.699C186.033 115.951 186.311 115.237 186.765 114.637Z" fill="#FFB6B6"/>
<path d="M179.519 39.0596L179.714 39.0824C181.52 39.2956 183.247 39.9458 184.746 40.9769C186.244 42.008 187.469 43.3888 188.314 44.9998C190.52 49.2014 197.501 77.6587 195.792 81.564C194.198 85.206 194.264 84.3105 195.422 86.7534C196.58 89.1964 198.108 86.4499 196.946 90.4787C195.783 94.5075 194.257 94.0181 195.6 95.4843C196.942 96.9505 198.224 96.585 197.123 99.2096C196.023 101.834 196.266 102.689 196.083 103.666C195.899 104.643 196.444 111.42 196.444 111.42C196.444 111.42 188.996 111.232 185.393 113.183C185.393 113.183 187.107 106.224 185.886 105.186C184.666 104.147 183.262 104.085 184.179 102.437C185.095 100.789 187.354 100.607 184.852 99.9342C182.349 99.2609 182.42 84.9132 182.42 84.9132L174.781 49.7291L179.519 39.0596Z" fill="#E6E6E6"/>
<path d="M133.762 21.5935C133.666 25.7463 135.217 29.7674 137.447 33.2993C138.192 31.2485 139.234 29.3186 140.542 27.572C139.916 31.4418 140.583 35.4102 142.439 38.8629C142.505 38.9097 142.572 38.9531 142.642 38.9931C144.459 40.0863 146.763 40.5291 148.729 39.7395C144.667 35.361 144.151 28.1065 147.556 23.1953C148.52 21.8018 149.767 20.5693 150.364 18.9833C151.307 16.453 150.4 13.6669 149.829 11.0287C149.294 8.57335 149.2 5.65143 150.848 3.85195C150.672 3.60048 150.432 3.40031 150.153 3.27194C149.875 3.14358 149.567 3.09166 149.261 3.12147C148.246 3.26494 147.506 4.14773 147.036 5.05696C146.565 5.96616 146.254 6.97388 145.598 7.75918C144.383 9.22908 142.314 9.5766 140.57 10.3513C136.347 12.2325 133.863 16.9726 133.762 21.5935Z" fill="#2F2E41"/>
<path d="M169.313 19.2192C169.071 18.3745 170.735 23.5381 169.932 23.6313C166.276 24.0507 161.258 26.2342 158.712 27.2529C158.597 27.2396 158.482 27.2263 158.371 27.2096C158.098 27.1797 157.831 27.1364 157.568 27.0865C151.639 25.9646 149.359 16.8565 149.359 16.7733C149.359 16.3638 150.342 5.11778 151.89 4.95133C152.297 4.90721 152.705 4.88499 153.114 4.88475H156.956C157.75 4.71345 158.556 4.59667 159.367 4.53521H159.374C167.107 3.94599 173.204 8.65976 172.634 14.3956C172.631 14.4022 172.624 14.4089 172.621 14.4155C172.456 14.6619 172.311 14.8949 172.182 15.1179C172.058 15.3277 171.953 15.5274 171.862 15.7171C171.157 17.1819 172.969 19.025 171.768 19.369C170.17 19.8266 175.97 34.8652 169.646 34.8652C172.722 35.74 169.978 21.5495 169.313 19.2192Z" fill="#2F2E41"/>
<path d="M162.407 28.0433C167.43 28.0433 171.502 23.9712 171.502 18.9479C171.502 13.9247 167.43 9.85254 162.407 9.85254C157.384 9.85254 153.312 13.9247 153.312 18.9479C153.312 23.9712 157.384 28.0433 162.407 28.0433Z" fill="#FFB6B6"/>
<path d="M172.634 14.8919C172.482 14.9718 172.333 15.045 172.182 15.1183C172.023 15.1948 171.865 15.2714 171.706 15.3413C168.661 16.7228 166.182 16.8759 164.678 14.8919C164.637 13.8479 164.403 12.8206 163.986 11.8625C164.06 12.9332 163.778 13.9982 163.184 14.8919H160.155C157.036 16.9625 155.434 17.1789 157.599 23.9766C158.203 25.8708 160.603 36.8929 159.659 38.5274C159.385 38.4975 156.479 26.4248 156.216 26.3749C150.287 25.253 146.52 15.4844 147.002 14.9318C147 13.3604 147.361 11.8097 148.058 10.4011C148.939 8.61659 150.313 7.12178 152.017 6.09349C153.033 5.60095 154.092 5.20312 155.181 4.90506C155.208 4.89839 155.231 4.89172 155.258 4.88508C155.592 4.79519 155.933 4.71197 156.273 4.64206C156.977 4.49346 157.689 4.38565 158.405 4.31916C158.455 4.31583 158.506 4.3125 158.553 4.3125C158.839 4.31317 159.12 4.39016 159.366 4.53554C159.369 4.53554 159.369 4.53886 159.373 4.53886C159.549 4.64169 159.702 4.77864 159.825 4.94167C160.04 5.21597 160.157 5.55497 160.155 5.90374H163.528C163.652 5.90374 163.777 5.90706 163.902 5.91371C166.153 5.99064 168.294 6.90481 169.907 8.47731C171.519 10.0498 172.487 12.1675 172.62 14.4159C172.63 14.5756 172.634 14.7321 172.634 14.8919Z" fill="#2F2E41"/>
<path d="M152.749 11.9842C156.059 11.9842 158.741 9.30146 158.741 5.99211C158.741 2.68276 156.059 0 152.749 0C149.44 0 146.758 2.68276 146.758 5.99211C146.758 9.30146 149.44 11.9842 152.749 11.9842Z" fill="#2F2E41"/>
<path d="M209.683 186.53C209.927 186.541 210.169 186.477 210.376 186.346C210.583 186.215 210.745 186.023 210.84 185.797C210.934 185.571 210.957 185.321 210.905 185.082C210.853 184.843 210.728 184.625 210.548 184.459L210.467 184.133C210.477 184.107 210.488 184.081 210.499 184.055C210.746 183.473 211.159 182.976 211.686 182.628C212.214 182.28 212.833 182.095 213.465 182.098C214.098 182.1 214.715 182.289 215.24 182.641C215.765 182.994 216.175 183.493 216.417 184.077C217.385 186.409 218.617 188.744 218.921 191.209C219.054 192.299 218.998 193.403 218.754 194.473C221.027 189.514 222.208 184.124 222.216 178.668C222.216 177.299 222.14 175.931 221.988 174.57C221.862 173.455 221.687 172.348 221.464 171.248C220.246 165.282 217.629 159.691 213.831 154.933C211.992 153.929 210.505 152.386 209.57 150.512C209.231 149.838 208.992 149.119 208.859 148.376C209.067 148.404 209.641 145.245 209.485 145.051C209.774 144.612 210.291 144.394 210.607 143.966C212.177 141.837 214.34 142.209 215.469 145.102C217.882 146.319 217.905 148.339 216.425 150.281C215.483 151.516 215.354 153.188 214.528 154.511C214.613 154.62 214.701 154.725 214.786 154.834C216.34 156.832 217.694 158.978 218.83 161.241C218.554 158.706 218.883 156.142 219.791 153.759C220.711 151.539 222.437 149.669 223.956 147.75C224.357 147.234 224.903 146.849 225.523 146.644C226.144 146.438 226.811 146.421 227.442 146.595C228.072 146.768 228.636 147.125 229.064 147.62C229.491 148.114 229.763 148.724 229.843 149.373C229.846 149.401 229.85 149.43 229.852 149.458C229.627 149.585 229.406 149.72 229.19 149.863C228.918 150.045 228.708 150.304 228.586 150.607C228.465 150.91 228.437 151.242 228.508 151.561C228.579 151.88 228.744 152.17 228.982 152.393C229.22 152.617 229.521 152.763 229.843 152.812L229.876 152.818C229.796 153.631 229.654 154.437 229.451 155.228C231.4 162.765 227.193 165.511 221.185 165.634C221.053 165.702 220.923 165.77 220.791 165.835C221.932 169.067 222.647 172.435 222.919 175.852C223.074 177.869 223.064 179.894 222.892 181.909L222.902 181.837C223.338 179.597 224.533 177.575 226.286 176.114C228.889 173.975 232.568 173.188 235.376 171.468C235.675 171.277 236.022 171.174 236.377 171.174C236.732 171.173 237.079 171.273 237.379 171.463C237.678 171.654 237.917 171.926 238.067 172.247C238.217 172.569 238.272 172.926 238.225 173.278L238.214 173.353C237.795 173.524 237.387 173.72 236.993 173.941C236.767 174.069 236.546 174.204 236.33 174.347C236.059 174.528 235.849 174.787 235.727 175.09C235.605 175.393 235.578 175.726 235.648 176.045C235.719 176.364 235.884 176.654 236.123 176.877C236.361 177.1 236.661 177.246 236.984 177.296L237.017 177.301C237.041 177.304 237.061 177.308 237.085 177.311C236.369 179.02 235.365 180.592 234.116 181.96C232.898 188.539 227.664 189.163 222.066 187.247H222.062C221.448 189.917 220.558 192.515 219.407 195H209.92C209.886 194.895 209.856 194.786 209.825 194.681C210.703 194.736 211.585 194.684 212.45 194.524C211.746 193.661 211.042 192.79 210.338 191.926C210.323 191.91 210.308 191.893 210.294 191.875C209.937 191.433 209.577 190.995 209.22 190.553L209.22 190.552C209.201 189.197 209.356 187.845 209.682 186.53L209.683 186.53Z" fill="#F2F2F2"/>
<path d="M71.0547 246.284C71.0544 246.366 71.0705 246.448 71.1019 246.524C71.1333 246.6 71.1794 246.669 71.2376 246.727C71.2959 246.786 71.365 246.832 71.4412 246.863C71.5173 246.894 71.5989 246.911 71.6812 246.91H331.372C331.538 246.91 331.697 246.844 331.815 246.727C331.932 246.609 331.998 246.45 331.998 246.284C331.998 246.118 331.932 245.958 331.815 245.841C331.697 245.723 331.538 245.657 331.372 245.657H71.6812C71.5989 245.657 71.5173 245.673 71.4412 245.704C71.365 245.736 71.2959 245.782 71.2376 245.84C71.1794 245.898 71.1333 245.968 71.1019 246.044C71.0705 246.12 71.0544 246.201 71.0547 246.284Z" fill="#CCCCCC"/>
<path d="M188.651 111.846C189.384 112.619 188.274 113.623 187.419 112.961C180.294 107.436 173.168 101.915 166.043 96.3974C166.035 96.3887 166.025 96.3816 166.014 96.3764C165.522 96.0429 165.054 95.6758 164.613 95.2778C157.982 94.5787 150.694 92.2659 143.789 91.2619C137.693 92.0819 131.613 93.0596 125.499 93.785C120.167 94.455 114.798 94.8026 109.424 94.8257C105.047 94.8047 100.334 94.7785 96.3642 92.9072C92.2378 90.9623 89.9421 87.1356 88.8843 83.2037C88.3627 81.197 88.0223 79.1475 87.8672 77.08V64.2595C88.4309 58.6771 90.1513 53.1473 94.8182 49.2523C101.822 43.4071 112.306 43.2547 121.268 43.0917C131.945 42.8878 142.624 43.3108 153.251 44.3585C161.911 45.2206 171.018 46.0564 179.027 49.3942C182.462 50.8292 185.699 52.8215 188.064 55.518C190.726 58.5729 192.266 62.4447 192.429 66.4935C192.853 74.9511 188.599 82.6886 186.268 90.6732C184.246 97.5854 183.107 105.964 188.651 111.846Z" fill="#5A75FF"/>
<path d="M135.794 57.2744H111.988C111.88 57.2744 111.772 57.2531 111.673 57.2117C111.573 57.1703 111.482 57.1096 111.405 57.0331C111.329 56.9566 111.268 56.8658 111.227 56.7659C111.185 56.6659 111.164 56.5588 111.164 56.4507C111.164 56.3425 111.185 56.2354 111.227 56.1354C111.268 56.0355 111.329 55.9447 111.405 55.8682C111.482 55.7917 111.573 55.731 111.673 55.6896C111.772 55.6483 111.88 55.627 111.988 55.627H135.794C136.012 55.627 136.222 55.7137 136.376 55.8682C136.531 56.0227 136.618 56.2322 136.618 56.4507C136.618 56.6691 136.531 56.8786 136.376 57.0331C136.222 57.1876 136.012 57.2744 135.794 57.2744Z" fill="white"/>
<path d="M135.794 74.8398H111.988C111.769 74.8398 111.56 74.753 111.405 74.5985C111.251 74.4441 111.164 74.2345 111.164 74.0161C111.164 73.7976 111.251 73.5881 111.405 73.4336C111.56 73.2792 111.769 73.1924 111.988 73.1924H135.794C136.012 73.1924 136.222 73.2792 136.376 73.4336C136.531 73.5881 136.618 73.7976 136.618 74.0161C136.618 74.2345 136.531 74.4441 136.376 74.5985C136.222 74.753 136.012 74.8398 135.794 74.8398Z" fill="white"/>
<path d="M155.128 66.0634H111.988C111.769 66.0634 111.56 65.9766 111.405 65.8222C111.251 65.6677 111.164 65.4582 111.164 65.2397C111.164 65.0213 111.251 64.8117 111.405 64.6573C111.56 64.5028 111.769 64.416 111.988 64.416H155.128C155.347 64.416 155.556 64.5028 155.711 64.6573C155.865 64.8117 155.952 65.0213 155.952 65.2397C155.952 65.4582 155.865 65.6677 155.711 65.8222C155.556 65.9766 155.347 66.0634 155.128 66.0634Z" fill="white"/>
<path d="M194.052 57.8754C196.259 61.3965 197.507 65.4492 197.125 69.6265C196.795 73.231 195.316 76.6208 193.7 79.8153C192.025 83.1258 190.15 86.3404 188.78 89.7969C187.276 93.5643 186.721 97.6434 187.162 101.676C187.433 104.294 187.961 106.877 188.458 109.458L189.978 117.34L191.297 116.572L169.462 97.6931C168.696 97.0313 167.574 98.1437 168.345 98.8099L190.181 117.689C190.306 117.806 190.465 117.88 190.636 117.9C190.806 117.919 190.979 117.883 191.127 117.796C191.275 117.71 191.392 117.578 191.459 117.42C191.526 117.262 191.541 117.087 191.5 116.92C190.608 112.29 189.554 107.656 188.9 102.985C188.524 100.629 188.471 98.233 188.743 95.863C189.01 94.0565 189.485 92.2868 190.158 90.5891C192.777 83.7451 197.682 77.7582 198.628 70.3173C199.22 65.6552 197.887 61.0225 195.416 57.0783C194.877 56.219 193.51 57.0108 194.052 57.8754V57.8754Z" fill="#3F3D56"/>
<path d="M170.837 90.7832L138.543 94.6039L122.397 96.5142C117.478 97.0962 112.351 97.9133 107.436 96.8836C99.1609 95.1499 94.0229 87.6511 92.4065 79.7485C91.4059 74.8566 91.7601 69.7383 92.6019 64.8512C93.0507 62.2457 93.643 59.6674 94.283 57.103C94.8533 54.8176 95.2788 52.3567 96.2643 50.2054C97.0508 48.4562 98.221 46.9065 99.6882 45.6714C101.155 44.4363 102.882 43.5474 104.739 43.0708C105.9 42.833 107.075 42.6773 108.258 42.6047C109.586 42.4714 110.915 42.3487 112.245 42.2366C114.905 42.0125 117.568 41.8309 120.235 41.6921C121.568 41.6226 122.901 41.5638 124.235 41.5156C125.249 41.4786 125.254 39.8989 124.235 39.9362C118.684 40.1394 113.144 40.5242 107.615 41.0906C105.362 41.3227 103.28 41.6581 101.246 42.7133C99.4891 43.6324 97.9459 44.9123 96.7177 46.4691C95.4592 48.0753 94.5359 49.9178 94.0028 51.8875C93.276 54.5047 92.6164 57.1478 92.0147 59.7963C90.8017 65.1351 89.9298 70.6378 90.3348 76.1264C90.9339 84.2442 94.8201 92.9052 102.362 96.77C106.816 99.0522 111.898 99.1544 116.778 98.7187C122.221 98.2327 127.648 97.4724 133.074 96.8304L166.67 92.8557L170.836 92.3627C171.834 92.2447 171.845 90.6638 170.836 90.7832H170.837Z" fill="#3F3D56"/>
</g>
<defs>
<clipPath id="clip0_2783_49440">
<rect width="332" height="247" fill="white"/>
</clipPath>
</defs>
</svg>
