<svg width="250" height="277" viewBox="0 0 250 277" fill="none" xmlns="http://www.w3.org/2000/svg">
<g clip-path="url(#clip0_2685_50237)">
<path d="M64.8963 232.12C64.5357 231.511 62.9758 232.164 62.6891 231.61C62.4033 231.059 63.8526 230.22 64.6806 228.301C64.83 227.955 65.7709 225.775 65.0744 225.103C63.754 223.827 57.7118 229.089 55.5973 227.367C55.1333 226.99 54.8091 226.235 53.4046 225.01C52.8459 224.523 52.508 224.303 52.181 224.385C51.7171 224.501 51.6803 225.123 51.1828 226.347C50.4367 228.183 49.9955 228.072 49.5608 229.536C49.238 230.623 49.3118 231.255 48.932 231.378C48.3947 231.553 47.9001 230.4 47.219 230.503C46.5241 230.608 46.104 231.951 45.9713 232.956C45.7222 234.842 46.4133 236.087 46.7963 237.396C47.2125 238.818 47.4596 240.981 46.4983 244.043L36.9844 270.914C39.0848 265.4 45.1664 250.285 47.7219 244.669C48.4596 243.047 49.2742 241.403 50.9467 240.753C52.557 240.128 54.7684 240.502 57.5878 239.821C57.9171 239.741 58.8308 239.508 58.9458 238.969C59.0409 238.524 58.5034 238.275 58.586 237.858C58.6968 237.299 59.7537 237.292 61.0525 236.646C61.9683 236.191 62.5389 235.65 63.0295 235.184C63.1775 235.044 65.3764 232.932 64.8963 232.12H64.8963L64.8963 232.12H64.8963Z" fill="#F2F2F2"/>
<path d="M27.4645 246.267C27.0621 246.269 26.9315 247.224 26.578 247.206C26.2256 247.187 26.2327 246.232 25.5323 245.271C25.4061 245.098 24.6102 244.006 24.0798 244.154C23.0746 244.436 23.9075 248.927 22.4543 249.471C22.1354 249.59 21.6725 249.532 20.6676 249.869C20.2678 250.004 20.0626 250.106 20.0083 250.291C19.9313 250.553 20.2255 250.75 20.6811 251.348C21.3645 252.245 21.1829 252.43 21.7745 253.066C22.2136 253.539 22.5443 253.685 22.4951 253.907C22.4253 254.222 21.7181 254.133 21.5721 254.497C21.4232 254.87 21.9593 255.464 22.4132 255.819C23.2649 256.486 24.0737 256.505 24.825 256.694C25.6415 256.9 26.7718 257.402 27.9938 258.759L38.4051 271.193C36.3114 268.568 30.6657 261.215 28.653 258.337C28.072 257.506 27.5017 256.631 27.6665 255.621C27.8252 254.648 28.6459 253.668 29.126 252.085C29.1821 251.9 29.3317 251.383 29.1011 251.171C28.9104 250.995 28.6336 251.188 28.4532 251.027C28.2112 250.811 28.5128 250.289 28.5715 249.464C28.6128 248.882 28.5124 248.445 28.426 248.069C28.4 247.956 28.0003 246.265 27.4645 246.267V246.267L27.4645 246.267Z" fill="#F2F2F2"/>
<path d="M35.4925 248.073L35.25 245.903L35.3608 245.739C35.8734 244.978 36.1347 244.236 36.1378 243.53C36.1384 243.418 36.1331 243.306 36.1279 243.192C36.107 242.739 36.0809 242.177 36.3735 241.521C36.5376 241.155 36.9985 240.309 37.6914 240.414C37.878 240.44 38.0191 240.526 38.1262 240.626C38.1419 240.601 38.1581 240.576 38.1753 240.549C38.3911 240.219 38.562 240.077 38.7266 239.941C38.8531 239.836 38.9837 239.728 39.1886 239.473C39.2785 239.361 39.3485 239.262 39.4075 239.18C39.5868 238.929 39.8209 238.631 40.2337 238.636C40.6748 238.657 40.9057 239.022 41.0589 239.264C41.3322 239.696 41.456 240.007 41.538 240.214C41.5678 240.289 41.6018 240.374 41.619 240.4C41.7612 240.61 42.9166 240.414 43.3519 240.342C44.3296 240.179 45.1756 240.038 45.5242 240.656C45.774 241.098 45.5885 241.682 44.9562 242.44C44.7591 242.676 44.5496 242.855 44.3636 242.995C44.5177 243.087 44.6557 243.229 44.7116 243.451C44.8433 243.977 44.3923 244.504 43.3717 245.019C43.1183 245.148 42.7771 245.32 42.2989 245.403C42.0737 245.441 41.8709 245.451 41.6974 245.456C41.6938 245.557 41.6703 245.666 41.6091 245.778C41.4299 246.108 41.0568 246.265 40.4945 246.227C39.8758 246.195 39.3663 246.076 38.9169 245.973C38.5244 245.883 38.1863 245.806 37.9209 245.824C37.4286 245.864 37.0492 246.259 36.604 246.771L35.4925 248.073H35.4925L35.4925 248.073Z" fill="#F2F2F2"/>
<path d="M36.6195 235.155L34.5873 235.94L34.4005 235.875C33.5365 235.57 32.7535 235.506 32.0723 235.681C31.964 235.709 31.8572 235.743 31.7483 235.777C31.3169 235.912 30.7806 236.08 30.0735 235.962C29.6791 235.896 28.7453 235.664 28.6706 234.965C28.6486 234.778 28.6957 234.619 28.7656 234.49C28.7374 234.481 28.709 234.472 28.6783 234.462C28.3051 234.336 28.1253 234.207 27.9521 234.082C27.819 233.985 27.6817 233.886 27.3831 233.752C27.2521 233.694 27.1393 233.651 27.0445 233.614C26.7574 233.504 26.4099 233.353 26.3102 232.951C26.2186 232.518 26.5128 232.202 26.7075 231.992C27.0547 231.617 27.3235 231.418 27.5019 231.286C27.5671 231.238 27.6404 231.184 27.6613 231.161C27.8274 230.97 27.3453 229.899 27.1661 229.495C26.7604 228.588 26.4094 227.804 26.9174 227.309C27.2807 226.955 27.8918 226.986 28.7832 227.407C29.0606 227.539 29.2866 227.696 29.4693 227.841C29.5191 227.668 29.6206 227.499 29.8208 227.388C30.2949 227.127 30.9178 227.431 31.674 228.289C31.8627 228.502 32.115 228.79 32.3162 229.232C32.4107 229.441 32.4712 229.635 32.5203 229.802C32.6183 229.78 32.7294 229.775 32.8531 229.806C33.217 229.896 33.4633 230.218 33.5695 230.773C33.6951 231.381 33.7101 231.905 33.724 232.367C33.7366 232.771 33.7485 233.118 33.8331 233.371C33.9964 233.838 34.4737 234.106 35.081 234.407L36.6195 235.155H36.6195V235.155Z" fill="#F2F2F2"/>
<path d="M35.4925 228.763L35.25 226.593L35.3608 226.428C35.8734 225.668 36.1347 224.925 36.1378 224.22C36.1384 224.108 36.1331 223.996 36.1279 223.882C36.107 223.429 36.0809 222.866 36.3735 222.21C36.5376 221.845 36.9985 220.998 37.6914 221.103C37.878 221.129 38.0191 221.215 38.1262 221.316C38.1419 221.291 38.1581 221.266 38.1753 221.238C38.3911 220.908 38.562 220.767 38.7266 220.631C38.8531 220.526 38.9837 220.418 39.1886 220.162C39.2785 220.05 39.3485 219.952 39.4075 219.869C39.5868 219.619 39.8209 219.32 40.2337 219.325C40.6748 219.346 40.9057 219.712 41.0589 219.954C41.3322 220.385 41.456 220.697 41.538 220.903C41.5678 220.978 41.6018 221.063 41.619 221.09C41.7612 221.299 42.9166 221.103 43.3519 221.032C44.3296 220.868 45.1756 220.727 45.5242 221.345C45.774 221.787 45.5885 222.372 44.9562 223.129C44.7591 223.365 44.5496 223.544 44.3636 223.685C44.5177 223.777 44.6557 223.918 44.7116 224.14C44.8433 224.666 44.3923 225.193 43.3717 225.709C43.1183 225.838 42.7771 226.009 42.2989 226.092C42.0737 226.131 41.8709 226.14 41.6974 226.146C41.6938 226.246 41.6703 226.355 41.6091 226.467C41.4299 226.797 41.0568 226.954 40.4945 226.917C39.8758 226.884 39.3663 226.766 38.9169 226.662C38.5244 226.572 38.1863 226.496 37.9209 226.513C37.4286 226.553 37.0492 226.948 36.604 227.46L35.4925 228.763H35.4925L35.4925 228.763Z" fill="#F2F2F2"/>
<path d="M37.7077 270.879L37.2541 270.594L37.1444 270.069L37.2541 270.594L36.7253 270.654C36.7169 270.605 36.6882 270.492 36.6448 270.315C36.4081 269.345 35.6864 266.392 35.0844 261.743C34.6643 258.497 34.4265 255.16 34.3774 251.824C34.3283 248.481 34.4861 245.951 34.6126 243.918C34.7082 242.384 34.8242 240.924 34.9381 239.501C35.2412 235.7 35.527 232.11 35.3144 228.135C35.2673 227.247 35.1686 225.4 34.0921 223.435C33.4676 222.295 32.6075 221.283 31.5352 220.428L32.2019 219.588C33.3856 220.533 34.3372 221.654 35.0306 222.919C36.2241 225.099 36.3318 227.111 36.3835 228.078C36.5999 232.123 36.3109 235.748 36.0047 239.586C35.8918 241.003 35.7758 242.457 35.6807 243.985C35.5553 246 35.399 248.508 35.4476 251.807C35.4957 255.104 35.7308 258.4 36.1452 261.605C36.7399 266.195 37.4511 269.104 37.6847 270.059C37.8091 270.569 37.8352 270.676 37.7077 270.879H37.7077H37.7077Z" fill="#F2F2F2"/>
<path d="M29.5728 222.133C29.5289 222.133 29.4844 222.132 29.4395 222.129C28.5282 222.08 27.6842 221.533 26.9307 220.504C26.5774 220.02 26.3966 219.468 26.036 218.367C25.9801 218.197 25.7084 217.336 25.5432 216.151C25.4351 215.377 25.4487 215.053 25.6018 214.767C25.7716 214.448 26.0465 214.226 26.3558 214.076C26.3423 213.974 26.3532 213.868 26.3977 213.76C26.58 213.313 27.065 213.371 27.3273 213.4C27.46 213.416 27.6257 213.438 27.8044 213.429C28.0855 213.415 28.2366 213.332 28.4654 213.206C28.6844 213.085 28.9567 212.936 29.3606 212.853C30.157 212.686 30.8243 212.913 31.0443 212.987C32.2018 213.373 32.7724 214.276 33.433 215.32C33.5646 215.53 34.0167 216.292 34.315 217.338C34.5303 218.092 34.5 218.427 34.4352 218.677C34.3036 219.189 33.9926 219.482 33.203 220.13C32.3784 220.808 31.9646 221.147 31.6092 221.354C30.782 221.832 30.2625 222.133 29.5728 222.133H29.5728Z" fill="#F2F2F2"/>
<path d="M249.5 270.819C249.5 271.017 249.339 271.178 249.141 271.178H0.5V270.459H249.141C249.339 270.459 249.5 270.62 249.5 270.819Z" fill="#E6E6E6"/>
<path d="M112.633 78.0345C110.105 75.0741 106.533 73.9819 104.654 75.5946C102.775 77.2074 103.301 80.914 105.829 83.8751C106.823 85.0718 108.089 86.0125 109.52 86.6184L120.387 99.0259L126.087 93.7897L114.769 82.114C114.392 80.6027 113.66 79.2038 112.633 78.0345Z" fill="#FFB6B6"/>
<path d="M194.205 93.1652C194.205 93.1652 196.582 104.072 187.148 107.549C177.713 111.027 153.265 124.38 151.455 123.768C149.646 123.156 143.725 126.143 136.737 119.771C129.749 113.398 112.867 94.1843 112.867 94.1843L119.811 84.7305L145.956 102.835C145.956 102.835 146.515 102.669 148.994 102.411C151.472 102.154 149.534 103.721 153.41 100.587C157.287 97.4524 182.03 86.2195 182.03 86.2195C182.03 86.2195 189.29 82.6129 194.205 93.1652L194.205 93.1652V93.1652Z" fill="#2F2E41"/>
<path d="M132.513 245.305L136.356 257.72L125.679 264.998L117.992 258.148C117.992 258.148 120.982 247.446 119.7 244.877L132.513 245.305Z" fill="#FFB6B6"/>
<path d="M186.75 69.3535L192.873 82.8945L174.956 94.059L173.938 77.9157L186.75 69.3535Z" fill="#FFB6B6"/>
<path opacity="0.1" d="M186.75 69.3535L192.873 82.8945L174.956 94.059L173.938 77.9157L186.75 69.3535Z" fill="black"/>
<path d="M243.648 115.669C237.677 112.223 231.997 117.728 226.704 135.121C226.704 135.121 204.349 166.859 204.342 180.104H140.39L126.243 200.219L125.156 200.393C125.156 200.393 132.25 202.093 143.385 203.965V270.832H147.204V204.588C150.537 205.114 154.158 205.64 157.999 206.134V270.832H161.818V206.604C172.511 207.865 184.644 208.815 196.953 208.815C197.737 208.815 198.497 208.8 199.244 208.778V270.832H203.063V208.563C209.226 208.034 213.954 206.7 217.575 204.914V270.832H221.394V202.59C231.091 195.331 229.032 184.315 229.032 184.315C226.117 166.785 240.108 140.336 246.898 128.792C249.561 124.263 248.193 118.293 243.648 115.669V115.669Z" fill="#CCCCCC"/>
<path d="M179.71 81.4248C186.895 81.4248 192.72 75.5857 192.72 68.3828C192.72 61.1799 186.895 55.3408 179.71 55.3408C172.524 55.3408 166.699 61.1799 166.699 68.3828C166.699 75.5857 172.524 81.4248 179.71 81.4248Z" fill="#FFB6B6"/>
<path d="M174.794 91.1866L193.158 78.7715L190.169 183.658C190.169 183.658 175.008 157.329 163.477 156.045C163.477 156.045 164.758 153.048 165.612 151.336C166.466 149.623 167.747 141.061 167.747 141.061L173.726 94.8255L174.794 91.1866V91.1866Z" fill="url(#paint0_linear_2685_50237)"/>
<path d="M189.526 199.712L173.297 142.345C173.297 142.345 175.859 96.1098 193.156 78.7715L197.213 84.979C197.213 84.979 201.225 85.5757 200.5 88.2741C199.775 90.9725 216.431 190.293 216.431 190.293H199.168C199.168 190.293 197.64 199.712 189.526 199.712Z" fill="#2F2E41"/>
<path d="M174.793 91.187V89.4746C174.793 89.4746 166.892 90.1168 166.465 94.8259C166.038 99.5351 162.621 117.944 166.038 129.074L161.767 135.924L158.777 152.192L168.173 154.761L173.298 115.255C173.298 115.255 176.714 94.3978 174.793 91.187V91.187Z" fill="#2F2E41"/>
<path d="M189.953 172.741C189.953 172.741 197.213 193.719 181.839 194.147C166.464 194.575 142.513 194.575 142.513 194.575L130.59 200.996L134.007 247.66L110.091 248.088C110.091 248.088 102.403 190.722 109.237 183.872C116.07 177.023 135.715 169.745 135.715 169.745L158.35 158.186L164.716 150.439L189.953 172.741Z" fill="#2F2E41"/>
<path d="M190.823 75.9892C191.731 75.6661 200.223 65.6888 193.155 59.079C193.155 59.079 190.401 51.0044 179.417 51.8513C168.434 52.6983 165.477 58.7202 165.477 61.8496C165.477 64.9789 168.385 68.4973 168.385 68.4973C168.385 68.4973 166.321 59.8973 170.968 60.3208C175.615 60.7442 174.348 62.4381 177.728 61.5912C181.107 60.7442 184.487 62.0146 184.487 62.0146L187.866 63.2851V68.4517C187.866 68.4517 189.34 67.2664 189.448 68.4517C189.556 69.6371 190.823 75.9892 190.823 75.9892Z" fill="#2F2E41"/>
<path d="M117.352 181.731L116.925 195.003L100.27 192.006C100.27 192.006 107.421 180.208 106.408 176.902L117.352 181.731Z" fill="#FFB6B6"/>
<path d="M115.644 192.006C115.644 192.006 118.634 192.006 118.634 193.719C118.634 195.431 123.332 208.702 114.363 209.131C105.395 209.559 105.822 207.846 105.822 207.846C105.822 207.846 80.6245 219.405 71.656 202.281C71.656 202.281 69.5207 198 74.6455 197.144C79.7704 196.287 100.27 189.119 100.27 189.119C100.27 189.119 112.228 193.719 115.644 192.006Z" fill="#2F2E41"/>
<path d="M132.94 257.72C132.94 257.72 135.929 254.089 136.356 254.406C136.783 254.723 146.179 265.426 139.773 268.423C133.367 271.419 129.95 272.704 129.95 272.704L128.242 270.135C128.242 270.135 115.43 282.55 95.7846 273.988C95.7846 273.988 94.0763 270.135 97.9199 269.279C101.764 268.423 117.992 255.377 117.992 255.377C117.992 255.377 124.825 260.289 128.242 259.432C131.659 258.576 132.94 257.72 132.94 257.72Z" fill="#2F2E41"/>
<path d="M163.475 154.761C163.475 154.761 123.544 134.426 120.127 134.426C116.71 134.426 110.18 135.835 108.747 142.408C107.315 148.981 98.7734 180.661 98.7734 180.661L119.7 185.799L127.814 163.109L141.054 175.096L163.475 161.693V154.761Z" fill="#2F2E41"/>
<path d="M144.672 146.905C140.826 147.471 137.999 149.919 138.359 152.372C138.719 154.825 142.128 156.355 145.975 155.788C147.515 155.583 148.983 155.011 150.257 154.121L166.523 151.517L165.141 143.892L149.253 147.268C147.777 146.782 146.206 146.657 144.672 146.905Z" fill="#FFB6B6"/>
<path d="M200.921 85.7859C200.921 85.7859 211.394 89.5833 209.301 99.4388C207.207 109.294 205.446 137.148 203.965 138.356C202.484 139.565 201.85 146.179 192.746 148.709C183.642 151.239 157.518 162.437 157.518 162.437L154.148 144.387L183.366 131.863C183.366 131.863 183.523 131.3 184.627 129.061C185.731 126.821 186.02 129.301 185.441 124.342C184.862 119.383 188.569 92.4103 188.569 92.4103C188.569 92.4103 189.395 84.3299 200.921 85.7859L200.921 85.7859Z" fill="#2F2E41"/>
<path d="M106.355 5.96611C106.302 6.0175 106.253 6.07156 106.201 6.12338C98.0566 -1.97835 84.9396 -2.04963 76.7078 5.96305C68.4467 14.0073 68.1675 27.2129 76.0813 35.6008L76.0761 35.6058L76.2732 35.8092L105.416 65.8876L135.624 36.4771L135.54 36.3904C135.591 36.3419 135.644 36.297 135.694 36.2479C144.036 28.1264 144.231 14.7639 136.129 6.40174C128.027 -1.96034 114.697 -2.15537 106.355 5.9661L106.355 5.96611Z" fill="url(#paint1_linear_2685_50237)"/>
</g>
<defs>
<linearGradient id="paint0_linear_2685_50237" x1="160.943" y1="38.5245" x2="205.753" y2="41.9345" gradientUnits="userSpaceOnUse">
<stop stop-color="#B36BFF"/>
<stop offset="1" stop-color="#5A75FF"/>
</linearGradient>
<linearGradient id="paint1_linear_2685_50237" x1="64.1987" y1="-25.2825" x2="164.549" y2="4.10627" gradientUnits="userSpaceOnUse">
<stop stop-color="#B36BFF"/>
<stop offset="1" stop-color="#5A75FF"/>
</linearGradient>
<clipPath id="clip0_2685_50237">
<rect width="249" height="277" fill="white" transform="translate(0.5)"/>
</clipPath>
</defs>
</svg>
