<svg width="609" height="449" viewBox="0 0 609 449" fill="none" xmlns="http://www.w3.org/2000/svg">
<g clip-path="url(#clip0_2783_50405)">
<path d="M605.627 26.6214H3.37341C2.47903 26.6204 1.62155 26.2642 0.989129 25.6311C0.356703 24.9979 0.000977567 24.1394 0 23.244V3.37736C0.000977567 2.48193 0.356703 1.62345 0.989129 0.990279C1.62155 0.357112 2.47903 0.000976703 3.37341 0H605.627C606.521 0.000978716 607.378 0.357123 608.011 0.990291C608.643 1.62346 608.999 2.48193 609 3.37736V23.244C608.999 24.1394 608.643 24.9979 608.011 25.6311C607.378 26.2642 606.521 26.6204 605.627 26.6214Z" fill="#E4E4E4"/>
<path d="M19.5785 17.1369C22.2236 17.1369 24.3679 14.9901 24.3679 12.3419C24.3679 9.69368 22.2236 7.54688 19.5785 7.54688C16.9334 7.54688 14.7891 9.69368 14.7891 12.3419C14.7891 14.9901 16.9334 17.1369 19.5785 17.1369Z" fill="white"/>
<path d="M37.7581 17.1369C40.4033 17.1369 42.5476 14.9901 42.5476 12.3419C42.5476 9.69368 40.4033 7.54688 37.7581 7.54688C35.113 7.54688 32.9688 9.69368 32.9688 12.3419C32.9688 14.9901 35.113 17.1369 37.7581 17.1369Z" fill="white"/>
<path d="M55.9378 17.1369C58.5829 17.1369 60.7272 14.9901 60.7272 12.3419C60.7272 9.69368 58.5829 7.54688 55.9378 7.54688C53.2927 7.54688 51.1484 9.69368 51.1484 12.3419C51.1484 14.9901 53.2927 17.1369 55.9378 17.1369Z" fill="white"/>
<path d="M587.817 9.04244H566.883C566.472 9.04153 566.079 8.87756 565.789 8.58651C565.499 8.29547 565.336 7.90111 565.336 7.48996C565.336 7.07882 565.499 6.68447 565.789 6.39342C566.079 6.10238 566.472 5.93841 566.883 5.9375H587.817C588.228 5.93721 588.622 6.10024 588.913 6.39078C589.204 6.68133 589.368 7.07563 589.369 7.48706C589.369 7.89848 589.207 8.29339 588.917 8.58503C588.627 8.87667 588.234 9.04118 587.823 9.04244H587.817Z" fill="white"/>
<path d="M587.817 14.8627H566.883C566.472 14.8618 566.079 14.6979 565.789 14.4068C565.499 14.1158 565.336 13.7214 565.336 13.3103C565.336 12.8991 565.499 12.5048 565.789 12.2137C566.079 11.9227 566.472 11.7587 566.883 11.7578H587.817C588.228 11.7575 588.622 11.9205 588.913 12.2111C589.204 12.5016 589.368 12.8959 589.369 13.3074C589.369 13.7188 589.207 14.1137 588.917 14.4053C588.627 14.697 588.234 14.8615 587.823 14.8627H587.817Z" fill="white"/>
<path d="M587.813 20.6831H566.879C566.468 20.6831 566.073 20.5195 565.782 20.2284C565.491 19.9372 565.328 19.5423 565.328 19.1306C565.328 18.7189 565.491 18.324 565.782 18.0328C566.073 17.7417 566.468 17.5781 566.879 17.5781H587.813C588.224 17.5774 588.619 17.7402 588.91 18.0308C589.201 18.3214 589.365 18.7159 589.366 19.1277C589.367 19.5394 589.204 19.9346 588.914 20.2263C588.624 20.518 588.23 20.6823 587.818 20.6831H587.813Z" fill="white"/>
<path d="M171.724 394.78C173.94 376.939 184.984 359.361 201.978 353.555C195.276 371.918 195.277 392.063 201.982 410.425C204.594 417.497 208.234 425.091 205.778 432.219C204.249 436.654 200.51 440.047 196.331 442.169C192.151 444.29 187.513 445.302 182.932 446.293L182.031 447.039C174.76 430.601 169.507 412.621 171.724 394.78Z" fill="#F0F0F0"/>
<path d="M202.146 353.895C192.249 364.998 186.098 378.94 184.566 393.742C184.18 396.922 184.297 400.144 184.912 403.288C185.611 406.331 187.111 409.132 189.257 411.399C191.214 413.552 193.466 415.529 194.867 418.121C195.565 419.459 195.972 420.929 196.062 422.436C196.152 423.942 195.923 425.451 195.39 426.862C194.153 430.414 191.715 433.309 189.233 436.057C186.477 439.108 183.566 442.234 182.394 446.279C182.252 446.769 181.501 446.52 181.643 446.031C183.681 438.993 190.505 434.995 193.759 428.656C195.278 425.698 195.915 422.264 194.492 419.142C193.247 416.412 190.926 414.372 188.925 412.208C186.8 410.028 185.24 407.36 184.382 404.436C183.609 401.334 183.368 398.122 183.67 394.938C184.238 387.761 185.929 380.717 188.681 374.065C191.781 366.455 196.158 359.433 201.623 353.301C201.961 352.922 202.482 353.519 202.146 353.895L202.146 353.895Z" fill="white"/>
<path d="M184.779 388.943C182.333 388.349 180.178 386.903 178.699 384.865C177.219 382.827 176.512 380.328 176.702 377.816C176.711 377.714 176.759 377.619 176.836 377.551C176.914 377.483 177.014 377.448 177.117 377.454C177.219 377.459 177.316 377.504 177.386 377.579C177.456 377.653 177.495 377.753 177.493 377.856C177.311 380.195 177.97 382.522 179.352 384.417C180.733 386.312 182.746 387.651 185.027 388.191C185.522 388.309 185.271 389.061 184.779 388.943Z" fill="white"/>
<path d="M188.121 410.436C192.538 407.795 195.799 403.585 197.253 398.644C197.397 398.155 198.148 398.404 198.005 398.893C196.482 404.031 193.08 408.406 188.477 411.143C188.038 411.404 187.685 410.695 188.121 410.436Z" fill="white"/>
<path d="M192.517 367.203C193.415 367.631 194.405 367.828 195.399 367.778C196.392 367.727 197.357 367.43 198.208 366.914C198.643 366.648 198.996 367.358 198.564 367.622C197.621 368.188 196.555 368.514 195.458 368.573C194.36 368.631 193.265 368.419 192.268 367.956C192.171 367.92 192.09 367.848 192.044 367.756C191.997 367.663 191.987 367.555 192.017 367.455C192.05 367.356 192.121 367.274 192.215 367.227C192.308 367.179 192.417 367.171 192.517 367.203Z" fill="white"/>
<path d="M253.78 385.421C253.513 385.594 253.246 385.768 252.979 385.949C249.4 388.305 246.018 390.949 242.866 393.853C242.619 394.074 242.372 394.302 242.131 394.529C234.613 401.608 228.473 410.023 224.023 419.346C222.256 423.058 220.773 426.898 219.588 430.835C217.951 436.272 216.608 442.297 213.369 446.745C213.036 447.212 212.675 447.659 212.287 448.082H183.01C182.943 448.049 182.876 448.022 182.81 447.988L181.641 448.042C181.688 447.835 181.741 447.621 181.788 447.413C181.815 447.293 181.848 447.173 181.875 447.052C181.894 446.972 181.915 446.892 181.928 446.818C181.935 446.791 181.941 446.765 181.948 446.745C181.961 446.671 181.982 446.604 181.995 446.537C182.289 445.34 182.591 444.143 182.903 442.946C182.903 442.939 182.903 442.939 182.91 442.933C185.198 433.789 188.561 424.948 192.929 416.597C193.063 416.35 193.196 416.096 193.343 415.848C195.366 412.152 197.687 408.627 200.284 405.309C201.711 403.497 203.229 401.758 204.832 400.099C208.983 395.822 213.78 392.225 219.047 389.44C229.547 383.889 241.704 381.762 252.926 385.153C253.213 385.24 253.493 385.327 253.78 385.421Z" fill="#F0F0F0"/>
<path d="M253.719 385.795C239.141 388.694 225.845 396.118 215.721 407.013C213.499 409.32 211.655 411.962 210.256 414.844C208.984 417.695 208.497 420.835 208.847 423.938C209.115 426.838 209.725 429.773 209.284 432.688C209.037 434.177 208.478 435.596 207.644 436.853C206.81 438.11 205.72 439.177 204.445 439.982C201.322 442.073 197.634 442.915 194 443.613C189.964 444.388 185.76 445.128 182.392 447.652C181.984 447.958 181.534 447.306 181.942 447.001C187.801 442.61 195.654 443.531 202.064 440.432C205.056 438.985 207.629 436.628 208.371 433.277C209.018 430.346 208.392 427.319 208.095 424.385C207.71 421.363 208.069 418.292 209.142 415.441C210.39 412.498 212.13 409.788 214.286 407.429C219.055 402.039 224.641 397.434 230.839 393.782C237.89 389.575 245.608 386.606 253.658 385.005C254.157 384.906 254.214 385.697 253.719 385.795H253.719Z" fill="white"/>
<path d="M218.771 403.314C217.176 401.365 216.324 398.912 216.369 396.393C216.413 393.873 217.351 391.452 219.014 389.561C219.352 389.18 219.96 389.687 219.622 390.069C218.07 391.827 217.197 394.083 217.16 396.429C217.123 398.775 217.925 401.057 219.421 402.862C219.746 403.255 219.094 403.704 218.771 403.314Z" fill="white"/>
<path d="M208.52 422.485C213.635 423.039 218.77 421.643 222.902 418.575C223.311 418.271 223.761 418.923 223.353 419.226C219.047 422.411 213.7 423.853 208.379 423.265C207.871 423.208 208.016 422.429 208.52 422.485Z" fill="white"/>
<path d="M238.021 390.615C238.481 391.498 239.153 392.252 239.977 392.811C240.8 393.369 241.749 393.714 242.739 393.815C243.247 393.865 243.102 394.644 242.598 394.594C241.505 394.478 240.457 394.096 239.546 393.481C238.634 392.866 237.888 392.037 237.37 391.066C237.314 390.979 237.293 390.873 237.311 390.771C237.33 390.669 237.387 390.577 237.47 390.515C237.557 390.456 237.663 390.433 237.766 390.452C237.869 390.47 237.961 390.529 238.021 390.615L238.021 390.615Z" fill="white"/>
<path d="M197.394 138.521H100.532C97.5387 138.518 94.6691 137.326 92.5526 135.207C90.4361 133.088 89.2455 130.215 89.2422 127.218V74.4004C89.2455 71.4037 90.4361 68.5307 92.5526 66.4117C94.6692 64.2928 97.5388 63.1009 100.532 63.0977H197.394C200.387 63.1009 203.256 64.2928 205.373 66.4117C207.489 68.5307 208.68 71.4037 208.683 74.4004V127.218C208.68 130.214 207.49 133.088 205.373 135.207C203.256 137.326 200.387 138.518 197.394 138.521Z" fill="#E6E6E6"/>
<path d="M345.276 138.521H248.415C245.422 138.518 242.552 137.326 240.435 135.207C238.319 133.088 237.128 130.215 237.125 127.218V74.4004C237.128 71.4037 238.319 68.5307 240.435 66.4117C242.552 64.2928 245.422 63.1009 248.415 63.0977H345.276C348.27 63.1009 351.139 64.2928 353.256 66.4117C355.372 68.5307 356.563 71.4037 356.566 74.4004V127.218C356.563 130.214 355.372 133.088 353.256 135.207C351.139 137.326 348.27 138.518 345.276 138.521Z" fill="#5A75FF"/>
<path d="M493.151 138.521H396.29C393.297 138.518 390.427 137.326 388.31 135.207C386.194 133.088 385.003 130.215 385 127.218V74.4004C385.003 71.4037 386.194 68.5307 388.31 66.4117C390.427 64.2928 393.297 63.1009 396.29 63.0977H493.151C496.145 63.1009 499.014 64.2928 501.131 66.4117C503.247 68.5307 504.438 71.4037 504.441 74.4004V127.218C504.438 130.214 503.247 133.088 501.131 135.207C499.014 137.326 496.145 138.518 493.151 138.521Z" fill="#E6E6E6"/>
<path d="M197.394 256.205H100.532C97.5387 256.201 94.6691 255.009 92.5526 252.89C90.4361 250.771 89.2455 247.898 89.2422 244.901V192.084C89.2455 189.087 90.4361 186.214 92.5526 184.095C94.6692 181.976 97.5388 180.785 100.532 180.781H197.394C200.387 180.785 203.256 181.976 205.373 184.095C207.489 186.214 208.68 189.087 208.683 192.084V244.901C208.68 247.898 207.49 250.771 205.373 252.89C203.256 255.009 200.387 256.201 197.394 256.205Z" fill="#F2F2F2"/>
<path d="M345.276 256.205H248.415C245.422 256.201 242.552 255.009 240.435 252.89C238.319 250.771 237.128 247.898 237.125 244.901V192.084C237.128 189.087 238.319 186.214 240.435 184.095C242.552 181.976 245.422 180.785 248.415 180.781H345.276C348.27 180.785 351.139 181.976 353.256 184.095C355.372 186.214 356.563 189.087 356.566 192.084V244.901C356.563 247.898 355.372 250.771 353.256 252.89C351.139 255.009 348.27 256.201 345.276 256.205Z" fill="#E6E6E6"/>
<path d="M352.112 265.922C361.667 265.922 369.412 258.167 369.412 248.601C369.412 239.036 361.667 231.281 352.112 231.281C342.558 231.281 334.812 239.036 334.812 248.601C334.812 258.167 342.558 265.922 352.112 265.922Z" fill="#5A75FF"/>
<path d="M359.291 247.146H353.409V241.257C353.409 241.075 353.373 240.895 353.304 240.727C353.234 240.558 353.132 240.406 353.004 240.277C352.875 240.148 352.723 240.046 352.555 239.977C352.387 239.907 352.207 239.871 352.025 239.871C351.843 239.871 351.663 239.907 351.495 239.977C351.327 240.046 351.175 240.148 351.046 240.277C350.918 240.406 350.816 240.558 350.746 240.727C350.677 240.895 350.641 241.075 350.641 241.257V247.146H344.759C344.577 247.146 344.397 247.181 344.229 247.251C344.061 247.321 343.909 247.423 343.78 247.551C343.652 247.68 343.55 247.833 343.48 248.001C343.411 248.169 343.375 248.349 343.375 248.531C343.375 248.713 343.411 248.894 343.48 249.062C343.55 249.23 343.652 249.383 343.78 249.511C343.909 249.64 344.061 249.742 344.229 249.812C344.397 249.881 344.577 249.917 344.759 249.917H350.641V255.806C350.641 255.988 350.677 256.168 350.746 256.336C350.816 256.504 350.918 256.657 351.046 256.786C351.175 256.914 351.327 257.016 351.495 257.086C351.663 257.156 351.843 257.192 352.025 257.192C352.392 257.192 352.744 257.046 353.004 256.786C353.263 256.526 353.409 256.173 353.409 255.806V249.917H359.291C359.473 249.917 359.653 249.881 359.821 249.812C359.988 249.742 360.141 249.64 360.27 249.511C360.398 249.382 360.5 249.23 360.57 249.062C360.639 248.893 360.675 248.713 360.675 248.531C360.675 248.349 360.639 248.169 360.57 248.001C360.5 247.833 360.398 247.68 360.27 247.551C360.141 247.423 359.988 247.321 359.821 247.251C359.653 247.181 359.473 247.146 359.291 247.146L359.291 247.146Z" fill="white"/>
<path d="M502.269 151.277C511.823 151.277 519.568 143.522 519.568 133.957C519.568 124.391 511.823 116.637 502.269 116.637C492.714 116.637 484.969 124.391 484.969 133.957C484.969 143.522 492.714 151.277 502.269 151.277Z" fill="#5A75FF"/>
<path d="M509.447 132.501H503.565V126.612C503.565 126.43 503.53 126.25 503.46 126.082C503.39 125.914 503.288 125.761 503.16 125.632C503.031 125.504 502.879 125.402 502.711 125.332C502.543 125.262 502.363 125.227 502.181 125.227C501.999 125.227 501.82 125.262 501.652 125.332C501.484 125.402 501.331 125.504 501.203 125.632C501.074 125.761 500.972 125.914 500.903 126.082C500.833 126.25 500.797 126.43 500.797 126.612V132.501H494.915C494.734 132.501 494.554 132.537 494.386 132.607C494.218 132.676 494.065 132.778 493.937 132.907C493.808 133.036 493.706 133.188 493.637 133.357C493.567 133.525 493.531 133.705 493.531 133.887C493.531 134.069 493.567 134.249 493.637 134.417C493.706 134.585 493.808 134.738 493.937 134.867C494.065 134.995 494.218 135.097 494.386 135.167C494.554 135.237 494.734 135.273 494.915 135.273H500.797V141.161C500.797 141.343 500.833 141.524 500.903 141.692C500.972 141.86 501.074 142.013 501.203 142.141C501.331 142.27 501.484 142.372 501.652 142.442C501.82 142.511 502 142.547 502.181 142.547C502.548 142.547 502.9 142.401 503.16 142.141C503.42 141.881 503.565 141.529 503.565 141.161V135.272H509.447C509.629 135.272 509.809 135.237 509.977 135.167C510.145 135.097 510.297 134.995 510.426 134.867C510.554 134.738 510.656 134.585 510.726 134.417C510.795 134.249 510.831 134.069 510.831 133.887C510.831 133.705 510.795 133.525 510.726 133.356C510.656 133.188 510.554 133.036 510.426 132.907C510.297 132.778 510.145 132.676 509.977 132.607C509.809 132.537 509.629 132.501 509.447 132.501L509.447 132.501Z" fill="white"/>
<path d="M204.237 149.757C213.792 149.757 221.537 142.003 221.537 132.437C221.537 122.872 213.792 115.117 204.237 115.117C194.683 115.117 186.938 122.872 186.938 132.437C186.938 142.003 194.683 149.757 204.237 149.757Z" fill="#5A75FF"/>
<path d="M211.416 130.982H205.534V125.093C205.534 124.911 205.498 124.731 205.429 124.562C205.359 124.394 205.257 124.242 205.129 124.113C205 123.984 204.848 123.882 204.68 123.813C204.512 123.743 204.332 123.707 204.15 123.707C203.968 123.707 203.788 123.743 203.62 123.813C203.452 123.882 203.3 123.984 203.171 124.113C203.043 124.242 202.941 124.394 202.871 124.562C202.802 124.731 202.766 124.911 202.766 125.093V130.982H196.884C196.702 130.982 196.522 131.017 196.354 131.087C196.187 131.157 196.034 131.259 195.905 131.387C195.777 131.516 195.675 131.669 195.605 131.837C195.536 132.005 195.5 132.185 195.5 132.367C195.5 132.735 195.646 133.087 195.905 133.347C196.165 133.607 196.517 133.753 196.884 133.753H202.766V139.642C202.766 139.824 202.802 140.004 202.871 140.172C202.941 140.34 203.043 140.493 203.171 140.622C203.3 140.75 203.452 140.852 203.62 140.922C203.788 140.992 203.968 141.028 204.15 141.028C204.332 141.028 204.512 140.992 204.68 140.922C204.848 140.852 205 140.75 205.129 140.622C205.257 140.493 205.359 140.34 205.429 140.172C205.498 140.004 205.534 139.824 205.534 139.642V133.753H211.416C211.598 133.753 211.778 133.717 211.946 133.647C212.114 133.578 212.266 133.476 212.395 133.347C212.523 133.218 212.625 133.066 212.695 132.898C212.764 132.729 212.8 132.549 212.8 132.367C212.8 132 212.654 131.647 212.395 131.387C212.135 131.128 211.783 130.982 211.416 130.982V130.982Z" fill="white"/>
<path d="M333.751 108.511C334.067 109.467 334.169 110.481 334.051 111.48C333.933 112.48 333.598 113.442 333.069 114.298C332.539 115.154 331.829 115.883 330.988 116.435C330.146 116.986 329.195 117.346 328.199 117.489L320.2 172.156L307.078 165.739L320.276 111.172C320.147 109.482 320.641 107.803 321.665 106.454C322.689 105.104 324.173 104.178 325.833 103.85C327.494 103.522 329.218 103.815 330.677 104.674C332.136 105.534 333.23 106.899 333.751 108.511L333.751 108.511Z" fill="#9E616A"/>
<path d="M238.211 283.595C238.795 282.776 239.192 281.838 239.375 280.848C239.558 279.858 239.522 278.84 239.27 277.866C239.017 276.892 238.555 275.984 237.914 275.208C237.274 274.432 236.471 273.806 235.562 273.375L240.959 215.227L229.656 221.027L226.127 277.06C225.503 278.636 225.479 280.386 226.058 281.979C226.637 283.571 227.78 284.896 229.269 285.701C230.759 286.507 232.492 286.737 234.14 286.349C235.788 285.961 237.236 284.981 238.211 283.595H238.211Z" fill="#9E616A"/>
<path d="M245.93 254.184L294.435 252.317L297.233 201.887H241.266L245.93 254.184Z" fill="#9E616A"/>
<path d="M236.931 432.282L245.22 432.281L249.163 400.273H236.93L236.931 432.282Z" fill="#9E616A"/>
<path d="M234.871 428.189L247.974 427.406V433.027L260.431 441.64C261.046 442.065 261.509 442.676 261.753 443.384C261.997 444.092 262.009 444.859 261.786 445.574C261.564 446.288 261.119 446.913 260.516 447.357C259.914 447.801 259.186 448.04 258.438 448.04H242.839L240.15 442.48L239.1 448.04H233.219L234.871 428.189Z" fill="#2F2E41"/>
<path d="M273.798 432.282L282.087 432.281L286.03 400.273H273.797L273.798 432.282Z" fill="#9E616A"/>
<path d="M245.255 242.346C245.255 242.346 230.742 254.076 238.609 295.97C237.411 296.113 238.768 298.477 238.768 298.477L239.903 332.613L240.781 336.525L237.864 342.838L239.066 349.697L235.359 411.949L249.053 413.722L262.158 349.077L264.653 341.809L267.157 335.438L265.806 328.645L266.914 318.101L274.468 282.546L276.318 344.21L273.737 350.097L275.173 356.56L271.974 359.99L270.709 417.685L285.311 418.369L297.392 360.208L296.456 352.786L298.063 347.299V334.48L300.816 328.431L306.818 295.443C306.818 295.443 308.628 269.66 295.418 239.32L245.255 242.346Z" fill="#2F2E41"/>
<path d="M251.18 159.973C251.18 159.973 232.849 163.602 229.691 179.253C226.532 194.905 224.5 230.323 224.5 230.323L225.192 235.255L242.923 239.371L254.241 189.745L251.18 159.973Z" fill="#3F3D56"/>
<path d="M293.008 165.259C293.008 165.259 294.866 162.652 305.271 162.25C305.7 162.233 305.169 161.382 305.169 161.382L310.173 136.895L326.85 146.139L324.035 171.811L296.631 203.017L293.008 165.259Z" fill="#3F3D56"/>
<path d="M282.614 238.258C274.764 238.259 262.946 237.391 245.155 234.747C244.009 234.574 242.948 234.039 242.128 233.219C241.307 232.4 240.77 231.339 240.594 230.192C240.013 229.578 239.635 228.8 239.512 227.963C239.388 227.126 239.525 226.272 239.903 225.515L239.92 225.483L239.517 225.007C238.893 224.274 238.527 223.356 238.474 222.395C238.421 221.434 238.684 220.481 239.223 219.684L233.714 180.222C233.155 176.303 234.01 172.314 236.127 168.97C238.244 165.627 241.483 163.15 245.262 161.984L247.296 161.35L254.987 151.277L255.139 151.279L279.832 151.608L287.845 161.796L300.798 164.854L300.832 165.051L303.84 182.449C305.404 191.497 301.816 195.057 297.238 203.014L298.581 225.362L299.191 226.471C299.53 227.085 299.643 227.798 299.512 228.487C299.38 229.176 299.013 229.797 298.472 230.243C298.881 231.412 298.909 232.68 298.552 233.866L298.235 234.914C298.236 234.945 298.151 235.371 297.467 235.891C296.234 236.828 292.693 238.258 282.614 238.258Z" fill="#3F3D56"/>
<path d="M271.746 428.189L284.849 427.406V433.027L297.306 441.64C297.921 442.065 298.384 442.676 298.628 443.384C298.872 444.092 298.884 444.859 298.661 445.574C298.439 446.288 297.994 446.913 297.391 447.357C296.789 447.801 296.061 448.04 295.313 448.04H279.714L277.025 442.48L275.975 448.04H270.094L271.746 428.189Z" fill="#2F2E41"/>
<path d="M285.505 129.328C287.217 118.763 280.051 108.807 269.497 107.093C258.944 105.378 249.001 112.554 247.288 123.119C245.576 133.685 252.743 143.64 263.296 145.354C273.849 147.069 283.792 139.894 285.505 129.328Z" fill="#9E616A"/>
<path d="M277.716 107.288C270.62 102.403 264.372 101.658 259.24 103.044C258.575 102.014 257.642 101.184 256.541 100.645C252.538 90.5466 240.356 84.4822 229.902 87.4302C219.38 90.3973 212.121 102.066 214.1 112.829C215.327 119.501 219.521 125.278 221.208 131.848C224.473 144.566 216.508 159.135 204.047 163.235C215.845 165.607 228.832 158.392 233.065 147.114C235.12 141.636 235.244 135.655 235.506 129.809C235.574 125.774 236.068 121.757 236.979 117.826C237.431 116.062 238.069 114.351 238.884 112.723C240.657 109.144 243.604 106.283 247.23 104.616C246.905 105.622 246.824 106.69 246.993 107.733C247.162 108.777 247.577 109.765 248.202 110.616C245.435 114.086 243.929 117.839 243.929 120.086C238.181 130.604 246.401 139.638 256.906 145.393C261.096 147.7 265.935 148.544 270.657 147.793L271.097 145.914L271.692 147.606L273.68 153.279C275.973 154.389 278.247 155.607 280.5 156.931C279.644 152.906 278.951 148.888 278.475 144.96C277.815 139.614 280.115 131.654 281.774 126.813C282.803 123.83 283.331 120.697 283.337 117.541V117.403L284.952 122.598L290.834 120.086C289.74 113.803 290.834 106.669 277.716 107.288Z" fill="#2F2E41"/>
<path d="M519.61 448.999H89.3984C89.1597 448.998 88.9312 448.902 88.7629 448.733C88.5945 448.564 88.5 448.334 88.5 448.095C88.5 447.856 88.5945 447.627 88.7629 447.458C88.9312 447.288 89.1597 447.193 89.3984 447.191H519.61C519.848 447.193 520.077 447.288 520.245 447.458C520.413 447.627 520.508 447.856 520.508 448.095C520.508 448.334 520.413 448.564 520.245 448.733C520.077 448.902 519.848 448.998 519.61 448.999Z" fill="#CCCCCC"/>
<path d="M202.253 268.199C211.807 268.199 219.553 260.444 219.553 250.879C219.553 241.313 211.807 233.559 202.253 233.559C192.699 233.559 184.953 241.313 184.953 250.879C184.953 260.444 192.699 268.199 202.253 268.199Z" fill="#E6E6E6"/>
<path d="M462.548 240.924H401.869C399.994 240.922 398.197 240.175 396.871 238.848C395.545 237.521 394.799 235.721 394.797 233.843V200.756C394.799 198.879 395.545 197.079 396.871 195.752C398.197 194.424 399.994 193.678 401.869 193.676H462.548C464.423 193.678 466.22 194.424 467.546 195.752C468.872 197.079 469.618 198.879 469.62 200.756V233.843C469.618 235.721 468.872 237.521 467.546 238.848C466.22 240.175 464.423 240.922 462.548 240.924Z" fill="#F2F2F2"/>
<path d="M463.445 227.486C468.519 227.486 472.632 223.368 472.632 218.288C472.632 213.208 468.519 209.09 463.445 209.09C458.371 209.09 454.258 213.208 454.258 218.288C454.258 223.368 458.371 227.486 463.445 227.486Z" fill="#5A75FF"/>
<path d="M467.265 217.516H464.141V214.388C464.141 214.292 464.122 214.196 464.085 214.107C464.048 214.017 463.994 213.936 463.926 213.868C463.858 213.8 463.777 213.745 463.687 213.708C463.598 213.671 463.503 213.652 463.406 213.652C463.211 213.652 463.024 213.73 462.886 213.868C462.749 214.006 462.671 214.193 462.671 214.388V217.516H459.548C459.353 217.516 459.166 217.593 459.028 217.731C458.89 217.869 458.813 218.056 458.813 218.251C458.812 218.348 458.832 218.444 458.868 218.533C458.905 218.622 458.96 218.703 459.028 218.772C459.096 218.84 459.177 218.894 459.266 218.931C459.355 218.968 459.451 218.987 459.548 218.987H462.671V222.115C462.671 222.211 462.69 222.307 462.727 222.396C462.764 222.485 462.818 222.567 462.886 222.635C462.955 222.703 463.036 222.757 463.125 222.794C463.214 222.831 463.31 222.85 463.406 222.85C463.601 222.85 463.788 222.773 463.926 222.635C464.064 222.497 464.141 222.31 464.141 222.115V218.987H467.265C467.46 218.987 467.647 218.91 467.785 218.772C467.922 218.634 468 218.447 468 218.251C468 218.155 467.981 218.059 467.944 217.97C467.907 217.881 467.853 217.799 467.785 217.731C467.716 217.663 467.635 217.609 467.546 217.572C467.457 217.535 467.361 217.516 467.265 217.516L467.265 217.516Z" fill="white"/>
<path d="M487.275 231.535H437.271C435.148 231.533 433.114 230.688 431.613 229.186C430.112 227.683 429.268 225.646 429.266 223.521V193.637C429.267 193.246 429.422 192.872 429.699 192.595C429.975 192.319 430.35 192.164 430.74 192.164C431.131 192.164 431.506 192.319 431.782 192.595C432.059 192.872 432.214 193.246 432.215 193.637V201.641L490.298 206.927C491.458 206.947 492.564 207.423 493.378 208.251C494.192 209.079 494.648 210.194 494.649 211.356C494.649 211.447 494.641 211.538 494.624 211.628L491.697 227.257C491.657 228.404 491.173 229.492 490.349 230.29C489.524 231.088 488.422 231.534 487.275 231.535ZM432.215 204.606V223.521C432.217 224.863 432.75 226.149 433.698 227.098C434.646 228.047 435.931 228.581 437.271 228.582H487.275C487.666 228.582 488.041 228.426 488.318 228.149C488.594 227.873 488.75 227.497 488.75 227.106C488.75 227.015 488.759 226.923 488.775 226.834L491.696 211.242C491.666 210.871 491.499 210.525 491.226 210.273C490.954 210.02 490.596 209.88 490.225 209.879C490.18 209.879 490.136 209.877 490.092 209.873L432.215 204.606Z" fill="#5A75FF"/>
<path d="M423.981 245.316C425.339 245.316 426.44 244.215 426.44 242.855C426.44 241.496 425.339 240.395 423.981 240.395C422.624 240.395 421.523 241.496 421.523 242.855C421.523 244.215 422.624 245.316 423.981 245.316Z" fill="#5A75FF"/>
<path d="M485.302 245.316C486.659 245.316 487.76 244.215 487.76 242.855C487.76 241.496 486.659 240.395 485.302 240.395C483.944 240.395 482.844 241.496 482.844 242.855C482.844 244.215 483.944 245.316 485.302 245.316Z" fill="#5A75FF"/>
<path d="M487.764 240.395H422.014C421.623 240.395 421.248 240.239 420.971 239.962C420.694 239.685 420.539 239.31 420.539 238.918C420.539 238.526 420.694 238.151 420.971 237.874C421.248 237.597 421.623 237.441 422.014 237.441H487.764C488.155 237.441 488.53 237.597 488.807 237.874C489.083 238.151 489.239 238.526 489.239 238.918C489.239 239.31 489.083 239.685 488.807 239.962C488.53 240.239 488.155 240.395 487.764 240.395Z" fill="#5A75FF"/>
<path d="M434.675 194.621H421.893C421.503 194.62 421.129 194.464 420.853 194.187C420.577 193.911 420.422 193.536 420.422 193.145C420.422 192.753 420.577 192.378 420.853 192.102C421.129 191.825 421.503 191.669 421.893 191.668H434.675C435.066 191.669 435.44 191.825 435.716 192.102C435.992 192.378 436.147 192.753 436.147 193.145C436.147 193.536 435.992 193.911 435.716 194.187C435.44 194.464 435.066 194.62 434.675 194.621Z" fill="#5A75FF"/>
<path d="M444.92 239.643C444.568 239.643 444.227 239.517 443.96 239.286L434.266 230.946C434.119 230.82 433.998 230.666 433.91 230.493C433.822 230.32 433.769 230.131 433.754 229.937C433.739 229.744 433.763 229.549 433.823 229.364C433.884 229.18 433.98 229.009 434.106 228.862C434.233 228.715 434.387 228.594 434.56 228.506C434.733 228.419 434.922 228.366 435.115 228.352C435.308 228.337 435.503 228.361 435.687 228.422C435.871 228.483 436.041 228.579 436.188 228.706L445.882 237.047C446.111 237.243 446.273 237.505 446.349 237.797C446.424 238.089 446.409 238.397 446.304 238.68C446.199 238.963 446.01 239.207 445.763 239.379C445.516 239.551 445.222 239.643 444.92 239.643V239.643Z" fill="#5A75FF"/>
<path d="M446.967 230.628C446.773 230.628 446.582 230.59 446.403 230.516C446.224 230.441 446.061 230.333 445.924 230.196C445.787 230.059 445.679 229.896 445.604 229.717C445.53 229.538 445.492 229.346 445.492 229.152V205.449C445.492 205.058 445.648 204.682 445.924 204.405C446.201 204.128 446.576 203.973 446.967 203.973C447.358 203.973 447.733 204.128 448.01 204.405C448.286 204.682 448.442 205.058 448.442 205.449V229.151C448.442 229.345 448.404 229.537 448.33 229.716C448.256 229.896 448.147 230.058 448.01 230.196C447.873 230.333 447.71 230.441 447.532 230.516C447.353 230.59 447.161 230.628 446.967 230.628H446.967Z" fill="#5A75FF"/>
<path d="M478.115 230.629C477.922 230.629 477.73 230.59 477.551 230.516C477.372 230.442 477.21 230.333 477.073 230.196C476.936 230.059 476.827 229.896 476.753 229.717C476.679 229.538 476.641 229.346 476.641 229.152V207.419C476.642 207.028 476.797 206.653 477.074 206.377C477.35 206.1 477.725 205.945 478.115 205.945C478.506 205.945 478.881 206.1 479.157 206.377C479.434 206.653 479.589 207.028 479.59 207.419V229.152C479.59 229.346 479.552 229.538 479.478 229.717C479.404 229.896 479.295 230.059 479.158 230.196C479.021 230.333 478.859 230.442 478.68 230.516C478.501 230.59 478.309 230.629 478.116 230.629H478.115Z" fill="#5A75FF"/>
</g>
<defs>
<clipPath id="clip0_2783_50405">
<rect width="609" height="449" fill="white"/>
</clipPath>
</defs>
</svg>
