<svg width="302" height="336" viewBox="0 0 302 336" fill="none" xmlns="http://www.w3.org/2000/svg">
<g clip-path="url(#clip0_2685_50332)">
<path d="M287.337 316.7C285.461 317.359 283.446 317.525 281.488 317.18C279.529 316.835 277.692 315.991 276.154 314.73C272.237 311.442 271.008 306.026 270.01 301.01L267.055 286.175L273.242 290.436C277.692 293.5 282.242 296.663 285.323 301.101C288.404 305.539 289.749 311.598 287.273 316.401" fill="#E6E6E6"/>
<path d="M286.808 334.661C287.435 330.098 288.079 325.478 287.639 320.867C287.249 316.772 286 312.772 283.457 309.492C282.106 307.755 280.464 306.266 278.602 305.093C278.116 304.787 277.67 305.556 278.153 305.861C281.374 307.897 283.865 310.903 285.268 314.446C286.817 318.386 287.066 322.681 286.797 326.866C286.635 329.398 286.293 331.911 285.948 334.424C285.92 334.537 285.937 334.657 285.995 334.759C286.053 334.861 286.147 334.937 286.259 334.971C286.373 335.002 286.494 334.986 286.597 334.928C286.699 334.87 286.774 334.773 286.806 334.66L286.808 334.661Z" fill="#F2F2F2"/>
<path d="M264.382 258.886H5.51562V0H264.382V258.886Z" fill="white"/>
<path d="M264.382 258.886H5.51562V0H264.382V258.886ZM9.34032 255.061H260.557V3.82502H9.34032V255.061Z" fill="#E5E5E5"/>
<path d="M218.529 40.5029H106.43V43.9952H218.529V40.5029Z" fill="#E5E5E5"/>
<path d="M218.529 49.583H106.43V53.0752H218.529V49.583Z" fill="#E5E5E5"/>
<path d="M218.529 58.6621H106.43V62.1543H218.529V58.6621Z" fill="#E5E5E5"/>
<path d="M218.529 118.47H106.43V121.962H218.529V118.47Z" fill="#E5E5E5"/>
<path d="M218.529 127.549H106.43V131.041H218.529V127.549Z" fill="#E5E5E5"/>
<path d="M218.529 136.629H106.43V140.121H218.529V136.629Z" fill="#E5E5E5"/>
<path d="M218.529 196.436H106.43V199.928H218.529V196.436Z" fill="#E5E5E5"/>
<path d="M218.529 205.516H106.43V209.008H218.529V205.516Z" fill="#E5E5E5"/>
<path d="M218.529 214.596H106.43V218.088H218.529V214.596Z" fill="#E5E5E5"/>
<path d="M71.1444 43.9273C70.0677 40.8339 68.3293 38.0127 66.0504 35.6603C63.7714 33.308 61.0068 31.481 57.9493 30.307C54.8918 29.133 51.615 28.64 48.3475 28.8626C45.0799 29.0852 41.9003 30.0179 39.0302 31.5957C36.1601 33.1735 33.6687 35.3585 31.7298 37.9982C29.7908 40.6378 28.4509 43.6687 27.8036 46.8795C27.1563 50.0903 27.2171 53.4036 27.9817 56.5884C28.7464 59.7733 30.1965 62.753 32.231 65.3198C32.4331 65.5745 32.6433 65.8292 32.8576 66.0757C32.8738 66.0919 32.8858 66.1081 32.902 66.1242C33.4289 66.7314 33.9889 67.309 34.5794 67.8544C34.7332 67.9959 34.8948 68.1414 35.0565 68.2789C35.3636 68.5538 35.679 68.8165 36.0064 69.0671C36.1357 69.1682 36.261 69.2693 36.3944 69.3663C36.9117 69.7584 37.4494 70.1222 38.0032 70.4699L38.0275 70.482C38.185 70.579 38.3468 70.676 38.5085 70.769C38.7994 70.9428 39.0986 71.1086 39.3976 71.2662L39.5877 71.3632C40.0243 71.5896 40.4689 71.8039 40.9257 72.0019C41.0186 72.0424 41.1197 72.0828 41.2126 72.1232C41.2207 72.1273 41.2247 72.1273 41.2328 72.1313C41.4471 72.2202 41.6613 72.3051 41.8795 72.386C42.5966 72.6599 43.3279 72.8946 44.0703 73.0894C45.9652 73.5944 47.9179 73.8499 49.8789 73.8493C50.5944 73.8493 51.3017 73.817 52.001 73.7483C53.5988 73.6008 55.1762 73.2823 56.7061 72.7983C56.71 72.7983 56.7142 72.7943 56.7181 72.7943C57.6846 72.4864 58.6287 72.1122 59.5437 71.6745C59.5476 71.6705 59.5557 71.6705 59.5599 71.6665C59.7659 71.5694 59.9641 71.4643 60.1662 71.3632L60.2631 71.3147C60.4247 71.2298 60.5866 71.1449 60.7482 71.056C61.1524 70.8337 61.5485 70.5992 61.9405 70.3486C62.0497 70.2839 62.1549 70.2152 62.264 70.1424C62.4176 70.0414 62.5711 69.9363 62.7207 69.8271C62.9187 69.6897 63.1168 69.5482 63.3109 69.4027C63.3714 69.3582 63.4362 69.3137 63.4968 69.2652C67.2837 66.3906 70.0633 62.3907 71.4372 57.8389C72.811 53.2871 72.7085 48.4172 71.1444 43.9273V43.9273ZM62.7531 68.2829C62.6197 68.388 62.4823 68.4891 62.3447 68.582C62.2113 68.6831 62.0781 68.7801 61.9405 68.869C61.8233 68.9539 61.7061 69.0348 61.5849 69.1116L61.5485 69.1359C61.4595 69.1965 61.3707 69.2531 61.2817 69.3097C60.9462 69.5199 60.6066 69.722 60.2631 69.916L60.1539 69.9767C60.0004 70.0616 59.8468 70.1424 59.6933 70.2233C59.673 70.2354 59.6487 70.2435 59.6286 70.2556L59.6043 70.2678C59.4103 70.3688 59.2121 70.4658 59.0142 70.5588C58.2498 70.9269 57.4627 71.2456 56.6576 71.5128C56.5524 71.5492 56.4474 71.5856 56.3424 71.6179C54.8943 72.0785 53.4009 72.3821 51.8879 72.5234C51.225 72.5841 50.5539 72.6164 49.8789 72.6164C48.0241 72.6202 46.177 72.3783 44.3857 71.8968C43.4665 71.6569 42.5655 71.3516 41.6897 70.9833C41.6451 70.963 41.5965 70.9469 41.5521 70.9267C41.5038 70.9065 41.4592 70.8903 41.4147 70.8701C41.3662 70.8499 41.3218 70.8297 41.2732 70.8054C40.8933 70.6397 40.5173 70.4577 40.1496 70.2678L39.9718 70.1748C39.523 69.9403 39.0824 69.6897 38.6539 69.4229C38.5286 69.3461 38.3993 69.2652 38.278 69.1803C38.2458 69.1601 38.2174 69.1399 38.185 69.1197C37.898 68.9297 37.611 68.7316 37.3322 68.5254C37.1423 68.3839 36.9522 68.2425 36.7663 68.097C36.455 67.8625 36.1558 67.6119 35.8649 67.3531C35.7114 67.2238 35.5617 67.0823 35.4163 66.9489C34.8432 66.4197 34.3006 65.8582 33.7914 65.2673C33.6216 65.0732 33.4558 64.8792 33.2981 64.6771C33.2623 64.6371 33.2285 64.5953 33.1971 64.5518C30.5708 61.2374 28.9911 57.2159 28.6595 53.0001C28.3279 48.7843 29.2593 44.5652 31.3351 40.8809C33.4108 37.1967 36.5368 34.2142 40.3144 32.3139C44.0919 30.4136 48.3498 29.6816 52.5451 30.2112C56.7403 30.7408 60.6827 32.508 63.8696 35.2875C67.0564 38.067 69.3433 41.7328 70.4385 45.8174C71.5336 49.9019 71.3875 54.2201 70.0187 58.2213C68.6499 62.2225 66.1205 65.7253 62.7531 68.2829L62.7531 68.2829Z" fill="#3F3D56"/>
<path d="M71.1444 121.893C70.0677 118.8 68.3293 115.979 66.0503 113.626C63.7714 111.274 61.0068 109.447 57.9493 108.273C54.8918 107.099 51.615 106.606 48.3475 106.828C45.0799 107.051 41.9002 107.984 39.0302 109.562C36.1601 111.139 33.6687 113.324 31.7298 115.964C29.7908 118.604 28.4509 121.635 27.8036 124.845C27.1563 128.056 27.2171 131.369 27.9817 134.554C28.7464 137.739 30.1965 140.719 32.2309 143.286C32.433 143.54 32.6432 143.795 32.8574 144.042C32.8736 144.058 32.8856 144.074 32.9018 144.09C33.4288 144.697 33.9889 145.275 34.5794 145.82C34.733 145.962 34.8946 146.107 35.0563 146.245C35.3636 146.52 35.6788 146.782 36.0062 147.033C36.6455 147.537 37.3121 148.005 38.003 148.436L38.0273 148.448C38.4759 148.727 38.9326 148.985 39.3976 149.232L39.5875 149.329C40.0241 149.555 40.4687 149.77 40.9254 149.968C41.0184 150.008 41.1194 150.049 41.2124 150.089C41.2205 150.093 41.2246 150.093 41.2327 150.097C42.1556 150.481 43.1037 150.801 44.0703 151.055C45.9651 151.56 47.9177 151.816 49.8787 151.815C50.5942 151.815 51.3015 151.783 52.0008 151.714C53.5986 151.567 55.176 151.248 56.7059 150.764C56.71 150.764 56.714 150.76 56.7179 150.76C57.6844 150.452 58.6285 150.078 59.5435 149.64C59.5474 149.636 59.5557 149.636 59.5596 149.632C59.7657 149.535 59.9638 149.43 60.166 149.329L60.263 149.281C60.4247 149.196 60.5863 149.111 60.748 149.022C61.1522 148.799 61.5483 148.565 61.9405 148.314C62.0496 148.25 62.1546 148.181 62.2638 148.108C62.6194 147.874 62.9711 147.623 63.3106 147.368C63.3714 147.324 63.436 147.279 63.4967 147.231C67.2835 144.356 70.0631 140.356 71.4369 135.805C72.8107 131.253 72.7083 126.383 71.1444 121.893V121.893Z" fill="white"/>
<path d="M71.1444 121.893C70.0677 118.8 68.3293 115.979 66.0503 113.626C63.7714 111.274 61.0068 109.447 57.9493 108.273C54.8918 107.099 51.615 106.606 48.3475 106.828C45.0799 107.051 41.9002 107.984 39.0302 109.562C36.1601 111.139 33.6687 113.324 31.7298 115.964C29.7908 118.604 28.4509 121.635 27.8036 124.845C27.1563 128.056 27.2171 131.369 27.9817 134.554C28.7464 137.739 30.1965 140.719 32.2309 143.286C32.433 143.54 32.6432 143.795 32.8574 144.042C32.8736 144.058 32.8856 144.074 32.9018 144.09C33.4288 144.697 33.9889 145.275 34.5794 145.82C34.733 145.962 34.8946 146.107 35.0563 146.245C35.3636 146.52 35.6788 146.782 36.0062 147.033C36.6455 147.537 37.3121 148.005 38.003 148.436L38.0273 148.448C38.4759 148.727 38.9326 148.985 39.3976 149.232L39.5875 149.329C40.0241 149.555 40.4687 149.77 40.9254 149.968C41.0184 150.008 41.1194 150.049 41.2124 150.089C41.2205 150.093 41.2246 150.093 41.2327 150.097C42.1556 150.481 43.1037 150.801 44.0703 151.055C45.9651 151.56 47.9177 151.816 49.8787 151.815C50.5942 151.815 51.3015 151.783 52.0008 151.714C53.5986 151.567 55.176 151.248 56.7059 150.764C56.71 150.764 56.714 150.76 56.7179 150.76C57.6844 150.452 58.6285 150.078 59.5435 149.64C59.5474 149.636 59.5557 149.636 59.5596 149.632C59.7657 149.535 59.9638 149.43 60.166 149.329L60.263 149.281C60.4247 149.196 60.5863 149.111 60.748 149.022C61.1522 148.799 61.5483 148.565 61.9405 148.314C62.0496 148.25 62.1546 148.181 62.2638 148.108C62.6194 147.874 62.9711 147.623 63.3106 147.368C63.3714 147.324 63.436 147.279 63.4967 147.231C67.2835 144.356 70.0631 140.356 71.4369 135.805C72.8107 131.253 72.7083 126.383 71.1444 121.893V121.893ZM62.7529 146.249C62.6194 146.354 62.4821 146.455 62.3447 146.548C62.2113 146.649 62.0779 146.746 61.9405 146.835C61.8233 146.92 61.706 147.001 61.5847 147.077C61.4836 147.146 61.3826 147.211 61.2815 147.275C60.9462 147.486 60.6067 147.688 60.263 147.882L60.1537 147.942C60.0001 148.027 59.8466 148.108 59.693 148.189C59.6727 148.201 59.6484 148.209 59.6283 148.221L59.6041 148.233C59.4101 148.335 59.2121 148.432 59.0139 148.525C58.2496 148.893 57.4625 149.211 56.6573 149.479C56.5523 149.515 56.4471 149.551 56.3421 149.584C54.8941 150.044 53.4007 150.348 51.8877 150.489C51.2247 150.55 50.5537 150.582 49.8787 150.582C48.0239 150.586 46.1768 150.344 44.3855 149.863C43.4662 149.623 42.5653 149.317 41.6895 148.949C41.5965 148.913 41.5035 148.872 41.4145 148.836C41.3662 148.816 41.3216 148.795 41.273 148.771C40.8931 148.605 40.5173 148.424 40.1494 148.233L39.9716 148.141C39.5229 147.906 39.0822 147.655 38.6537 147.389C38.4962 147.292 38.3385 147.191 38.185 147.085C37.6998 146.766 37.2269 146.422 36.7661 146.063C36.4548 145.828 36.1558 145.578 35.8647 145.319C35.7111 145.19 35.5615 145.048 35.4161 144.915C34.843 144.385 34.3005 143.824 33.7911 143.233C33.6214 143.039 33.4556 142.845 33.2979 142.643C33.2621 142.603 33.2283 142.561 33.1969 142.518C30.5706 139.203 28.9909 135.182 28.6593 130.966C28.3276 126.75 29.2591 122.531 31.3349 118.847C33.4106 115.162 36.5366 112.18 40.3142 110.28C44.0917 108.379 48.3496 107.647 52.5448 108.177C56.7401 108.707 60.6825 110.474 63.8694 113.253C67.0562 116.033 69.3431 119.699 70.4382 123.783C71.5334 127.868 71.3873 132.186 70.0185 136.187C68.6497 140.188 66.1203 143.691 62.7529 146.249V146.249Z" fill="#3F3D56"/>
<path d="M71.1459 199.859C70.0695 196.766 68.3312 193.944 66.0522 191.591C63.7733 189.239 61.0086 187.411 57.951 186.237C54.8933 185.063 51.6163 184.57 48.3485 184.792C45.0807 185.015 41.9008 185.947 39.0305 187.525C36.1602 189.103 33.6687 191.288 31.7296 193.928C29.7906 196.568 28.4507 199.599 27.8034 202.81C27.1562 206.021 27.2171 209.335 27.982 212.52C28.7469 215.705 30.1974 218.685 32.2322 221.252C32.4308 221.506 32.645 221.761 32.859 222.006C32.8712 222.024 32.8849 222.041 32.8998 222.057C33.4275 222.664 33.9888 223.24 34.5812 223.784C34.7339 223.927 34.8919 224.075 35.0551 224.212C35.3607 224.487 35.6766 224.747 36.0078 224.997C36.1352 225.099 36.2626 225.201 36.3952 225.298C36.9097 225.69 37.4498 226.052 38.0002 226.403C38.0096 226.404 38.0187 226.407 38.0256 226.414C38.1836 226.51 38.3468 226.607 38.5097 226.699C38.6625 226.791 38.8205 226.882 38.9735 226.969C39.1161 227.046 39.2537 227.122 39.3965 227.198L39.5848 227.295C40.0232 227.519 40.4663 227.734 40.9251 227.932C40.9759 227.958 41.0321 227.978 41.0881 228.004C41.1289 228.019 41.1697 228.039 41.2102 228.055C41.2204 228.06 41.2256 228.06 41.2306 228.065C41.4446 228.151 41.6588 228.238 41.8777 228.32C42.5948 228.594 43.3263 228.828 44.0689 229.023C45.2644 229.344 46.4848 229.564 47.7171 229.68C48.4356 229.746 49.1542 229.782 49.8777 229.782C50.5962 229.782 51.2993 229.746 52.0024 229.68C52.2318 229.66 52.461 229.634 52.6904 229.609C54.0522 229.437 55.3959 229.144 56.7055 228.732C56.7094 228.732 56.713 228.73 56.7157 228.727C57.6837 228.421 58.6288 228.046 59.5438 227.606C59.5488 227.601 59.5538 227.601 59.559 227.596C59.7628 227.499 59.9615 227.397 60.1653 227.295C60.1986 227.28 60.2309 227.263 60.2621 227.244C60.4251 227.163 60.5883 227.076 60.7463 226.99C60.9092 226.903 61.0671 226.811 61.22 226.714C61.3832 226.628 61.536 226.531 61.694 226.434C61.7756 226.383 61.8571 226.332 61.9385 226.281C62.0507 226.215 62.1525 226.149 62.2647 226.072C62.4175 225.975 62.5705 225.868 62.718 225.761C62.9168 225.624 63.1156 225.481 63.3092 225.333C63.3744 225.291 63.4374 225.245 63.4978 225.196C67.2818 222.319 70.0592 218.319 71.4329 213.769C72.8066 209.218 72.7061 204.349 71.1459 199.859L71.1459 199.859ZM62.7539 224.212C62.6213 224.319 62.4837 224.421 62.3463 224.513C62.2085 224.615 62.0761 224.712 61.9386 224.803C61.8214 224.885 61.7042 224.966 61.582 225.043C61.5709 225.053 61.5589 225.061 61.5462 225.068C61.4596 225.13 61.3678 225.186 61.2812 225.242C61.22 225.277 61.1591 225.318 61.0979 225.354C60.9195 225.466 60.7411 225.573 60.5577 225.675C60.4609 225.736 60.3589 225.792 60.2622 225.848C60.2266 225.868 60.1907 225.889 60.1551 225.909C59.9971 225.996 59.8444 226.072 59.6914 226.154C59.6712 226.169 59.6456 226.174 59.6304 226.189C59.6209 226.19 59.6118 226.193 59.6048 226.2C59.4112 226.302 59.2124 226.398 59.0139 226.49C58.2488 226.858 57.4607 227.177 56.6545 227.443C56.5527 227.479 56.4458 227.52 56.3438 227.55C55.0443 227.962 53.7082 228.249 52.354 228.406C52.2012 228.427 52.0432 228.442 51.8853 228.457C51.2229 228.518 50.5554 228.549 49.8777 228.549C49.2763 228.549 48.67 228.523 48.0739 228.472C46.8276 228.369 45.593 228.154 44.3849 227.83C43.4653 227.591 42.5644 227.284 41.6894 226.913C41.6434 226.893 41.5976 226.877 41.5519 226.857C41.5009 226.837 41.46 226.821 41.4143 226.801C41.3633 226.781 41.3225 226.76 41.2715 226.735C40.9403 226.592 40.6091 226.434 40.2882 226.271C40.2422 226.246 40.1964 226.225 40.1506 226.2L39.9722 226.108C39.8652 226.052 39.7583 225.996 39.6563 225.94C39.3149 225.756 38.9785 225.558 38.6526 225.354C38.5302 225.277 38.3978 225.196 38.2754 225.114L38.1836 225.053C37.8982 224.859 37.6131 224.666 37.3327 224.457C37.1441 224.314 36.9505 224.177 36.7672 224.029C36.4564 223.794 36.1556 223.545 35.8653 223.285C35.7123 223.157 35.5595 223.015 35.417 222.882C34.8432 222.354 34.3004 221.792 33.7915 221.201C33.6234 221.007 33.4552 220.813 33.2972 220.61C33.2616 220.569 33.231 220.528 33.1952 220.482C30.5683 217.168 28.9881 213.146 28.6561 208.929C28.3242 204.713 29.2555 200.493 31.3313 196.808C33.4071 193.123 36.5333 190.14 40.3113 188.24C44.0892 186.339 48.3477 185.607 52.5435 186.136C56.7393 186.666 60.6824 188.433 63.8698 191.213C67.0571 193.992 69.3444 197.659 70.4398 201.744C71.5353 205.829 71.3893 210.147 70.0204 214.149C68.6515 218.151 66.1218 221.654 62.754 224.212H62.7539Z" fill="#3F3D56"/>
<path d="M87.5525 89.834C79.7117 83.2173 70.1168 79.0224 59.9356 77.7598C49.7543 76.4971 39.4255 78.2212 30.2061 82.7221C20.9868 87.2231 13.2743 94.3069 8.00716 103.112C2.74004 111.916 0.145403 122.062 0.538967 132.315C0.932531 142.567 4.29733 152.484 10.2239 160.859C16.1505 169.234 24.3834 175.706 33.9207 179.486C43.4579 183.267 53.8885 184.194 63.943 182.155C73.9975 180.115 83.2425 175.197 90.553 167.998L155.469 222.779C156.457 223.609 157.735 224.014 159.021 223.905C160.307 223.795 161.498 223.18 162.331 222.194C163.165 221.208 163.573 219.932 163.467 218.645C163.362 217.358 162.75 216.166 161.766 215.33L161.759 215.323L96.843 160.543C104.384 149.719 107.612 136.469 105.893 123.389C104.175 110.309 97.6338 98.3423 87.5525 89.834ZM83.3676 155.268C78.3103 161.262 71.5894 165.622 64.0546 167.796C56.5199 169.97 48.5098 169.86 41.0372 167.481C33.5646 165.103 26.9653 160.561 22.0736 154.431C17.1819 148.301 14.2176 140.859 13.5556 133.044C12.8936 125.229 14.5636 117.394 18.3544 110.528C22.1452 103.663 27.8866 98.0759 34.8525 94.4737C41.8184 90.8715 49.6959 89.416 57.489 90.2912C65.282 91.1664 72.6406 94.3331 78.634 99.3907C86.671 106.173 91.6848 115.87 92.5726 126.349C93.4603 136.828 90.1491 147.231 83.3676 155.268Z" fill="#3F3D56"/>
<path opacity="0.3" d="M27.4922 160.002C19.8858 153.583 14.9714 144.537 13.725 134.662C12.4785 124.787 14.9912 114.804 20.7639 106.695C20.0058 107.459 19.2729 108.259 18.5653 109.094C15.2074 113.074 12.6662 117.676 11.0868 122.638C9.5074 127.6 8.92073 132.825 9.36028 138.014C9.79984 143.202 11.257 148.254 13.6486 152.879C16.0402 157.505 19.3193 161.614 23.2988 164.972C27.2783 168.33 31.8803 170.872 36.8419 172.451C41.8035 174.031 47.0276 174.617 52.2159 174.178C57.4042 173.738 62.4552 172.281 67.0804 169.889C71.7055 167.497 75.8144 164.218 79.1723 160.238C79.8783 159.401 80.5432 158.544 81.167 157.667C74.146 164.722 64.7288 168.878 54.7853 169.311C44.8418 169.744 35.0993 166.421 27.4922 160.002Z" fill="black"/>
<path d="M218.427 224.826C218.934 224.207 219.299 223.484 219.496 222.709C219.694 221.933 219.719 221.124 219.57 220.338C219.421 219.551 219.101 218.807 218.634 218.158C218.166 217.508 217.562 216.97 216.863 216.579L205.03 168.144L196.398 170.899L209.176 219.004C208.597 220.221 208.486 221.608 208.862 222.902C209.238 224.196 210.075 225.307 211.215 226.025C212.356 226.742 213.72 227.017 215.049 226.796C216.378 226.575 217.58 225.874 218.427 224.826H218.427Z" fill="#FFB6B6"/>
<path d="M212.307 193.845L205.999 199.288L197.174 206.896L193.276 186.951L192.868 184.877L192.547 183.231L201.489 167.653L208.944 168.081L209.454 168.111L209.464 168.224L209.581 169.269L211.11 183.017L211.145 183.348L212.307 193.845Z" fill="#3F3D56"/>
<path d="M171.078 329.229L164.832 329.228L161.859 305.131L171.08 305.131L171.078 329.229Z" fill="#FFB6B6"/>
<path d="M172.666 335.285L152.523 335.284V335.029C152.524 332.95 153.35 330.955 154.82 329.485C156.29 328.015 158.284 327.189 160.364 327.188H160.364L172.666 327.189L172.666 335.285Z" fill="#2F2E41"/>
<path d="M236.297 329.738L230.05 329.738L227.078 305.641L236.298 305.641L236.297 329.738Z" fill="#FFB6B6"/>
<path d="M237.893 335.794L217.75 335.794V335.539C217.75 333.459 218.576 331.465 220.046 329.995C221.517 328.524 223.511 327.698 225.59 327.698H225.591L237.893 327.699L237.893 335.794Z" fill="#2F2E41"/>
<path d="M241.293 320.146L224.478 322.694L200.015 239.897L174.033 323.204L155.18 320.656L179.638 223.835V216.191L182.95 204.725L182.603 201.622L180.193 179.919L179.149 170.507L179.081 169.899C179.024 169.389 179.159 168.876 179.46 168.459C179.761 168.043 180.206 167.754 180.708 167.648L188.555 165.997H201.38L208.947 168.081L209.467 168.224L209.701 168.29L209.584 169.269L207.811 184.138L207.714 184.954L206.002 199.288L205.625 202.432C220.401 213.134 220.911 223.835 220.911 223.835L241.293 320.146Z" fill="#2F2E41"/>
<path d="M193.413 159.549C200.325 159.549 205.928 153.946 205.928 147.033C205.928 140.121 200.325 134.518 193.413 134.518C186.502 134.518 180.898 140.121 180.898 147.033C180.898 153.946 186.502 159.549 193.413 159.549Z" fill="#FFB6B6"/>
<path d="M206.562 199.556L181.805 202.794L182.267 206.331L207.024 203.093L206.562 199.556Z" fill="#3F3D56"/>
<path d="M148.599 203.86C148.836 204.013 149.06 204.185 149.27 204.373L173.757 198.13L175.427 192.223L184.672 193.579L182.731 204.325C182.574 205.193 182.14 205.987 181.494 206.587C180.847 207.187 180.024 207.562 179.146 207.654L150.555 210.665C150.089 211.647 149.336 212.463 148.395 213.005C147.453 213.547 146.37 213.79 145.287 213.702C144.204 213.613 143.175 213.197 142.334 212.509C141.494 211.82 140.883 210.892 140.583 209.848C140.283 208.804 140.308 207.694 140.654 206.664C141.001 205.635 141.653 204.735 142.523 204.085C143.393 203.435 144.44 203.065 145.526 203.025C146.611 202.985 147.683 203.276 148.599 203.86Z" fill="#FFB6B6"/>
<path d="M186.261 170.838L181.93 167.526C180.759 167.081 179.154 168.343 178.872 169.564L172.758 194.534L185.496 203.706L187.28 200.903L186.261 170.838Z" fill="#3F3D56"/>
<g opacity="0.2">
<path d="M211.114 183.017C210.033 183.446 208.931 183.82 207.812 184.138C207.455 184.245 207.088 184.347 206.726 184.444C204.342 185.106 201.891 185.502 199.419 185.626C198.355 185.671 197.29 185.642 196.23 185.54C195.092 185.426 193.968 185.204 192.872 184.877C192.836 184.867 192.795 184.857 192.76 184.847C190.481 184.2 188.393 183.013 186.671 181.386C186.286 181.012 185.927 180.612 185.596 180.189C184.644 179.024 183.946 177.673 183.546 176.222C183.146 174.772 183.053 173.254 183.272 171.766C183.315 171.496 183.372 171.229 183.445 170.965C183.637 170.248 183.891 169.549 184.204 168.876C184.342 168.56 184.495 168.249 184.658 167.944L190.416 165.997H201.381L208.948 168.081L209.458 168.112L209.468 168.224L209.702 168.29L209.585 169.269L211.114 183.017Z" fill="black"/>
</g>
<path d="M183.825 136.672C181.484 136.385 178.916 136.588 177.092 138.082C175.268 139.576 174.679 142.682 176.406 144.288C177.935 145.709 180.326 145.375 182.374 145.779C184.138 146.174 185.719 147.15 186.863 148.551C188.007 149.951 188.648 151.695 188.684 153.503C188.654 158.687 183.678 162.613 182.785 167.72C182.175 171.206 183.645 174.874 186.186 177.336C188.727 179.798 192.22 181.129 195.74 181.489C199.26 181.849 202.819 181.299 206.24 180.395C209.675 179.487 213.056 178.198 215.939 176.12C218.821 174.042 221.183 171.113 222.109 167.683C223.034 164.252 222.37 160.319 219.985 157.685C217.254 154.669 212.712 153.631 210.35 150.318C207.702 146.605 208.682 141.316 206.539 137.29C205.108 134.602 202.399 132.768 199.511 131.802C196.623 130.836 193.54 130.646 190.496 130.552C188.896 130.503 187.248 130.487 185.757 131.07C184.267 131.653 182.957 132.982 182.879 134.581C182.802 136.18 183.825 136.672 183.825 136.672Z" fill="#2F2E41"/>
<path d="M300.99 336H106.853C106.718 336 106.589 335.946 106.493 335.85C106.397 335.755 106.344 335.625 106.344 335.49C106.344 335.355 106.397 335.225 106.493 335.13C106.589 335.034 106.718 334.98 106.853 334.98H300.99C301.125 334.98 301.254 335.034 301.35 335.13C301.446 335.225 301.499 335.355 301.499 335.49C301.499 335.625 301.446 335.755 301.35 335.85C301.254 335.946 301.125 336 300.99 336Z" fill="#CACACA"/>
</g>
<defs>
<clipPath id="clip0_2685_50332">
<rect width="301" height="336" fill="white" transform="translate(0.5)"/>
</clipPath>
</defs>
</svg>
