<svg width="35" height="35" viewBox="0 0 35 35" fill="none" xmlns="http://www.w3.org/2000/svg">
<path d="M8.49997 15.9999H13.4999C13.7761 15.9999 13.9999 15.7761 13.9999 15.5C13.9999 15.2239 13.776 15 13.4999 15H8.49997C8.22381 15 8 15.2239 8 15.5C8 15.7761 8.22386 15.9999 8.49997 15.9999Z" fill="white"/>
<path d="M8.49997 17.9999H13.4999C13.7761 17.9999 13.9999 17.7761 13.9999 17.5C13.9999 17.2238 13.776 17 13.4999 17H8.49997C8.22381 17 8 17.2239 8 17.5C8 17.7761 8.22386 17.9999 8.49997 17.9999Z" fill="white"/>
<path d="M13.4999 19.9999C13.7761 19.9999 13.9999 19.7761 13.9999 19.5C13.9999 19.2239 13.776 19 13.4999 19H8.49997C8.22381 19 8 19.2239 8 19.5C8 19.7761 8.22386 19.9999 8.49997 19.9999H13.4999Z" fill="white"/>
<path d="M28.5 3H26.5C26.2238 3 26 3.22386 26 3.49997V26.9935C26 28.6487 24.652 30 23 30H15.5C13.8466 30 12.4999 28.6533 12.4999 27C13.0526 27 13.5 26.5525 13.5 25.9999V24.9999C13.7761 24.9999 13.9999 24.7761 13.9999 24.5C13.9999 24.2238 13.7761 24 13.5 24V22.9056C14.7547 22.4463 15.9999 20.3856 15.9999 18.5001V8.5C15.9999 8.22383 15.7761 8.00003 15.5 8.00003H14V4.00001C14 3.44737 13.5526 3 13 3H8.99996C8.44732 3 7.99995 3.44737 7.99995 4.00001V8.00003H6.49997C6.22381 8.00003 6 8.22389 6 8.5V18.5C6 20.375 7.24746 22.4428 8.49998 22.9047V23.9999C8.22382 23.9999 8.00001 24.2238 8.00001 24.4999C8.00001 24.7761 8.22388 24.9999 8.49998 24.9999V25.9998C8.49998 26.5525 8.94736 26.9998 9.49999 26.9998C9.49999 30.3085 12.1914 32.9999 15.5 32.9999H23C26.3077 32.9999 28.9999 30.3034 28.9999 26.9934V3.49997C28.9999 3.22386 28.7761 3 28.5 3ZM9.00002 4.00001H13V8.00003H9.00002V4.00001ZM7.00001 18.5V8.99997H8.49998H13.5H14.9999V18.4999C14.9999 20.1484 13.7469 21.9993 13.0003 21.9999C13.0002 21.9999 13.0005 21.9999 13.0003 21.9999H8.9999C8.99978 21.9999 9.00002 21.9999 8.9999 21.9999C8.25783 21.9993 7.00001 20.1373 7.00001 18.5ZM9.49999 23H12.5V24H9.49999V23ZM12.5 24.9999V25.9999H9.49999V24.9999H12.5ZM28 26.9935C28 29.7516 25.7551 32 23 32H15.5C12.7436 32 10.5 29.7563 10.5 27H11.5C11.5 29.2057 13.2944 31 15.5 31H23C25.2049 31 27.0001 29.2005 27.0001 26.9935V4.00001H28.0001L28 26.9935Z" fill="white"/>
</svg>
