<svg width="35" height="35" viewBox="0 0 35 35" fill="none" xmlns="http://www.w3.org/2000/svg">
<path d="M1.68426 13.9792H3.178L4.40364 11.5662C5.20797 10.0341 6.93152 9 8.84658 9H19.1496C20.4135 9 21.6392 9.45961 22.5584 10.2639L26.8481 14.0175L31.4826 14.8601C33.4742 15.2048 34.9297 16.9666 34.9297 18.9966V20.1839C34.9297 20.9883 34.2786 21.6394 33.4742 21.6394H30.1803C29.8356 23.1714 28.4568 24.2822 26.8481 24.2822C25.2395 24.2822 23.8606 23.1714 23.5159 21.6394H10.0339C9.68921 23.1714 8.31036 24.2822 6.70171 24.2822C5.09306 24.2822 3.71422 23.1714 3.36951 21.6394H0.458618C0.228813 21.6394 0.0756073 21.4862 0.0756073 21.2564V15.6644C0.0373039 14.7452 0.76503 13.9792 1.68426 13.9792ZM26.8098 23.5545C28.1504 23.5545 29.2994 22.5586 29.4526 21.2181C29.4526 21.1032 29.4909 20.9883 29.4909 20.8734C29.4909 19.4179 28.3036 18.2306 26.8481 18.2306C25.3927 18.2306 24.2054 19.4179 24.2054 20.8734C24.2054 20.9883 24.2054 21.1032 24.2437 21.2181C24.3586 22.5586 25.5076 23.5545 26.8098 23.5545ZM6.66341 23.5545C8.00395 23.5545 9.11469 22.5586 9.30619 21.2181C9.30619 21.1032 9.3445 20.9883 9.3445 20.8734C9.3445 19.4179 8.15716 18.2306 6.70171 18.2306C5.51438 18.2306 4.51855 19.0349 4.17384 20.1073C4.09723 20.3755 4.05893 20.6053 4.05893 20.9117C4.05893 21.0266 4.05893 21.1415 4.09723 21.2564C4.21214 22.5586 5.36117 23.5545 6.66341 23.5545ZM0.803329 20.8734H3.25461C3.25461 18.9966 4.78665 17.4646 6.66341 17.4646C8.54017 17.4646 10.0722 18.9966 10.0722 20.8734H23.401C23.401 18.9966 24.9331 17.4646 26.8098 17.4646C28.6866 17.4646 30.2186 18.9966 30.2186 20.8734H33.3976C33.7807 20.8734 34.0871 20.567 34.0871 20.1839V18.9966C34.0871 17.3497 32.8997 15.8942 31.2528 15.6261L26.58 14.7452C26.5417 14.7452 26.5034 14.7069 26.4651 14.7069L10.9914 14.7452C9.76581 14.7452 8.54017 14.4388 7.46774 13.9026L5.55268 12.945L5.89739 12.2556L7.81245 13.2131C8.80828 13.711 9.88071 13.9792 10.9914 13.9792H13.4427V11.6811H14.2087V13.9792H25.5842L22.0222 10.8385C21.2562 10.149 20.1837 9.76602 19.1113 9.76602H8.84658C7.23793 9.76602 5.74418 10.6086 5.09306 11.9109L3.75252 14.5537C3.67592 14.6686 3.56102 14.7452 3.40781 14.7452H1.68426C1.18634 14.7452 0.803329 15.1282 0.803329 15.6261V20.8734Z" fill="white"/>
</svg>
