<svg width="35" height="35" viewBox="0 0 35 35" fill="none" xmlns="http://www.w3.org/2000/svg">
<path d="M23.2745 30.6096L23.2747 30.6099H23.379C24.2889 30.6099 25.0289 29.8698 25.0288 28.9597C25.0288 28.9596 25.0288 28.9596 25.0288 28.9596V5.99961C25.0288 5.08964 24.2887 4.34961 23.3788 4.34961H11.6187C10.7088 4.34961 9.96875 5.08964 9.96875 5.99961V28.9597C9.96875 29.8696 10.7088 30.6096 11.6187 30.6096H23.2745ZM11.0287 5.99966C11.0287 5.67464 11.2937 5.40961 11.6187 5.40961H23.3788C23.7038 5.40961 23.9688 5.67464 23.9688 5.99966V28.9597C23.9688 29.2847 23.7038 29.5497 23.3788 29.5497H11.6187C11.2937 29.5497 11.0287 29.2847 11.0287 28.9597V5.99966Z" fill="white" stroke="white" stroke-width="0.5"/>
<path d="M15.5703 12.7552C15.5703 13.8301 16.4322 14.7109 17.5004 14.7109C18.5687 14.7109 19.4305 13.8301 19.4305 12.755V8.76229C19.4305 7.68742 18.5687 6.80664 17.5004 6.80664C16.4322 6.80664 15.5703 7.68736 15.5703 8.76229V12.7552ZM16.6305 8.76209C16.6305 8.26306 17.0261 7.86639 17.5004 7.86639C17.9747 7.86639 18.3703 8.26306 18.3703 8.76209V12.7548C18.3703 13.2539 17.9747 13.6505 17.5004 13.6505C17.0263 13.6505 16.6305 13.2538 16.6305 12.7548V8.76209Z" fill="white" stroke="white" stroke-width="0.5"/>
</svg>
