<svg width="35" height="35" viewBox="0 0 35 35" fill="none" xmlns="http://www.w3.org/2000/svg">
<path d="M28.368 18.4213H27.7938V8.14275C27.7938 6.3 26.2948 4.80075 24.4518 4.80075C22.6086 4.80055 21.1104 6.29995 21.1104 8.14275V27.0538C21.1104 28.9542 19.5645 30.5003 17.6645 30.5003C15.7641 30.5003 14.218 28.9544 14.218 27.0538V18.4483C15.1645 18.3787 15.8518 17.9608 15.875 17.417C15.8762 17.4072 15.8809 17.3988 15.8809 17.3887V16.7986H17.0246C17.9604 16.7986 18.3592 15.9654 18.4389 15.5246C18.4406 15.5162 18.4377 15.5084 18.4383 15.5C18.4391 15.491 18.4436 15.4834 18.4436 15.4746L18.4438 6.46913C18.4439 6.46542 18.4459 6.4621 18.4459 6.45819C18.4459 6.4328 18.4037 3.90039 14.7485 3.90039H11.3297C11.1752 3.90039 11.0496 4.02578 11.0496 4.18047V5.03927H9.71602C9.56153 5.03927 9.43594 5.16466 9.43594 5.31935V6.15315L6.63164 6.15296C6.47715 6.15296 6.35156 6.27835 6.35156 6.43304C6.35156 6.58753 6.47695 6.71312 6.63164 6.71312H9.43634V9.57307L6.63164 9.57287C6.47715 9.57287 6.35156 9.69826 6.35156 9.85295C6.35156 10.0074 6.47695 10.133 6.63164 10.133H9.43634V10.9668C9.43634 11.1213 9.56173 11.2469 9.71642 11.2469H11.05V16.5189C11.05 16.6734 11.1754 16.799 11.3301 16.799H11.9993V17.389C11.9993 17.9464 12.6956 18.3777 13.6587 18.4482V27.0542C13.6587 29.2634 15.4559 31.0607 17.6651 31.0607C19.8741 31.0607 21.6712 29.2634 21.6712 27.0542V8.14324C21.6712 6.60904 22.9192 5.36119 24.453 5.36119C25.9872 5.36119 27.2351 6.60924 27.2351 8.14324V18.4217H26.6609C26.506 18.4217 26.3808 18.5469 26.3808 18.7018V20.9799C26.3808 21.1348 26.506 21.26 26.6609 21.26H26.7925V22.6173C26.7925 22.7721 26.9177 22.8973 27.0726 22.8973H27.9585C28.1134 22.8973 28.2386 22.7721 28.2386 22.6173V21.26H28.3697C28.5245 21.26 28.6497 21.1348 28.6497 20.9799V18.7018C28.6482 18.5473 28.523 18.4217 28.3681 18.4217L28.368 18.4213ZM11.05 10.6863H9.99626V5.59875H11.05V10.6863ZM13.6978 4.46025H14.7484C17.7543 4.46025 17.8805 6.28855 17.8855 6.44855C17.8855 6.45187 17.8836 6.4548 17.8836 6.45812V15.4446C17.8545 15.5729 17.6707 16.2384 17.0248 16.2384H13.6978L13.6978 4.46025ZM11.6099 16.2383V4.46025H13.1379V16.2383H11.6099ZM12.5591 17.3885V16.7984H15.321V17.3721C15.3208 17.3779 15.3177 17.3826 15.3177 17.3883C15.3177 17.5615 14.8308 17.899 13.9382 17.899C13.0456 17.8992 12.5591 17.5619 12.5591 17.3885ZM27.6771 22.3363H27.3511V21.2592H27.6771V22.3363ZM28.088 20.6992H26.9394V18.9811H28.088V20.6992Z" fill="white"/>
</svg>
