<svg width="35" height="35" viewBox="0 0 35 35" fill="none" xmlns="http://www.w3.org/2000/svg">
<path fill-rule="evenodd" clip-rule="evenodd" d="M17.8941 7.84159C12.3358 7.84159 7.82987 12.3475 7.82987 17.9059C7.82987 23.4642 12.3358 27.9701 17.8941 27.9701C23.4525 27.9701 27.9584 23.4642 27.9584 17.9059C27.9584 12.3475 23.4525 7.84159 17.8941 7.84159ZM6 17.9059C6 11.3369 11.3252 6.01172 17.8941 6.01172C24.4631 6.01172 29.7883 11.3369 29.7883 17.9059C29.7883 24.4748 24.4631 29.8 17.8941 29.8C11.3252 29.8 6 24.4748 6 17.9059Z" fill="white"/>
<path d="M13.7708 19.278C14.5288 19.278 15.1432 18.6636 15.1432 17.9056C15.1432 17.1476 14.5288 16.5332 13.7708 16.5332C13.0129 16.5332 12.3984 17.1476 12.3984 17.9056C12.3984 18.6636 13.0129 19.278 13.7708 19.278Z" fill="white"/>
<path d="M22.0169 19.278C22.7749 19.278 23.3893 18.6636 23.3893 17.9056C23.3893 17.1476 22.7749 16.5332 22.0169 16.5332C21.259 16.5332 20.6445 17.1476 20.6445 17.9056C20.6445 18.6636 21.259 19.278 22.0169 19.278Z" fill="white"/>
<path fill-rule="evenodd" clip-rule="evenodd" d="M14.1021 21.9811C14.3816 21.5602 14.9495 21.4456 15.3704 21.7251C16.1186 22.222 16.9968 22.4871 17.895 22.4871C18.7931 22.4871 19.6713 22.222 20.4195 21.7251C20.8405 21.4456 21.4083 21.5602 21.6879 21.9811C21.9674 22.402 21.8528 22.9699 21.4319 23.2494C20.3837 23.9456 19.1533 24.3169 17.895 24.3169C16.6366 24.3169 15.4063 23.9456 14.3581 23.2494C13.9371 22.9699 13.8225 22.402 14.1021 21.9811Z" fill="white"/>
<path fill-rule="evenodd" clip-rule="evenodd" d="M18.4687 6.19857C18.8633 6.51423 18.9272 7.08999 18.6116 7.48457C17.7908 8.51058 17.3829 9.53313 17.1801 10.2938C17.0786 10.6741 17.0291 10.9869 17.0049 11.1984C16.9928 11.304 16.9871 11.3839 16.9845 11.4337C16.9832 11.4585 16.9826 11.4758 16.9824 11.485C16.9823 11.4878 16.9822 11.4898 16.9822 11.4911C16.9831 11.7325 17.0794 11.9639 17.2502 12.1346C17.4218 12.3062 17.6545 12.4026 17.8971 12.4026C18.1398 12.4026 18.3725 12.3062 18.5441 12.1346C18.7157 11.9631 18.8121 11.7303 18.8121 11.4877C18.8121 10.9824 19.2217 10.5727 19.727 10.5727C20.2323 10.5727 20.6419 10.9824 20.6419 11.4877C20.6419 12.2156 20.3528 12.9138 19.838 13.4285C19.3233 13.9433 18.6251 14.2325 17.8971 14.2325C17.1692 14.2325 16.471 13.9433 15.9563 13.4285C15.4415 12.9138 15.1523 12.2156 15.1523 11.4877H16.0673C15.1523 11.4877 15.1523 11.4873 15.1523 11.4869L15.1523 11.4861L15.1523 11.4844L15.1524 11.4802L15.1525 11.4694C15.1526 11.4611 15.1528 11.4505 15.1531 11.4378C15.1538 11.4124 15.155 11.3783 15.1572 11.3362C15.1617 11.252 15.1703 11.1352 15.1869 10.9907C15.2199 10.7018 15.2846 10.2998 15.412 9.82235C15.6666 8.86756 16.1736 7.60278 17.1827 6.34146C17.4984 5.94688 18.0741 5.88291 18.4687 6.19857Z" fill="white"/>
</svg>
