<svg width="35" height="35" viewBox="0 0 35 35" fill="none" xmlns="http://www.w3.org/2000/svg">
<path d="M26.79 23.4388V10.4653H26.79V10.3096V9.01101C26.79 6.3083 24.7752 4.0943 22.2624 4.0943H12.7236H12.7234C10.2106 4.0943 8.19586 6.3083 8.19586 9.01101V10.3096V10.4653H8.19604V23.4388C8.19604 26.1415 10.2108 28.3557 12.7236 28.3557H22.2624C24.7752 28.3557 26.79 26.1415 26.79 23.4388ZM8.77232 23.4387V10.7538H26.2137L26.2138 23.4387C26.2138 25.8357 24.4325 27.7556 22.2625 27.7556H12.7237C10.5537 27.7556 8.77232 25.8357 8.77232 23.4387ZM22.2624 4.6943C24.4324 4.6943 26.2137 6.61414 26.2137 9.01101L26.2137 9.86535H8.77223V9.01101C8.77223 6.61414 10.5536 4.6943 12.7236 4.6943H22.2624Z" fill="white" stroke="white" stroke-width="0.3114"/>
<path d="M21.6492 10.4414V10.2857H21.4935H13.6481H13.4924H13.4922V10.4414H13.3367C13.3367 11.1427 13.8756 11.7268 14.5591 11.7268H20.4267C21.1102 11.7268 21.6492 11.1427 21.6492 10.4414Z" fill="white" stroke="white" stroke-width="0.3114"/>
</svg>
