<svg width="35" height="35" viewBox="0 0 35 35" fill="none" xmlns="http://www.w3.org/2000/svg">
<path d="M23.0788 4.25H22.0072L21.6173 5.15295C21.5348 5.35086 21.3415 5.44642 21.1271 5.44642H14.2353C14.0207 5.44642 13.8274 5.35086 13.7451 5.15295L13.3552 4.25H12.2596C10.9463 4.25 9.69922 5.09428 9.69922 6.40732V28.2202C9.69922 29.5335 10.9463 30.7564 12.2596 30.7564H23.1027C24.416 30.7564 25.2535 29.5336 25.2535 28.2202L25.2533 6.40732C25.2533 5.09403 24.392 4.25 23.0787 4.25H23.0788ZM24.3329 28.2204C24.3329 28.9532 23.9165 29.7443 23.1023 29.7443L12.2598 29.7445C11.4612 29.7445 10.6198 28.9866 10.6198 28.2207L10.6196 6.40781C10.6196 5.61134 11.5094 5.17064 12.2596 5.17064H12.7245L12.8681 5.49005C13.0958 6.03478 13.6325 6.3673 14.2355 6.3673H21.1266C21.7291 6.3673 22.2656 6.03551 22.4938 5.49154L22.6379 5.17091L22.659 5.12022L22.9927 5.12362C23.7702 5.12362 24.3332 5.61135 24.3332 6.4081L24.3329 28.2204Z" fill="white"/>
<path d="M22.6452 12.2541L18.7455 8.35418C18.5597 8.1684 18.2587 8.1684 18.0729 8.35418C17.8871 8.53996 17.8871 8.84094 18.0729 9.02672L21.9726 12.9264C22.0655 13.0193 22.1873 13.0659 22.3088 13.0659C22.4305 13.0659 22.5523 13.0193 22.6449 12.9264C22.831 12.7409 22.831 12.4397 22.6452 12.2541L22.6452 12.2541Z" fill="white"/>
<path d="M22.4816 10.5797C22.5745 10.6726 22.6963 10.7191 22.8178 10.7191C22.9395 10.7191 23.0613 10.6726 23.1539 10.5797C23.3397 10.3939 23.3397 10.0929 23.1539 9.90713L21.0931 7.84637C20.9074 7.66059 20.6064 7.66059 20.4206 7.84637C20.2348 8.03215 20.2348 8.33312 20.4206 8.5189L22.4816 10.5797Z" fill="white"/>
</svg>
