<svg width="35" height="35" viewBox="0 0 35 35" fill="none" xmlns="http://www.w3.org/2000/svg">
<path d="M30.5751 18.9506C30.2438 11.198 24.5893 5 17.6667 5C10.744 5 5.08957 11.198 4.75827 18.9506C3.74024 19.2974 3 20.2551 3 21.3922V28.2941C3 29.7211 4.15608 30.8824 5.57788 30.8824H8.17647V29.1569H9.90196V20.5294H8.17647V18.8039H6.48894C6.87718 12.0711 11.7344 6.72549 17.6667 6.72549C23.5989 6.72549 28.4562 12.0711 28.8444 18.8039H27.1569V20.5294H25.4314V29.1569H27.1569V30.8824H29.7555C31.1773 30.8824 32.3333 29.7211 32.3333 28.2941V21.3922C32.3333 20.2551 31.5931 19.2974 30.5751 18.9506ZM6.45098 29.1569H5.57788C5.10855 29.1569 4.72549 28.7686 4.72549 28.2941V21.3922C4.72549 20.9176 5.10855 20.5294 5.57788 20.5294H6.45098V29.1569ZM30.6078 28.2941C30.6078 28.7686 30.2248 29.1569 29.7555 29.1569H28.8824V20.5294H29.7555C30.2248 20.5294 30.6078 20.9176 30.6078 21.3922V28.2941Z" fill="white"/>
</svg>
