<svg width="35" height="35" viewBox="0 0 35 35" fill="none" xmlns="http://www.w3.org/2000/svg">
<g clip-path="url(#clip0_3209_15720)">
<path d="M7.90344 18.0537H7.33879C7.02707 18.0537 6.77434 17.801 6.77434 17.489C6.77434 17.1773 7.02708 16.9246 7.33879 16.9246H7.90344V13.5375H0.564449C0.25273 13.5375 0 13.2848 0 12.973C0 12.6613 0.252735 12.4086 0.564449 12.4086H7.95894C8.21871 11.1203 9.35874 10.1504 10.7255 10.1504H18.065C19.4322 10.1504 20.5723 11.1197 20.8318 12.4086H34.4358C34.7475 12.4086 35.0003 12.6613 35.0003 12.973C35.0003 13.2848 34.7475 13.5375 34.4358 13.5375H20.8873V21.441H34.4358C34.7475 21.441 35.0003 21.6937 35.0003 22.0054C35.0003 22.3172 34.7475 22.5699 34.4358 22.5699H20.8318C20.5721 23.8582 19.4318 24.8281 18.065 24.8281H10.7255C9.35854 24.8281 8.21849 23.8587 7.95894 22.5699H0.564449C0.25273 22.5699 0 22.3172 0 22.0054C0 21.6937 0.252735 21.441 0.564449 21.441H7.90344V18.0537ZM9.03234 18.0537V22.0109C9.03234 22.9435 9.78974 23.6988 10.7255 23.6988H18.065C19.0005 23.6988 19.7581 22.9428 19.7581 22.0109V12.9674C19.7581 12.0348 19.0009 11.2795 18.065 11.2795H10.7255C9.79014 11.2795 9.03234 12.0356 9.03234 12.9674V16.9247H14.6773C14.9892 16.9247 15.242 17.1774 15.242 17.4891C15.242 17.8011 14.9892 18.0538 14.6773 18.0538L9.03234 18.0537ZM29.9193 19.1826C28.984 19.1826 28.2258 18.4244 28.2258 17.489C28.2258 16.5539 28.984 15.7955 29.9193 15.7955C30.8547 15.7955 31.6129 16.5539 31.6129 17.489C31.6129 18.4244 30.8547 19.1826 29.9193 19.1826ZM29.9193 18.0537C30.231 18.0537 30.4838 17.801 30.4838 17.489C30.4838 17.1773 30.231 16.9246 29.9193 16.9246C29.6076 16.9246 29.3549 17.1773 29.3549 17.489C29.3549 17.801 29.6076 18.0537 29.9193 18.0537ZM24.8388 19.1826C23.9035 19.1826 23.1453 18.4244 23.1453 17.489C23.1453 16.5539 23.9035 15.7955 24.8388 15.7955C25.7742 15.7955 26.5324 16.5539 26.5324 17.489C26.5324 18.4244 25.7742 19.1826 24.8388 19.1826ZM24.8388 18.0537C25.1505 18.0537 25.4035 17.801 25.4035 17.489C25.4035 17.1773 25.1505 16.9246 24.8388 16.9246C24.5271 16.9246 24.2744 17.1773 24.2744 17.489C24.2744 17.801 24.5271 18.0537 24.8388 18.0537Z" fill="white"/>
</g>
<defs>
<clipPath id="clip0_3209_15720">
<rect width="35" height="35" fill="white"/>
</clipPath>
</defs>
</svg>
