<svg width="36" height="36" viewBox="0 0 36 36" fill="none" xmlns="http://www.w3.org/2000/svg">
<path d="M15.3563 21.5673C15.8419 21.929 16.3283 22.292 16.8152 22.6546C16.3069 23.156 15.7977 23.6579 15.2912 24.1589C15.244 24.2073 15.1999 24.2579 15.1536 24.3071L15.178 23.9754C15.2363 23.1731 15.295 22.3696 15.3563 21.5673ZM19.351 14.4941C16.8812 16.052 14.4113 17.6141 11.9402 19.1711C11.89 19.2024 11.8352 19.2269 11.7794 19.2521C12.103 20.2867 12.4266 21.3217 12.7493 22.3571C12.9799 23.0857 13.219 23.8126 13.4372 24.5441C13.5272 24.8476 13.6832 25.01 14.0123 24.9526C14.1036 23.7144 14.191 22.4771 14.2844 21.2386C14.2952 21.0941 14.3123 20.9476 14.3299 20.8031C14.1902 20.723 14.2514 20.5696 14.2999 20.519C14.3852 20.4311 14.4704 20.3416 14.5557 20.2524C14.5862 20.2241 14.6179 20.1954 14.6474 20.1671C14.6903 20.1226 14.7319 20.078 14.7743 20.0338C14.9787 19.8436 15.1823 19.6499 15.3867 19.4587C15.5033 19.3486 15.6212 19.238 15.7382 19.1283C16.0553 18.8313 16.372 18.5347 16.6947 18.2424C17.515 17.4967 18.352 16.7681 19.174 16.0254C20.2219 15.0774 21.2672 14.126 22.3052 13.1673C22.3814 13.0614 22.4307 12.9251 22.4976 12.8086C22.3116 12.8334 22.0934 12.8026 21.9456 12.8896C21.0717 13.4103 20.212 13.9516 19.351 14.4941ZM35.9504 17.9999C35.9504 27.9144 27.913 35.9519 17.9984 35.9519C8.08345 35.9519 0.046875 27.9144 0.046875 17.9999C0.046875 8.08485 8.08345 0.0478516 17.9984 0.0478516C27.913 0.0478516 35.9504 8.08485 35.9504 17.9999ZM26.0149 10.8479C26.0054 10.7793 25.9986 10.709 25.9849 10.6417C25.8267 9.87971 25.4093 9.64956 24.6619 9.90542C24.5522 9.94228 24.4399 9.96628 24.3284 9.99671C23.9114 10.169 23.4987 10.3533 23.0757 10.5114C22.3746 10.7759 21.6666 11.0231 20.9594 11.2781C20.5283 11.4577 20.1002 11.6454 19.6652 11.8156C18.5753 12.2416 17.4833 12.6594 16.3917 13.0811C14.1452 13.9473 11.8982 14.813 9.64988 15.6791C9.14502 15.8741 8.63587 16.0589 8.13616 16.2667C7.69688 16.448 7.24859 16.6237 6.84402 16.8671C6.66488 16.9747 6.46773 17.2576 6.4883 17.4371C6.50802 17.6184 6.7853 17.7736 6.95502 17.9356C6.98587 17.9651 7.03859 17.9746 7.08316 17.9883C8.27416 18.3568 9.46516 18.7254 10.657 19.0931C10.6506 19.2174 10.6647 19.3443 10.7037 19.4699L11.137 20.8597L11.7066 22.6833C11.7734 22.895 11.8407 23.1028 11.9067 23.3107C12.0687 23.8186 12.2372 24.3431 12.3902 24.8566C12.7236 25.9704 13.6227 26.0566 13.8906 26.0566C13.9304 26.0566 13.9729 26.054 14.0149 26.0523C14.056 26.054 14.0972 26.0553 14.1379 26.0553C14.8257 26.0553 15.2676 25.6764 15.5307 25.4497C15.5792 25.4073 15.6254 25.3683 15.6589 25.3426C15.7133 25.3019 15.7643 25.2577 15.808 25.2084C15.8423 25.1728 15.8736 25.136 15.9074 25.1009C15.9627 25.0391 16.0146 24.9813 16.0604 24.9359C16.4603 24.5399 16.8593 24.1451 17.26 23.75L17.7349 23.2816C17.8017 23.3279 17.8686 23.3737 17.9359 23.4196C19.0163 24.2261 20.095 25.0366 21.1793 25.8389C21.9884 26.4371 22.5542 26.282 22.9459 25.3679C23.1126 24.5969 23.2784 23.8241 23.4439 23.0548C23.5956 22.2856 23.7456 21.5184 23.8956 20.7509C23.992 20.3291 24.0872 19.9061 24.1823 19.4848C24.4352 18.2969 24.6876 17.1076 24.9392 15.9191C25.021 15.5399 25.1012 15.161 25.1826 14.7817C25.2023 14.6917 25.2259 14.6013 25.2439 14.5104C25.5019 13.2894 25.7582 12.0693 26.0149 10.8479Z" fill="#292929"/>
</svg>
