<svg width="30" height="30" viewBox="0 0 30 30" fill="none" xmlns="http://www.w3.org/2000/svg">
<path d="M12.7969 17.9719C13.2016 18.2733 13.6069 18.5758 14.0126 18.878C13.5891 19.2958 13.1648 19.7141 12.7426 20.1316C12.7033 20.1719 12.6666 20.2141 12.628 20.2551L12.6483 19.9787C12.6969 19.3101 12.7458 18.6405 12.7969 17.9719ZM16.1258 12.0776C14.0676 13.3758 12.0094 14.6776 9.95013 15.9751C9.90835 16.0012 9.86263 16.0216 9.81621 16.0426C10.0858 16.9048 10.3555 17.7673 10.6244 18.6301C10.8166 19.2373 11.0158 19.843 11.1976 20.4526C11.2726 20.7055 11.4026 20.8408 11.6769 20.793C11.753 19.7612 11.8258 18.7301 11.9037 17.698C11.9126 17.5776 11.9269 17.4555 11.9416 17.3351C11.8251 17.2683 11.8762 17.1405 11.9166 17.0983C11.9876 17.0251 12.0587 16.9505 12.1298 16.8762C12.1551 16.8526 12.1816 16.8287 12.2062 16.8051C12.2419 16.768 12.2766 16.7308 12.3119 16.6941C12.4823 16.5355 12.6519 16.3741 12.8223 16.2148C12.9194 16.123 13.0176 16.0308 13.1151 15.9394C13.3794 15.6919 13.6433 15.4448 13.9123 15.2012C14.5958 14.5798 15.2933 13.9726 15.9783 13.3537C16.8516 12.5637 17.7226 11.7708 18.5876 10.9719C18.6512 10.8837 18.6923 10.7701 18.748 10.673C18.593 10.6937 18.4112 10.668 18.288 10.7405C17.5598 11.1744 16.8433 11.6255 16.1258 12.0776ZM29.9587 14.9991C29.9587 23.2612 23.2608 29.9591 14.9987 29.9591C6.73621 29.9591 0.0390625 23.2612 0.0390625 14.9991C0.0390625 6.73656 6.73621 0.0390625 14.9987 0.0390625C23.2608 0.0390625 29.9587 6.73656 29.9587 14.9991ZM21.6791 9.03906C21.6712 8.98192 21.6655 8.92335 21.6541 8.86728C21.5223 8.23228 21.1744 8.04049 20.5516 8.25371C20.4601 8.28442 20.3666 8.30442 20.2737 8.32978C19.9262 8.47335 19.5823 8.62692 19.2298 8.75871C18.6455 8.97906 18.0555 9.18513 17.4662 9.39763C17.1069 9.54728 16.7501 9.70371 16.3876 9.84549C15.4794 10.2005 14.5694 10.5487 13.6598 10.9001C11.7876 11.6219 9.91513 12.3433 8.04156 13.0651C7.62085 13.2276 7.19656 13.3816 6.78013 13.5548C6.41406 13.7058 6.04049 13.8523 5.70335 14.0551C5.55406 14.1448 5.38978 14.3805 5.40692 14.5301C5.42335 14.6812 5.65442 14.8105 5.79585 14.9455C5.82156 14.9701 5.86549 14.978 5.90263 14.9894C6.89513 15.2966 7.88763 15.6037 8.88085 15.9101C8.87549 16.0137 8.88728 16.1194 8.91978 16.2241L9.28085 17.3823L9.75549 18.9019C9.81121 19.0783 9.86728 19.2516 9.92228 19.4248C10.0573 19.848 10.1976 20.2851 10.3251 20.713C10.603 21.6412 11.3523 21.713 11.5755 21.713C11.6087 21.713 11.6441 21.7108 11.6791 21.7094C11.7133 21.7108 11.7476 21.7119 11.7816 21.7119C12.3548 21.7119 12.723 21.3962 12.9423 21.2073C12.9826 21.1719 13.0212 21.1394 13.0491 21.118C13.0944 21.0841 13.1369 21.0473 13.1733 21.0062C13.2019 20.9766 13.228 20.9458 13.2562 20.9166C13.3023 20.8651 13.3455 20.8169 13.3837 20.7791C13.7169 20.4491 14.0494 20.1201 14.3833 19.7908L14.7791 19.4005C14.8348 19.4391 14.8905 19.4773 14.9466 19.5155C15.8469 20.1876 16.7458 20.863 17.6494 21.5316C18.3237 22.0301 18.7951 21.9009 19.1216 21.1391C19.2605 20.4966 19.3987 19.8526 19.5366 19.2116C19.663 18.5705 19.788 17.9312 19.913 17.2916C19.9933 16.9401 20.0726 16.5876 20.1519 16.2366C20.3626 15.2466 20.573 14.2555 20.7826 13.2651C20.8508 12.9491 20.9176 12.6333 20.9855 12.3173C21.0019 12.2423 21.0216 12.1669 21.0366 12.0912C21.2516 11.0737 21.4651 10.0569 21.6791 9.03906Z" fill="white"/>
</svg>
